<?xml version="1.0" encoding="utf-8"?>
<!-- Generator: Adobe Illustrator 19.2.1, SVG Export Plug-In . SVG Version: 6.00 Build 0)  -->
<!DOCTYPE svg PUBLIC "-//W3C//DTD SVG 1.1//EN" "http://www.w3.org/Graphics/SVG/1.1/DTD/svg11.dtd">
<svg version="1.1" id="Layer_1" xmlns="http://www.w3.org/2000/svg" xmlns:xlink="http://www.w3.org/1999/xlink" x="0px" y="0px"
	 width="64px" height="64px" viewBox="0 0 64 64" style="enable-background:new 0 0 64 64;" xml:space="preserve">
<style type="text/css">
	.st0{fill:#FFFFFF;}
</style>
<path class="st0" d="M57.9,22.4c-5.6,3.9-11.2,7.7-16.7,11.6c-2.3,1.6-6.2,4.9-9.1,4.9l0,0l0,0c-2.9,0-6.8-3.3-9.1-4.9
	c-5.5-3.9-11.1-7.8-16.7-11.6c-2.5-1.7-6.1-5.8-6.1-9v-1.5c0-2.8,2.2-5,5-5h54c2.8,0,5,2.2,5,5v0.7C64,16.6,61,20.2,57.9,22.4"/>
<path class="st0" d="M0,23.1c1.1,1.2,2.3,2.2,3.6,3.1c5.9,4,11.9,8.1,17.8,12.3c3,2.2,6.7,4.9,10.6,4.9l0,0l0,0
	c3.9,0,7.6-2.7,10.6-4.9c5.8-4.2,11.8-8.3,17.8-12.3c1.3-0.9,2.5-1.9,3.6-3.1v29.1c0,2.8-2.2,5-5,5H5c-2.8,0-5-2.2-5-5V23.1z"/>
</svg>
