<?xml version="1.0" encoding="utf-8"?>
<!-- Generator: Adobe Illustrator 22.0.0, SVG Export Plug-In . SVG Version: 6.00 Build 0)  -->
<svg version="1.1" id="Layer_1" xmlns="http://www.w3.org/2000/svg" xmlns:xlink="http://www.w3.org/1999/xlink" x="0px" y="0px"
	 viewBox="0 0 582.6 408.8" style="enable-background:new 0 0 582.6 408.8;" xml:space="preserve">
<style type="text/css">
	.st0{opacity:0.625;fill:#FFFFFF;enable-background:new    ;}
	.st1{fill:#FFFFFF;}

		.st2{opacity:0.7;fill:none;stroke:#182835;stroke-width:2.5;stroke-linecap:round;stroke-linejoin:round;stroke-miterlimit:10;enable-background:new    ;}
	.st3{opacity:0.7;}
	.st4{fill:none;stroke:#182835;stroke-width:2.5;stroke-linecap:round;stroke-linejoin:round;stroke-miterlimit:10;}
	.st5{fill:#E34400;}
	.st6{fill:none;stroke:#E34400;stroke-width:3.5;stroke-linecap:round;stroke-miterlimit:10;}
</style>
<polygon class="st0" points="581.1,308.1 563,102.1 5.9,150.8 23.9,356.9 "/>
<polyline class="st1" points="563,102.1 581.1,308.1 563,102.1 5.9,150.8 23.9,356.9 5.9,150.8 "/>
<path class="st1" d="M530.7,368.3L84,407.4C53.5,410,26.7,387.5,24,357l0,0l557.2-48.7l0,0C583.7,338.7,561.2,365.6,530.7,368.3z"/>
<g>
	<path class="st1" d="M498.6,1.5L51.9,40.6C21.3,43.3-1.2,70.2,1.5,100.7l4.4,50.1L563,102.1l-4.3-50.2
		C556,21.3,529.2-1.2,498.6,1.5z"/>
</g>
<g id="Layer_1_1_">
	<path class="st2" d="M530.7,368.3L84,407.4C53.5,410,26.7,387.5,24,357l0,0l557.2-48.7l0,0C583.7,338.7,561.2,365.6,530.7,368.3z"
		/>
	<line class="st2" x1="5.9" y1="150.8" x2="23.9" y2="356.9"/>
	<line class="st2" x1="563" y1="102.1" x2="581.1" y2="308.1"/>
	<g class="st3">
		<path class="st4" d="M498.6,1.5L51.9,40.6C21.3,43.3-1.2,70.2,1.5,100.7l4.4,50.1L563,102.1l-4.3-50.2
			C556,21.3,529.2-1.2,498.6,1.5z"/>
	</g>
	<g class="st3">
		<g>
			<path class="st4" d="M506.6,38.9c-4.9-2.3-12.3-2.4-16.7,1.2c-1.9,1.5-2.8,3.4-2.6,5.7c0.6,6.8,8,7.7,13.3,8.9
				c3.2,0.7,7.1,1.8,8.8,4.9c1.6,2.8,1.3,6.5-0.8,8.9c-2.3,2.6-6.4,3.7-9.8,3.8c-4,0.2-8.2-1.1-11.4-3.6"/>
		</g>
		<polyline class="st4" points="112,106.3 89.9,108.2 86.8,73.4 108.2,71.5 		"/>
		<polyline class="st4" points="115.8,70.8 118.9,105.6 134.9,104.2 		"/>
		<polyline class="st4" points="138.3,68.8 141.4,103.6 157.4,102.2 		"/>
		<line class="st4" x1="78.4" y1="109.2" x2="75.3" y2="74.4"/>
		<line class="st4" x1="51.7" y1="111.5" x2="48.6" y2="76.7"/>
		<line class="st4" x1="88.3" y1="90.2" x2="107.4" y2="88.6"/>
		<polyline class="st4" points="453.6,76.4 431.4,78.3 428.4,43.5 449.8,41.6 		"/>
		<line class="st4" x1="478.7" y1="74.2" x2="475.6" y2="39.3"/>
		<line class="st4" x1="429.8" y1="60.4" x2="448.9" y2="58.7"/>
		<line class="st4" x1="50.1" y1="93.6" x2="76.8" y2="91.2"/>

			<ellipse transform="matrix(0.9962 -8.715437e-02 8.715437e-02 0.9962 -6.5925 15.4906)" class="st4" cx="174.1" cy="83.2" rx="17.9" ry="17.5"/>
		<polyline class="st4" points="221.9,96.7 218.9,61.8 238,90.6 251.6,59 254.6,93.8 		"/>
		<polyline class="st4" points="388.3,82.1 385.3,47.3 404.4,76.1 418,44.4 421,79.3 		"/>
		<polyline class="st4" points="259.7,58.3 275.7,78.4 287.9,55.8 		"/>
		<polyline class="st4" points="381.1,82.7 361.7,49.4 348.6,85.6 		"/>
		<line class="st4" x1="275.7" y1="78.4" x2="276.9" y2="91.9"/>
		<polyline class="st4" points="314,88.6 311,53.8 341,86.3 338,51.4 		"/>
		<line class="st4" x1="352.7" y1="74.2" x2="375" y2="72.2"/>
		<path class="st4" d="M196.2,99.5c0.1,0.3,0.4,0.9,0.4,1.8c-0.1,1.2-0.8,1.9-1,2.1"/>
	</g>
</g>
<g id="Layer_3">
	<path class="st5" d="M134.1,233.2c0-1.6-1.6-2.9-3.6-2.8c-2,0.1-3.5,1.4-3.5,3s1.6,2.9,3.6,2.8
		C132.5,236.2,134.1,234.8,134.1,233.2z"/>
	<g>
		<line class="st6" x1="457.2" y1="187.2" x2="486.4" y2="182.1"/>
		<path class="st6" d="M69.1,217.6c12.4-10,27.5-15.1,36.9-11.3c10.4,4.3,12.6,17.1,10.8,25.7c-3.1,15.3-15,23.1-36.3,23.8
			c8.9,40.5,42.4,67.2,73.8,63.8c22.5-2.4,40.3-21,45.2-26.7"/>
		<path class="st6" d="M129.3,245.4c0,3-3.8,30.3-2.3,42.7c0.2,1.7,0.6,4.3,2.3,4.7c2.2,0.5,5.3-3,5.9-3.8"/>
		<path class="st6" d="M167.2,244.2c-0.6-0.8-3.3-4.5-7.5-4.5c-0.9,0-4.2,0.1-8.5,5.2c-10.7,12.3-13.6,37.2-2.4,42.7
			c0.6,0.3,2.8,1.3,5.7,1.2c7.1-0.4,11.4-7.7,12-8.7"/>
		<path class="st6" d="M180.9,190.5c-0.9,31.4-1.9,62.7-2.8,94.1"/>
		<path class="st6" d="M178.9,275.6c0.3-10.8,6.3-23.4,9.4-29.7c1.5-2.9,6.3-12.3,12.5-13.2c0.4-0.1,1.5-0.2,2.6,0.2
			c3,0.9,4.4,4.6,4.8,8.9c1.1,11.6,1.5,35.2,1.5,37.3"/>
		<path class="st6" d="M246.8,227.1c-9-7.2-16.7,8.3-20,14.9c-2.8,5.5-13.8,33.7-1.4,33.1c10.2-0.5,16.9-14.7,20.1-22.8
			c2-5,3.8-10.1,4.4-15.5C250.3,232.9,249.2,229.1,246.8,227.1z"/>
		<path class="st6" d="M249.7,237.5c1.3-5.4,3.6-12.3,3.5-9c-0.1,3.8-0.5,10.9-0.6,14.6c-0.2,5.5-0.3,11.1,0.2,16.6
			c0.3,2.7,0.3,5.5,2.6,7.6c0.9,0.9,3.7,2.8,5.3,2.1"/>
		<line class="st6" x1="269.3" y1="220.6" x2="268.1" y2="268.6"/>
		<path class="st6" d="M294.3,218.6c-0.8-0.4-2.4-1.2-4.3-1.1c-10.3,0.3-17.6,21.6-18.6,24.5c-1.4,4.1-2.7,9.8-2.9,16.8"/>
		<path class="st6" d="M486.4,223.8c-3.2,7.8-14.6,12.1-16.1,1c-2.3-17.2,0.4-36,0.8-53.3"/>
		<path class="st6" d="M327.4,164.5c-0.9,31.4-1.9,62.7-2.8,94.1"/>
		<path class="st6" d="M319.9,214.4c-0.8-0.6-2.8-2-5.5-2c-4.8-0.1-8.5,4-10.1,5.7c-11,12-10.5,41.1-0.1,43.6c6,1.4,11.3-4.1,13.6-8
			c1.6-2.6,2.7-5.4,3.6-8.2c2.8-8.4,4.6-16.8,2.7-25.3C323.6,218,321.8,215.8,319.9,214.4z"/>
		<path class="st6" d="M448.5,192.4c-5-5.5-12.6-0.8-16.3,3.7c-3.6,4.4-5.8,9.8-7.1,15.3c-2,9-2,23.6,8.8,27.1h0.1
			C456.2,245.6,458.5,203.2,448.5,192.4z"/>
		<path class="st6" d="M493.4,209.3c6.8-3.1,13.5-7.2,18.1-12.4c3.9-4.5,7.4-13.2,1.5-17.5c-4.1-3-9.3,0.8-11.7,3.7
			c-4.4,5.4-6.7,12.1-7.5,18.5c-0.9,6.5-1.1,14.4,2.1,20.3c2.6,4.8,9.2,6.4,14.8,3.6c1.6-0.8,3.1-1.8,4.4-2.9c1.1-0.9,2.2-2.4,3.6-3
			"/>
		<path class="st6" d="M75.4,206.6c-1.1,35.6-2.1,71.1-3.2,106.7"/>
		<path class="st6" d="M414.2,165.2c-2.1-6.3-8.4-13.6-17.1-14.1c-17.2-0.9-25,19.1-29.2,32.6c-5.1,16.5-7.4,50.6,10.7,60.3
			c15,8.1,26.8-1.8,36.3-11.1"/>
		<path class="st6" d="M453.8,178.1c-6.1-5.7-9.5-10-11-12.1c-0.4-0.5-1.3-0.4-1.6,0.2c-1.1,2.6-3.9,8-10.3,14.8"/>
		<path class="st6" d="M509.3,166.5c0,0,6.5-15.1,7.9-20.7"/>
	</g>
</g>
</svg>
