<?xml version="1.0" encoding="utf-8"?>
<!-- Generator: Adobe Illustrator 22.0.1, SVG Export Plug-In . SVG Version: 6.00 Build 0)  -->
<svg version="1.1" id="Layer_1" xmlns="http://www.w3.org/2000/svg" xmlns:xlink="http://www.w3.org/1999/xlink" x="0px" y="0px"
	 viewBox="0 0 583 410" style="enable-background:new 0 0 583 410;" xml:space="preserve">
<style type="text/css">
	.st0{opacity:0.625;fill:#FFFFFF;enable-background:new    ;}
	.st1{fill:#FFFFFF;}

		.st2{opacity:0.7;fill:none;stroke:#182835;stroke-width:2.5;stroke-linecap:round;stroke-linejoin:round;stroke-miterlimit:10;enable-background:new    ;}
	.st3{opacity:0.7;}
	.st4{fill:none;stroke:#182835;stroke-width:2.5;stroke-linecap:round;stroke-linejoin:round;stroke-miterlimit:10;}
	.st5{display:none;}
	.st6{display:inline;fill:none;}
	.st7{display:inline;}
	.st8{fill:none;}
	.st9{fill:#E34400;}
</style>
<polygon class="st0" points="581.1,308.1 563,102.1 5.9,150.8 23.9,356.9 "/>
<polyline class="st1" points="563,102.1 581.1,308.1 563,102.1 5.9,150.8 23.9,356.9 5.9,150.8 "/>
<path class="st1" d="M530.7,368.3L84,407.4C53.5,410,26.7,387.5,24,357l0,0l557.2-48.7l0,0C583.7,338.7,561.2,365.6,530.7,368.3z"/>
<g>
	<path class="st1" d="M498.6,1.5L51.9,40.6C21.3,43.3-1.2,70.2,1.5,100.7l4.4,50.1L563,102.1l-4.3-50.2
		C556,21.3,529.2-1.2,498.6,1.5z"/>
</g>
<g id="Layer_1_1_">
	<path class="st2" d="M530.7,368.3L84,407.4C53.5,410,26.7,387.5,24,357l0,0l557.2-48.7l0,0C583.7,338.7,561.2,365.6,530.7,368.3z"
		/>
	<line class="st2" x1="5.9" y1="150.8" x2="23.9" y2="356.9"/>
	<line class="st2" x1="563" y1="102.1" x2="581.1" y2="308.1"/>
	<g class="st3">
		<path class="st4" d="M498.6,1.5L51.9,40.6C21.3,43.3-1.2,70.2,1.5,100.7l4.4,50.1L563,102.1l-4.3-50.2
			C556,21.3,529.2-1.2,498.6,1.5z"/>
	</g>
	<g class="st3">
		<g>
			<path class="st4" d="M506.6,38.9c-4.9-2.3-12.3-2.4-16.7,1.2c-1.9,1.5-2.8,3.4-2.6,5.7c0.6,6.8,8,7.7,13.3,8.9
				c3.2,0.7,7.1,1.8,8.8,4.9c1.6,2.8,1.3,6.5-0.8,8.9c-2.3,2.6-6.4,3.7-9.8,3.8c-4,0.2-8.2-1.1-11.4-3.6"/>
		</g>
		<polyline class="st4" points="112,106.3 89.9,108.2 86.8,73.4 108.2,71.5 		"/>
		<polyline class="st4" points="115.8,70.8 118.9,105.6 134.9,104.2 		"/>
		<polyline class="st4" points="138.3,68.8 141.4,103.6 157.4,102.2 		"/>
		<line class="st4" x1="78.4" y1="109.2" x2="75.3" y2="74.4"/>
		<line class="st4" x1="51.7" y1="111.5" x2="48.6" y2="76.7"/>
		<line class="st4" x1="88.3" y1="90.2" x2="107.4" y2="88.6"/>
		<polyline class="st4" points="453.6,76.4 431.4,78.3 428.4,43.5 449.8,41.6 		"/>
		<line class="st4" x1="478.7" y1="74.2" x2="475.6" y2="39.3"/>
		<line class="st4" x1="429.8" y1="60.4" x2="448.9" y2="58.7"/>
		<line class="st4" x1="50.1" y1="93.6" x2="76.8" y2="91.2"/>

			<ellipse transform="matrix(0.9962 -8.719920e-02 8.719920e-02 0.9962 -6.5911 15.4987)" class="st4" cx="174.1" cy="83.2" rx="17.9" ry="17.5"/>
		<polyline class="st4" points="221.9,96.7 218.9,61.8 238,90.6 251.6,59 254.6,93.8 		"/>
		<polyline class="st4" points="388.3,82.1 385.3,47.3 404.4,76.1 418,44.4 421,79.3 		"/>
		<polyline class="st4" points="259.7,58.3 275.7,78.4 287.9,55.8 		"/>
		<polyline class="st4" points="381.1,82.7 361.7,49.4 348.6,85.6 		"/>
		<line class="st4" x1="275.7" y1="78.4" x2="276.9" y2="91.9"/>
		<polyline class="st4" points="314,88.6 311,53.8 341,86.3 338,51.4 		"/>
		<line class="st4" x1="352.7" y1="74.2" x2="375" y2="72.2"/>
		<path class="st4" d="M196.2,99.5c0.1,0.3,0.4,0.9,0.4,1.8c-0.1,1.2-0.8,1.9-1,2.1"/>
	</g>
</g>
<g id="Layer_3" class="st5">
	<path class="st6" d="M134.1,233.2c0-1.6-1.6-2.9-3.6-2.8c-2,0.1-3.5,1.4-3.5,3s1.6,2.9,3.6,2.8
		C132.5,236.2,134.1,234.8,134.1,233.2z"/>
	<g class="st7">
		<line class="st8" x1="457.2" y1="187.2" x2="486.4" y2="182.1"/>
		<path class="st8" d="M69.1,217.6c12.4-10,27.5-15.1,36.9-11.3c10.4,4.3,12.6,17.1,10.8,25.7c-3.1,15.3-15,23.1-36.3,23.8
			c8.9,40.5,42.4,67.2,73.8,63.8c22.5-2.4,40.3-21,45.2-26.7"/>
		<path class="st8" d="M129.3,245.4c0,3-3.8,30.3-2.3,42.7c0.2,1.7,0.6,4.3,2.3,4.7c2.2,0.5,5.3-3,5.9-3.8"/>
		<path class="st8" d="M167.2,244.2c-0.6-0.8-3.3-4.5-7.5-4.5c-0.9,0-4.2,0.1-8.5,5.2c-10.7,12.3-13.6,37.2-2.4,42.7
			c0.6,0.3,2.8,1.3,5.7,1.2c7.1-0.4,11.4-7.7,12-8.7"/>
		<path class="st8" d="M180.9,190.5c-0.9,31.4-1.9,62.7-2.8,94.1"/>
		<path class="st8" d="M178.9,275.6c0.3-10.8,6.3-23.4,9.4-29.7c1.5-2.9,6.3-12.3,12.5-13.2c0.4-0.1,1.5-0.2,2.6,0.2
			c3,0.9,4.4,4.6,4.8,8.9c1.1,11.6,1.5,35.2,1.5,37.3"/>
		<path class="st8" d="M246.8,227.1c-9-7.2-16.7,8.3-20,14.9c-2.8,5.5-13.8,33.7-1.4,33.1c10.2-0.5,16.9-14.7,20.1-22.8
			c2-5,3.8-10.1,4.4-15.5C250.3,232.9,249.2,229.1,246.8,227.1z"/>
		<path class="st8" d="M249.7,237.5c1.3-5.4,3.6-12.3,3.5-9c-0.1,3.8-0.5,10.9-0.6,14.6c-0.2,5.5-0.3,11.1,0.2,16.6
			c0.3,2.7,0.3,5.5,2.6,7.6c0.9,0.9,3.7,2.8,5.3,2.1"/>
		<line class="st8" x1="269.3" y1="220.6" x2="268.1" y2="268.6"/>
		<path class="st8" d="M294.3,218.6c-0.8-0.4-2.4-1.2-4.3-1.1c-10.3,0.3-17.6,21.6-18.6,24.5c-1.4,4.1-2.7,9.8-2.9,16.8"/>
		<path class="st8" d="M486.4,223.8c-3.2,7.8-14.6,12.1-16.1,1c-2.3-17.2,0.4-36,0.8-53.3"/>
		<path class="st8" d="M327.4,164.5c-0.9,31.4-1.9,62.7-2.8,94.1"/>
		<path class="st8" d="M319.9,214.4c-0.8-0.6-2.8-2-5.5-2c-4.8-0.1-8.5,4-10.1,5.7c-11,12-10.5,41.1-0.1,43.6c6,1.4,11.3-4.1,13.6-8
			c1.6-2.6,2.7-5.4,3.6-8.2c2.8-8.4,4.6-16.8,2.7-25.3C323.6,218,321.8,215.8,319.9,214.4z"/>
		<path class="st8" d="M448.5,192.4c-5-5.5-12.6-0.8-16.3,3.7c-3.6,4.4-5.8,9.8-7.1,15.3c-2,9-2,23.6,8.8,27.1h0.1
			C456.2,245.6,458.5,203.2,448.5,192.4z"/>
		<path class="st8" d="M493.4,209.3c6.8-3.1,13.5-7.2,18.1-12.4c3.9-4.5,7.4-13.2,1.5-17.5c-4.1-3-9.3,0.8-11.7,3.7
			c-4.4,5.4-6.7,12.1-7.5,18.5c-0.9,6.5-1.1,14.4,2.1,20.3c2.6,4.8,9.2,6.4,14.8,3.6c1.6-0.8,3.1-1.8,4.4-2.9c1.1-0.9,2.2-2.4,3.6-3
			"/>
		<path class="st8" d="M75.4,206.6c-1.1,35.6-2.1,71.1-3.2,106.7"/>
		<path class="st8" d="M414.2,165.2c-2.1-6.3-8.4-13.6-17.1-14.1c-17.2-0.9-25,19.1-29.2,32.6c-5.1,16.5-7.4,50.6,10.7,60.3
			c15,8.1,26.8-1.8,36.3-11.1"/>
		<path class="st8" d="M453.8,178.1c-6.1-5.7-9.5-10-11-12.1c-0.4-0.5-1.3-0.4-1.6,0.2c-1.1,2.6-3.9,8-10.3,14.8"/>
		<path class="st8" d="M509.3,166.5c0,0,6.5-15.1,7.9-20.7"/>
	</g>
</g>
<g>
	<path class="st9" d="M58.2,319.9c-1.2-1.5-2.9-3.9-4.3-5.1c-2-1.4-4.5-2.7-4.8-4.6c-0.5-2.7,2.6-4,4.2-5.5c2.1-1.9,3-4.5,4.7-6.6
		c1.9-2.3,2.8-4.5,3.7-7.3c0.7-2.5,1.6-5.1,2.6-7.5c1-2.9,2-5.8,2.6-8.7c0.5-2.8,2.2-5.3,2.9-8.1c0.9-2.9,2.1-5.7,3-8.6
		c1.7-5.6,4.1-10.5,7.5-15.2c0.5-0.8,1.7-2.6,1.6-3.6c-0.2-0.9-1.4-0.8-2.2-0.7c-3.1,0.6-6.2,1.7-9.1,2.7c-5.3,1.7-9.7,5.1-14.2,8.5
		c-2.1,1.7-3.9,3.2-5.4,5.5c-1.5,2.5-3.1,5.3-3.5,8.2c-0.3,1.1-0.2,2.4,0.1,3.8c0.3,1.6,0.9,3.2,1.9,4.1c1,1.1,2.3,1.5,4.1,1
		c2.2-0.5,3.1-3.4,5.1-3.9c1.1-0.3,2.3,0.2,2.6,1.6c0.1,0.7,0.2,1.4,0.2,1.8c-0.2,2.2-0.5,4.4-1.9,6.1s-4,3.3-6.1,3.8
		c-1,0.2-2,0.8-3.2,1.1c-1.4,0.3-2.9,0-4.2,0.1c-2.5,0.2-4.7-1.1-6.3-3c-1.8-2.1-2.5-4.8-2.7-7.6c-0.2-1.4-0.4-2.7-0.2-4.2
		c0.1-1.2,0.5-2.4,0.5-3.6c0.1-2.8,1.2-5.1,2.6-7.5c1.3-2.2,3.1-3.8,4.6-5.8c1-1.2,2-1.9,3.1-2.7c1.1-0.7,1.8-1.7,2.8-2.6
		c1.9-2.1,4.5-3.3,7.1-4.3c1.4-0.4,2.7-1.3,4-2.2c1.2-0.8,2.5-1.3,3.8-2c2-0.9,4.1-1.7,6.2-2.2c0.8-0.2,1.4-0.3,2.1-0.4
		c2.3-0.4,4.7-1.1,6.9-1.2c3-0.1,5.9-0.1,8.8-0.5c2.6-0.3,4.8,0.5,7.3,1c1.2,0.2,2,0.4,3.2,0.9c1,0.6,2.2,0.8,3.3,1.2
		c2.2,0.9,4.1,3,5.6,4.9c1.2,1.8,2.4,3.4,2.8,5.7l0.8,4.4c0.2,1.2-0.3,2.4-0.6,3.7c-0.8,2.7-1.9,5-3.3,7.4
		c-3.1,4.8-6.5,8.2-11.2,11.2c-1.1,0.6-2.2,1.3-2,2.6c0.2,0.9,1.2,1.6,2,2.1c2,1.6,3.7,4.1,4.2,6.7c0.4,2.5-0.2,6,0.3,9
		c0.3,1.8,1,3.3,2.6,4.1c1,0.6,2,0.7,3,0.5c3-0.7,5.8-4.6,7.3-7c1.3-2,1.8-3.8,2.7-6.2c0.6-1.3,1.4-2.7,1.8-4.7
		c0.1-0.4,0.2-0.5,0.6-0.6c0.4-0.1,1.7,0.2,2.2,0.5c0.7,0.3,1.1,0.8,1,1.1c-0.7,3-1.5,4.5-1.8,5.4c-1,2.7-2.4,5.4-3.5,8
		c-2.3,4.8-5,8.7-9.3,11.9c-1.9,1.5-4.1,2.7-6.2,3.2c-2.2,0.5-4.4,0.3-6.8-0.7c-1.9-0.9-2.7-2.3-3.4-4.4c-0.2-0.5-0.4-1.2-0.3-1.8
		c0-0.6-0.1-1-0.2-1.7c-0.1-0.6-0.4-1.2-0.6-1.6c-0.2-0.8-0.4-1.4-0.5-2.1c-0.2-1.4-0.1-2.6-0.1-3.7c0.1-1.2,0.2-2.5,0.1-4
		c-0.2-1.7-0.2-3.8-0.5-5.6c-0.2-0.9-0.7-3.5-1.1-4.2c-1.1-2.1-3.8,0.1-5.7-0.8c-0.9-0.4-1.9-1.2-2.1-1.9c-0.3-1.5,0.6-3.6,2.5-4
		c2.4-0.6,3.8,0,5.2-0.3c1.2-0.3,3.6-1.6,5.6-3.6c1.7-1.9,3.5-3.5,4.8-6c1.2-2.3,2.6-4.4,2.8-6.9c0.2-2.8-0.5-5.3-0.8-7.9
		c-0.1-0.9-0.1-1.8-0.2-2.6c-0.1-0.4-0.3-1-0.5-1.5c-0.5-0.8-1.3-1.5-1.8-2.2c-0.8-1-1-1.9-2.1-2.6c-1-0.5-2.2-0.8-3.3-1.1
		c-1.2-0.4-2.4-0.6-3.4-0.4c-1.1,0.3-2,0.9-2.6,2.5c-0.6,1.3-1,2.6-1.8,4c-0.7,1.1-1.3,2.3-1.8,3.6c-1.2,2.6-1.8,5.5-2.3,8.3
		c-0.5,2.9-1.5,5.7-2.2,8.5c-0.6,3-1.2,5.8-2,8.8c-0.8,2.9-0.8,5.6-1.2,8.6c-0.3,3-1.4,6-2.2,8.9c-1,3-1.9,6-2.9,8.9
		c-0.9,2.6-1.4,5.3-2.1,7.8c-0.8,2.8-1.8,5.3-3.1,7.7c-0.7,1.1-1.2,2.2-1.8,3.4c-0.4,0.9-0.9,2.3-2,2.6
		C60.2,322.1,59,320.6,58.2,319.9z M40.5,272l0.2-0.4l-0.8-0.6l-0.3,0.1l-0.3,0.3l0,1.4L40.5,272z M42.9,279.1l0.4-1l-0.2-0.2
		l-0.3-0.3l-0.2-0.3l0.3-0.1l0.8,0.9l0.2,0l0.7-0.8l0.8-0.3l0.8-1.5l-0.1-1.2L46,274l-0.2,0l-0.7,2l-0.2,0.2l-1.7-1.1l-0.4,0.1
		l-0.5,0.4l0.2,0.2l0.6,0.1l0.3,0.2l-0.2,0.3l-0.5,0.1l-1.2-0.3l-0.2-0.2l-0.4-2l-1.1-0.3l-0.2,0.2l0.1,1.2l0.5,0.1l0,0.2l-0.3,0.9
		l0.7,0.3l0.2,0.6l0.8-0.2l0.2,0.6l-0.1,0.2l-0.5,0.5l0,0.2l0.7,0.9l0.4,0.1l0.2,0L42.9,279.1z M42,268.8l-1.6-1.9L40,267l-0.1,0.5
		l1.8,1.6L42,268.8z M44.7,272.7l0-0.4l-0.4-1.2l0.2-0.6l0.7,0.3l0.3-0.1l0.1-0.2l-0.1-0.3l-1.4-0.5l0.2-0.4l0.5-0.4l0-0.2l-0.3-0.3
		l-0.5-0.1l-0.2,0l-0.9,1.3l-1.1,0.3l-0.9-0.4l-0.3,0.1l-0.1,0.2l0.4,0.5l0.3,1.1l0.1,0.1l0.4,0.1l0.2,0l0.7-1.1l0.4-0.2l0.2,0.2
		l0,1.2l0.9,1.2L44.7,272.7z M41.5,272.5l-0.3,0.1l0.1,0.3l0.3-0.1L41.5,272.5z M45,275l-0.1-0.8l-0.4-0.3l-1.1-0.3l-0.5,0.4l-0.2,0
		l-0.6-0.6l-0.6,1l0.1,0.5l0.3,0l1.4-0.6l0.5,0l1,0.8L45,275z M43.6,267.1l0.1-0.2l-0.3-0.6l-0.4,0.1l-0.1,0.5l-0.6,0.7l0.4,0.3
		l0.4-0.1L43.6,267.1z M43,272.8l0.2-0.4l-0.3-0.3l-0.4-0.1l-0.3,0.3l0,0.2l0.2,0.3l0.1,0.1L43,272.8z M43.5,261.8l0-0.2l-0.8,0.7
		l0,0.1l0.2,0.1L43.5,261.8z M45.6,280.4l-0.4-0.5l0.2-0.3l2.7,0.3l0.1-0.1l0-0.6l0.3-0.7l-0.4-0.5l0-0.2l0.7-1.1l-0.5-0.7l-0.1-0.3
		l0.6-1.8l0.1-0.2l-1-1.5l-1-0.5l-0.1-0.7l-0.3,0l-0.5,0.8l0.8,0.6l0.7,0.1l0.3,0.3l-0.2,0.4l-1.5-0.4l0,0.2l1.5,1.2l0,0.2l-0.1,0.2
		l-0.8,1.8l0.8-0.1l0.2,0.1l0.1,0.5l-0.3,0.3l-1.1,0.4l-0.1,0.1l-0.3,1l-0.2,0l-0.7-0.4l-0.3,0.1l-1.7,1.4l0,0.4l0.7,0l1.6,0.6
		L45.6,280.4z M44.9,265.9l0.2-0.2l0-0.5l0-0.2l-0.4-0.1l-0.3,0l-0.3,0.4l0,0.5l0.2,0.2l0.2,0.1L44.9,265.9z M45,267.5l-0.2-0.3
		l-0.3-0.2l-0.3,0.2l0.2,0.3l0.3,0.3L45,267.5z M45.4,263l-0.1-0.5l-0.4,0.2l-0.4,0.6l0.3,0.3l0.3-0.1L45.4,263z M46.2,269.3
		l-0.1-0.3l-0.4-0.1l-0.2,0.4l0.2,0.3l0.3-0.1L46.2,269.3z M46.9,278.9l0-0.2l0.2-0.4l0.5,0l0.1,0.1l0,0.5l-0.3,0.2L46.9,278.9z
		 M50.4,276l0.1-0.2l-0.9-0.6l-0.4,0.1l-0.1,0.1l0.2,0.4l0.1,0.1L50,276L50.4,276z M51,250.5l-0.3,0.1l0,0.4l0.5,0L51,250.5z
		 M52.2,250l-0.1-0.4l-0.3,0.2l-0.1,0.2l0.3,0.3L52.2,250z M53.9,310.8l0.2-0.4l-1.4-0.8l-0.3,0.1l-0.1,0.2l0.6,0.2l0.7,0.8
		L53.9,310.8z M54.5,247.9l0.3-0.4l0-0.2l-0.4-0.1l-0.4,0.1l-0.4,0.3l0,0.5l0.3,0L54.5,247.9z M54.4,308.6l-0.1-0.3l-0.4-0.4
		l-0.2-0.1l-0.2,0.4l0,0.2l0.3,0.3l0.5,0.1L54.4,308.6z M56.6,246.6l0-0.2l-0.3-0.3l-0.7-0.3l0,0.5l0.1,0.3l0.2,0.2l0.1,0.1l0.4-0.1
		L56.6,246.6z M56.2,309.3l-0.1-0.6l-0.4-0.5l-0.2,0.2l0,0.7l0.3,0.5L56.2,309.3z M57,277.5l0.2-0.4l0.1-0.5l-0.6-0.1l-0.5,0.1
		l-0.1,0.2l0.7,0.7L57,277.5z M58.7,306.3l-0.5-0.8l0.2-1.1l-0.1-0.3l-0.4-0.3l-0.5,0l-0.2,0.2l-0.9,2.1l0.2,0.2l0.3-0.1l0.6-0.7
		l0.2,0.1l0.9,1L58.7,306.3z M58.2,275.7l0.2-0.2l-0.1-0.5l-0.1-0.1l-0.4,0.1l-0.1,0.1l0,0.5l0.2,0.1L58.2,275.7z M58.4,273
		l-0.2-0.2l-0.2-0.1l-0.2,0l0.1,0.3l0.2,0.3l0.3-0.1L58.4,273z M59.3,272.1l-0.2-0.4l-0.3,0l-0.1,0.1l0.2,0.3l0.2,0.2L59.3,272.1z
		 M59,302.1l-0.1-0.3l-0.3,0.2l0.2,0.3L59,302.1z M60.1,310.1l-0.2-0.2l-0.3,0l-0.1,0.1l0.3,0.3l0.2,0L60.1,310.1z M61.7,308.8
		l0.2-0.4l0-0.6l-0.3-0.3l-0.5,0.5l-0.2,0l-0.4-0.1l-0.2,0l0.1,0.5l-0.1,0.2l-0.2,0.4l0,0.2l0.3,0.2l0.2,0.1L61.7,308.8z
		 M60.6,314.4l-0.4,0.1l0.1,0.5l0.4-0.1L60.6,314.4z M61.4,312.2l-0.1-0.3l-0.3-0.4l-0.3-0.2l-0.3,0.1l-0.1,0.1l0.5,0.6l-0.6,0.7
		l0,0.1l0.4,0.3l0.2,0L61.4,312.2z M64,311.3l0.4-0.2l0.4-0.9l-0.2-0.3l-0.3-0.5l-0.3,0.2l0.3,0.9L64,311l-0.5-0.1l0.1-2.5l-0.4-0.5
		l-0.5-0.1l-0.1,0.2l0.2,0.4l-0.1,0.7L63,310l-0.3,0.8l0,0.2l1,0.4L64,311.3z M66.9,296l0.1-0.2l-1.1-0.6l-0.2-0.5l-0.8-0.8l-0.3-1
		l-0.4-0.1l-1.3,2.3l0,0.2l0.8-0.2l0.5-0.6l0.2,0l1.4,1.3l1,0.4L66.9,296z M65.7,305.4L66,305l-0.4-0.1l-1.3,0.4l-1.2-0.2l-0.2,0.3
		l0,0.5l0.4,0.1l0.7,0L65.7,305.4z M64.2,307.2l-0.2-0.3l-0.3,0l0.1,0.5l0.4,0.1L64.2,307.2z M65.7,302.8l0.3-0.3l-0.3-0.4l-0.4-0.1
		l-0.5,0l0.1,0.5l0.2,0.2l0.3,0.3L65.7,302.8z M66.5,290.4l-0.2-0.1l-1,0.4l-0.1,0.1l0.2,0.2l0.1,0.1L66.5,290.4z M66.4,285.2
		l-0.1-0.3l-0.1-0.1l-0.3,0l-0.4,0.9l0.3,0.2L66.4,285.2z M66.4,288.3l0.4-0.2l-0.1-1.4l-0.5,0l-0.4,0.4l-0.2,1.2l0.3,0L66.4,288.3z
		 M68.8,285.6l0.8,0l0.4-0.1l0.4-0.3l0.1-0.6l-0.1-0.5l-0.3,0.1l-0.2,0.8l-0.4,0.1l-0.1-0.1l-0.3-1.3l0.3-0.7l-0.2-0.4l-0.4-0.3
		l-1.6,0.4l-0.2,0.2l0.1,0.3l0.8,0.2l0.7,0.9l0.1,0.5l-0.3,0l-0.6-0.1l-0.2,0.8l-0.8,0.1l-0.1,0.1L67,286l0.4,0.1l0.5,0L68.8,285.6z
		 M70.2,291.3l0.2-0.3l-0.1-0.3l-0.8,0.2l-0.2-0.1l-1.3-1.4l-0.3,0.1l-0.2,0.2l-0.2,0.4l0,0.2l0.3,0.4l1.1,0.3l0.2,0.2l-0.1,0.6
		l0,0.1L70.2,291.3z M68.5,297.9l-0.7-0.7l-0.2,0l0,0.2l0.8,0.5L68.5,297.9z M68.2,294.1l0.2-0.3l-0.1-0.5l-0.2,0l-0.2,0.2l-0.2,0.4
		l0.2,0.2L68.2,294.1z M71,281.1l0.6,0.3l0.2,0.1l0.1-0.2l-0.4-0.5l0-0.7l0-0.1l-0.2-0.1l-0.4,0.1l-0.4,0.7l-0.8-1l-0.6-0.1
		l-0.2-0.2l0.6-1.3l0-1.1l0.2-0.4l0.3,0.3l0.3,0.9l0,0.2l-0.5,0.6l-0.1,0.1l0.1,0.5l0.1,0.1l1.1-0.1l0.1-0.2l-0.4-1l-0.1-0.5
		l0.3-0.4l1.3,0l0.4-0.2l0.2-0.5l-0.1-0.3l-0.3-0.2l-0.6,0.5l-0.1-0.3l0.3-0.3L72,275l-0.2-0.2l-0.5-0.1l-0.4,0.1l-0.9,0.7l-0.1-0.1
		l-0.1-0.5l0.1-0.1l2.8-2.4l-0.2-0.2l-1.2,0.2l-2.8,3.6l-0.6,2.3l0.2,0.2l0.4,0.3l0,0.2l-0.1,0.6l0,0.2l1,0.9l0.2,0.3l0,0.8l0.2,0.1
		l0.3,0L71,281.1z M70.1,289.2l-0.1-0.3l-0.9-0.8l-0.3,0l-0.3,0.3l0.3,0.4l0.8,0.6l0.5,0L70.1,289.2z M69.3,296.2l0.2-0.4l-0.1-0.5
		L69,295l-0.3,0l-0.2,0.3l0.4,1.1L69.3,296.2z M73,271l-0.3-0.5l0.1-0.2l0.9-0.2l-0.1-0.5l-0.1-0.1l-0.2-0.1l-2.5,0.2l-0.2,0.2
		L70,271l0.1,0.5l0.3-0.2l0.7-0.9l0.7,0.1l0,0.2l0,0.6l0.4,0.3l0.2,0L73,271z M72.1,287.4l-0.1-0.3l-0.2-0.3l-0.3,0.1l-0.4,0.3
		l-0.7,0.9l0.3,0.4L72.1,287.4z M72,284.3l0.1-0.2l0.9-0.6l0.3-0.3l0.1-0.5l-0.2-0.6l-0.3-0.3l-0.6-0.2l-0.2,0l-0.7,1.3l-0.2,0
		l-0.5-0.2l-0.2,0.2l1.3,2l0.3,0L72,284.3z M70.8,276.1l-0.3-0.2l0.3-0.4l0.3,0l0.3,0.3l-0.3,0.2L70.8,276.1z M75.1,269.3l0.1-0.1
		l-0.1-0.5l-0.2-0.2l-0.8-0.5l-0.9-0.1l-1-0.7l-0.2,0l-0.7,1.5l0.2,0.2l0.7-0.6l0.2,0l0.8,0.5l0.7-0.2l0.4,0.1l0.1,0.6l0.3,0.3
		l0.2,0L75.1,269.3z M72,278.3l-0.1-0.3l-0.4,0.1l0.2,0.3L72,278.3z M72.3,283.1l-0.1-0.3l0.1-0.1l0.4-0.1l0.1,0.1l0.1,0.3l-0.1,0.2
		l-0.3,0.1L72.3,283.1z M73.7,266.8l-0.5-1.6l0.8-0.7l0.2-0.4l-0.2-1l0.1-0.2l0-0.2l-0.1-0.1l-0.2,0.2l-1.3,2.4l0.1,1.3l0.6,0.7
		l0.5,0L73.7,266.8z M73.9,279.5l0-0.7l-0.3,0l-0.2,0L73,279l0.7,0.9L73.9,279.5z M73.8,277.5l0.2-0.5l-0.3-0.2l-0.3,0.1l-0.4,0.3
		l0.1,0.5l0.3,0.2L73.8,277.5z M74.3,273.8l0-0.2l-0.9-1l-0.2,0l-0.1,0.1l0.3,0.4l0,0.2l-0.4,0.6l0.2,0.3l0.2,0.1L74.3,273.8z
		 M76.8,261.6l0.4-0.7l0.5,0l0.2-0.2l-0.2-0.3l0-1.4l-0.5-0.2l-0.2,0l-0.6,0.3l-0.6-0.2l-0.1-0.1l-0.3,0.3l-0.3,0.7l1.4,0.8
		l-0.1,0.2L76,261l-1-0.4l-1.1,0.5l0.1,0.3l0.9-0.1l1.4,0.5l0.2,0L76.8,261.6z M74.8,266l-0.1-0.3l-0.5,0l-0.1,0.1l0.1,0.5l0.5,0
		L74.8,266z M74.6,272.1l0.7-1.2l0.1-0.1l-0.3-0.2l-0.1,0.1l-0.8,1.1l0,0.2l0.2,0.1L74.6,272.1z M76.5,263.8l0.5-1.2l-0.1-0.3
		l-0.2-0.1l-1.5,1.1l-0.2,1.6L76.5,263.8z M76.1,257.4l0.1-0.2l-0.3-1.2l-0.2,0l-0.2,0.2l-0.2,0.4l0.2,0.6l0,0.2l-0.5,0.4l0.1,0.3
		l0.3-0.1L76.1,257.4z M75.6,266.6l1.3-1.6l-0.2-0.3l-0.2,0l-1.4,1.8l0.2,0.2L75.6,266.6z M78.5,258.3l0.2-0.2l-0.1-0.3l-0.7-0.3
		l0-0.1l0-0.6l-0.4-0.1l-0.4,0.6l-0.6,0.1l0,0.2l0.9,0.5l0.4,0.5l0.2,0.1L78.5,258.3z M77.3,256l0.1-0.2l-0.2-0.3l-0.3,0.1l-0.1,0.2
		l0.1,0.3l0.1,0.1L77.3,256z M78.4,252.2l-0.1-0.4l-0.2-0.3l-0.4-0.1l-0.2,0.1l-0.3,0.4l0.3,0.4l0.6,0.2L78.4,252.2z M77.9,253.7
		l-0.1-0.3l-0.4,0.1l0.1,0.3L77.9,253.7z M79,250.4l0.1-0.2l-0.3-0.2l-0.7-0.1l-0.2,0.2l0.1,0.4l0.9,0L79,250.4z M79.2,255.9
		l0.1-0.2l-0.3-0.2l-0.3,0l0.1,0.3l0.2,0.2L79.2,255.9z M79.6,254.1l-0.2-0.3l-0.2-0.2l-0.3,0.1l0.1,0.4l0.4,0.1L79.6,254.1z
		 M79.9,252.4l0.1-0.6l-0.1-0.4l-0.5-0.4l-0.1,0.2l0.4,0.6l-0.1,0.5l0,0.1L79.9,252.4z M93.1,281.2l0.5-0.5l0.2-0.2l0.7,0.1l0.2,0
		l0.1-0.2l-1-0.2l-0.6-0.6l-0.2-0.1l-1.2,0.6l-0.2,0.2l-0.1,0.4l0.2,0.2l1.1,0.4L93.1,281.2z M99.2,289.7l0.5-0.6l0-0.2l-0.6-0.6
		l0.1-0.1l0.5-0.5l0.1-0.2l-0.5-0.9l0.4-1.4l-0.4-1.1L99,284l-0.1,0.1l0.2,1l-0.3,0.7l-0.5-1l-0.9-0.6l-0.1,0l-0.2,0.3l-0.1,0.4
		l0.2,0.4l0.4,0.5l0.2,0.4l-0.1,0.2l-0.3,0.1l-0.2-0.6l-0.3-0.2l-0.6-0.1l-0.2-0.1l-0.4-1.2l-0.4-0.5l-0.2-0.2l0-0.2l0.5-1.1
		l0.5,0.1l0.3,0.5l0.4,0.1l0.4-0.1l0.1-0.4l-0.6-0.6l-0.4-0.7l-0.1,0l-1.6,1l-0.6-0.1l-0.2,0l-0.5,0.5l-1.1,0.5l-0.2,0.2l0.1,1.6
		l0.5,0.1l0.5-0.8l0.2-1l0.2-0.2l0.4-0.1l0.2,0.1l0.2,0.2l0.5,1l0,0.7l0.3,0.5l-0.1,0.2l-1.2-0.4l-0.3,0.3l0.9,1.2l0.2,0.1l0.4-0.1
		l1.4,0.2l0.3,0.3l0,0.5l-1.2-0.2l-0.2,0.2l0.1,0.3l0.9,1l0.4-0.3l1.2-1.3l0.2,0.1l-1,1.8l-0.1,0.2l0.5,0.5l0.1-0.1l0.3-0.8l0.2,0
		l0.3,0.3l0.1,0.3l-0.4,0.7l0.3,0.3l0.6,0.2L99.2,289.7z M95,292.4l1.8-1.8l0-0.2l-1.4-0.7l-0.2-0.2l-0.1-0.5l-0.5,0.4l-0.6-0.3
		l-0.3,0.3l0.2,0.2l2.1,1l-0.1,0.2l-0.3,0.1l-1.7-0.3l-1.2-1l-0.3,0.4l0.2,1l-0.3,0.9l-0.1,0.4l0.3,0.2l1.2-1l0.3-0.1l0.2,0.1
		l0.1,0.3l-0.6,0.5l0.1,0.3l0.8-0.1L95,292.4z M94.8,295.5l0.2-0.4l-0.3-0.2l-0.5,0.2l-0.3-0.3l0-0.2l0.3-0.7l0.1-0.1l0-0.2
		l-0.5-0.4l-0.2-0.1l-0.2,0.2l-0.1,0.5l-0.8,0.7l-0.1,0.2l0.3,0.4l0.6-0.1l0.6,0.6l0.4,0.1L94.8,295.5z M93.6,287.2l-0.7-0.5
		l-0.3,0.1l0.1,0.3l0.8,0.5l0.2,0.1L93.6,287.2z M93.4,288.6l-0.1-0.5l-0.4,0.1l0.1,0.5L93.4,288.6z M94.7,288.2l0-0.2l-0.2-0.2
		l-0.3-0.2l-0.3,0.2l0.1,0.5l0.2,0.3l0.2,0L94.7,288.2z M95.5,303.2l-0.2-0.3l-0.3-0.3l-0.6-0.2l-0.2,0.2l0.9,2.1l0.2,0.1
		L95.5,303.2z M95.5,299.9l0.2-0.2l0.3-0.2l0.1-0.1l0-0.1l-0.2-0.1l-0.3,0.1l-0.3,0.2l-0.1,0.2l-0.1,0.4l0.1,0.3l0.2,0L95.5,299.9z
		 M96.2,294.2l0.2-0.2l0.1-0.5l-0.3-0.3l-0.5-0.4l-0.6,0.7l0,0.2l0.2,0.2l0.5,0.2L96.2,294.2z M96.1,306.5l0.8-0.4l0-0.1l-0.5-0.4
		l-0.4,0.2l-0.2,0l-0.3,0.4l0.2,0.3L96.1,306.5z M96.9,295.6l-0.2-0.2l-0.3,0.1l-0.4,0.6l0,0.5l0.3,0L96.9,295.6z M97.2,303.2l0.4-1
		l0-0.1l-0.4-0.3l-0.6-0.1l-0.2,0.2l-0.1,0.2l0.7,1.4L97.2,303.2z M97.1,304.6l-0.2-0.3l-0.2-0.1l-0.3,0.2l0.1,0.3l0.4,0.3
		L97.1,304.6z M97.5,270.6l-0.1-0.3l-0.3-0.2l-0.2,0.3l-0.1,0.5l0.3,0L97.5,270.6z M98.8,299.2l0.2-0.2l0-0.5l-0.7-0.3l-0.2-0.2
		l-0.4-1.4l0.1-0.6l-0.1-0.3l-0.2,0l-0.3,0.4l0.1,1.6l-0.6,0.6l0.2,0.2l1.5,0.7L98.8,299.2z M97.6,292.9l0.6-0.6l0-0.5l-0.1-0.5
		l-0.5-0.1l-0.8,1.4l0.3,0.4L97.6,292.9z M97.9,294.4l-0.5-0.4l-0.3,0.2l0.2,0.3l0.7,0.1L97.9,294.4z M98.5,283.5l-0.6-1.9l-0.4-0.3
		l-0.3,0.3l0.6,0.9l0,0.6l0,0.2l0.4,0.3L98.5,283.5z M98.8,307.1l0.3-1.1l-0.3,0.1l-0.5,0.5l-0.2,0l-0.5-0.2l-0.2,0.3l0.2,0.2
		l1.1,0.4L98.8,307.1z M98.7,269.7l0.5-0.6l-0.8-0.5l-0.3,0.4l-0.1,0.2l0.2,0.2l0.4,0.3L98.7,269.7z M99.8,304.4l-0.2-0.3l-0.6-0.3
		l-0.2,0l-0.1,0.4l0.8,0.4L99.8,304.4z M99.5,295.4l-0.2-0.6l-0.5-0.4l0,0.5l0.2,0.3l0.1,0.5l-0.3,0.9l0.3,0.2L99.5,295.4z
		 M100.1,297.5l0-0.5l-0.4,0.3l-0.2,0.4l0.4-0.1L100.1,297.5z M101,302.8l0.2,0l0.6,0.2l0.4-0.7l0-0.2l-0.8-1l-1.4-0.4l-0.1,0.1
		l-0.2,0.4l0.1,0.1l1.1,0.2l0.1,0.1l0.1,0.5l-1.1,0.6l-0.2,0.4l0.3,0.3l0.4,0.3L101,302.8z M101.8,267l0-0.1l-0.3-0.2l-0.4-0.1
		l-1,0.1l0.1,0.3l0.3,0.2l1.1-0.1L101.8,267z M100.6,264.9l2.7-2.9l-0.2-0.3l-0.1-0.1l-0.3,0.1l-2.4,3.3l0.1,0.1L100.6,264.9z
		 M102.2,264.9l-0.2-0.3l-0.3,0l-0.2,0.8l0.1,0.1L102.2,264.9z M103.3,239.7l-0.2-0.3l-0.7-0.1l-0.1,0.2l0.7,0.4L103.3,239.7z
		 M104.4,263.6l0.1-0.2l-1.1-0.3l-0.7,1l0.1,0.6l0.1,0.1l0.2,0.1L104.4,263.6z M103.5,265.7l0-0.2l-0.3,0l-0.2,0.2l-0.2,0.3l0.2,0.2
		L103.5,265.7z M106.3,262.4l0-0.7l-0.2-0.2l-0.7,0l-0.2-0.2l-0.1-0.3l0.3-1.6l0.4-0.6l0-0.2l-0.7-0.7l0.1-0.2l0.4-0.7l-0.3-0.5
		l0-0.2l0.4-0.9l-0.1-0.4l-0.3,0.1l-0.9,1.2l0.3,1l-0.1,0.1l-0.4,0.3l-0.8,1.2l0.2,0.9l-0.2,0.6l0,0.2l0.2,0.2l0.3,0.3l0.4,1.2
		l0.3,0.3l1.1,0.4l0.3-0.1L106.3,262.4z M104,252.5l0.5-0.9l-0.2-0.5l0.5-1.3l-0.2-0.2l-0.2-0.1l-0.6,0.3l-0.2,0.2l0.2,2.8
		L104,252.5z M104.5,254.9l0.2-0.3l0.2-1.1l-0.1-0.7l-0.2-0.1l-0.5,0.5l-0.2,0.6l-0.1,0.6l0.2,0.3l0.5,0.2L104.5,254.9z
		 M104.2,258.7l0.2-0.3l0.7,0.7l-0.1,0.1l-0.2,0L104.2,258.7z M107.8,259.8l-0.3-1l0.4-0.2l0.8-1.2l0-0.6l0.1-0.2l0.7-0.8l0.1-0.4
		l-1.2-1.6l0.4-0.8l0.2-0.1l1.1,0.2l0.1-0.1l-0.3-1l0.6-0.6L108,250l-0.2,0.1l-0.3,0.2l-0.3,0.1l-0.2-0.4l0.5-1.6l0.6-0.3l0.1-0.4
		l-0.3-0.5l-0.4-0.1l-0.3,0l-1,0.8l-0.1,0l-0.4-0.6l-0.3-0.2l-0.3,0.3l1.1,2.7l-1,0.7l-0.1,0.2l0.4,0.3l0.2-0.1l0.8-0.3l0.2,0.1
		l0,0.2l0.1,1.9l-0.3,0.1l-0.4-1.2l-0.3-0.3l-0.3,0.4l0.4,1.4l0.4,0.5l0.6,2.1l-0.5,0.6l0,0.2l0.9,0.7l0.2,0.2l-0.1,0.7l-0.4,0.2
		l-0.2,0.4l0.9,1L107.8,259.8z M106.7,260.7l-0.1-0.3l-0.3,0.1l0,0.5L106.7,260.7z M107.4,253.1l-0.2-0.2l0.4-1.5l0.6-0.1l0.2,0.1
		l0.4,0.5l-0.2,0.3l-0.3,0.2l-0.7,0.9L107.4,253.1z M107.3,255.2l0.2-0.5l0.4-0.3l0.2,0.4l-0.1,0.2l-0.3,0.4l-0.3,0.1L107.3,255.2z
		 M109.8,249.6l0.2-0.4l-0.5-0.2l-0.5,0l-0.2,0.1l-0.1,0.1l-0.1,0.2l0.1,0.4l0.2,0.2l0.1,0.1l0.2-0.1L109.8,249.6z"/>
	<path class="st9" d="M127.6,302.4c-1.2,0.3-2.6,0.5-3.9,0.1c-1.1-0.3-2.4-1.1-3.3-1.8c-1.1-0.9-1.6-2.1-1.8-3.3
		c-0.2-1.4-0.2-2.8-0.1-4.1c0-1.5-0.2-2.9,0.2-4.4c0.2-1.4,0.3-2.7,0.8-4c0.8-2.7,1.4-5.4,1.8-8c0.5-2.8,1.4-5.6,1.6-8.5
		c0.1-1.3,0.1-2.8,0.3-4.2c0.1-0.4,0.2-0.9,0.1-1.3c0-0.1-0.2-0.2-0.2-0.4c-0.2-0.4-0.4-0.9-0.5-1.3c0-0.1-0.1-0.3,0-0.5
		c-0.1-1.4,0.4-2.2,1.6-2.7l4-1.6c1.4-0.6,2.9-1.5,4.4-1.9c0.7-0.2,1.4-0.1,1.9,0.4c0.3,0.3,0.4,0.6,0.5,0.9
		c0.1,0.8-0.2,1.9-0.4,2.7c-0.2,1.4-0.6,2.6-0.9,4c-0.2,1.4-0.2,2.8-0.4,4.2c-0.1,1.4-0.4,2.9-0.7,4.4c-0.5,3-1.4,5.7-2,8.7
		c-0.6,2.7-1.5,5.4-1.9,8.2c-0.1,0.8-0.2,1.7,0,2.6c0.1,0.5,0.2,0.9,0.5,1.4c0.6,1,1.8,1.7,3.1,1.4c1-0.2,1.9-0.9,2.7-1.6
		c1.1-0.7,1.8-1.8,2.6-3c0.4-0.6,0.8-1,1.1-1.4c0.4-0.6,0.6-1.3,0.8-1.8c0.2-0.6,0.5-1.1,0.9-1.5c0.4-0.6,0.7-1.7,1-2.3
		c0.6-1.2,1.2-3.5,1.7-4.8c0.5-1,0.6-1.4,1-2.7c0.1-0.4,0.2-0.5,0.6-0.5c0.4-0.1,1.2,0.2,1.7,0.6c0.6,0.4,1.1,0.9,1.1,1.1l0,0.5
		c0,0.6-0.4,1.5-0.6,2.1c-0.1,0.7-0.9,1.5-1.4,3.3c-0.5,1.3-0.9,2.5-1.6,3.7c-0.6,1.2-1.4,2.2-2,3.5l-0.7,1.7
		c-0.5,0.6-0.9,1.2-1.3,1.8l-2.4,3.4c-0.9,1-1.7,2-2.7,3c-1.1,0.9-2.4,1.5-3.5,2.4c-0.6,0.4-1.1,0.7-1.8,1c-0.2,0.2-0.5,0.2-0.9,0.3
		C128.3,302.4,127.9,302.2,127.6,302.4z M124.4,295.8l0.3-1l1.2-1.1l-0.3-0.4l-0.5-0.1l-0.2,0l-0.2,0.2l-0.5,1.2l-0.2,0.2l-0.9,0
		l-0.2,0.2l-0.1,0.2l0.1,0.5l0.1,0.1l1.2,0.3L124.4,295.8z M125.4,282.8l0-0.2l-0.4-0.9l0.2-0.3l0.2-0.2l0.2,0.1l0.7,0.7l0.4-0.1
		l0.7-3.3l0.3-0.2l0.4,0l-0.1,1l0.3,0.4l0.3-0.3l0.3-0.8l-0.1-0.3l-0.6-1l0.3-0.7l-0.3-0.4l-1.2,0.5l-0.1,0.1l0.1,0.8l-0.3,0.2
		l-0.5-0.4L126,277l0.1-0.4l0.3-0.9l1.3,0.2l0.3-0.3l0.6-1l0.7,0.2l0.2-0.3l-0.1-0.2l-1.5-1.1l-0.3,0l-1.9,0.7l-0.2,0.2l0,0.2
		l0.4,0.6l0,0.2l-0.5,1.1l-0.3,0.3L124,276l-0.1-0.9l-0.4,0.2l-0.2,0.2l0.1,0.5l0.8,0.9l0.2,0.2l-0.3,0.8l-0.8,0.4l0,0.2l0.7,1.6
		l0.4,0.3l0.3-0.1l0.3-0.2l-0.4-0.6l0.1-0.1l0.4-0.2l1.1-0.1l0.2,0.1l0.2,0.4l0.1,0.3l-0.2,0.5l-2.4,1.4l-0.7-0.1l-0.1,0.1l0.3,0.5
		l-0.1,0.2l-0.6,0.7l0.4,0.4l0.3-0.3l0.2-0.3l0.2,0l1,0.2l0.1,0L125.4,282.8z M124.2,291l-0.1-0.5l-0.2-0.4l-0.2,0l-0.4,1.4l0.1,0.3
		l0.4,0.1L124.2,291z M124.9,298l-0.1-0.3l-0.2-0.2l-0.5,0l-0.2,0.3l0.3,0.3l0.3,0.2L124.9,298z M125.6,271.2l0-0.2l-0.2,0l-0.7,0.9
		l0.1,0.1l0.2,0.1L125.6,271.2z M125.1,267.9l0.2-0.5l-0.3,0.1l-0.3,0.3l-0.1,0.4L125.1,267.9z M124.8,277.8l0.3-0.1l0.1,0.5
		l-0.3,0.1L124.8,277.8z M125,242.7c-0.4-2.1,0.3-4.6,1.8-6.3c0.9-1.3,2.3-2.2,3.6-2.5c1.1-0.3,2.3-0.1,3.4,0.5
		c1.7,0.9,2.8,2.6,3.1,4.6c0.7,3.8-1.8,7-5.1,7.9C128.8,247.6,125.7,246.4,125,242.7z M126.3,265l-0.3-0.3l-0.3-0.2l-0.3,0.1
		l-0.3,0.3l0.4,0.3l0.6,0.1L126.3,265z M126.2,299l-0.1-0.3l-0.6-0.3l-0.2,0.3l0.3,0.4l0.4,0.1L126.2,299z M126.7,263.1l-0.9-0.7
		l-0.2,0l-0.1,0.2l0.5,0.5l0.6,0.2L126.7,263.1z M127.6,268.9l0.2-0.4l-0.7-0.1l-1.1-0.6l-0.2,0l-0.1,0.2l0.2,0.2l0,0.2l-0.3,0.7
		l0.3,0.2l0.7,0L127.6,268.9z M128.5,272.1l-0.3-0.3l-0.7,0l0.1-0.8l-0.2-0.1l-1.5,1.1l-0.2,0.5l0.2,0.4l0.7-0.5l1.1,0.3l0.7-0.2
		L128.5,272.1z M126.8,297l0.2-0.2l-0.2-0.4l-0.6,0.1l0.1,0.5l0.1,0.1L126.8,297z M127.2,283.3l-0.2-0.2l-0.4,0.1l-0.3,0.3l0.3,0.3
		L127.2,283.3z M126.7,275l-0.1-0.5l0.4-0.1l0.1,0.3l-0.1,0.1L126.7,275z M128.3,264.9l-0.1-0.2l-0.3,0.2l-1.1,2.1l0.1,0.3l0.2,0.1
		L128.3,264.9z M127.5,264.4l0.2-0.4l-0.3-0.3l-0.3,0.3l-0.2,0.3l0.2,0.3L127.5,264.4z M129.1,298.1l0.4-0.6l0.4-2.1l-0.8-0.5
		l-0.8,0.1l-0.4,0.2l-0.4,0.4l0.4,0.1l0.8,0.2l0.1,0.2l-0.1,0.6l-0.8,0.9l0,0.2l0.3,0.3l0.2,0.1L129.1,298.1z M128.5,261.2l0.1-0.2
		l-0.2,0l-0.7,0.6l-0.1,0.1l0.2,0.2l0.1,0L128.5,261.2z M129.7,270.2l0.3-0.3l0.1-0.2l-1.2-0.9l-0.1,0l-0.3,1.4l0,0.2l0.8-0.1
		L129.7,270.2z M129.8,268.3l0.6-1.2l-0.1-0.3l-0.1-0.2l-1.5-0.2l-0.2,0.2l0.4,1.2l0.6,0.6l0.2,0.1L129.8,268.3z M130.6,264.3V263
		l-1.3-1l-0.4,0l0.1,0.3l0.5,0.7l-0.2,0.4l-0.6-0.1l-0.2,0.2l0.2,0.3l1.7,0.6L130.6,264.3z M129.5,271.8l-0.3,0.3l-0.1,0.5l0.2,0.6
		l0.4,0.4l0.4,0L129.5,271.8z M129.6,265.3l-0.1-0.5l-0.3,0.1l0.1,0.5L129.6,265.3z M129.8,276l-0.1-0.5l-0.4,0.1l-0.1,0.4l0.3,0.2
		L129.8,276z M130.7,240.8l-0.2-0.4l-0.4-0.1l-0.3,0.2l0.1,0.3l0.1,0.2l0.4,0.1L130.7,240.8z M130.7,242.2l0.2-0.2l-0.1-0.4
		l-0.2-0.1l-0.3,0.1l-0.1,0.1l0.1,0.4l0.1,0.1L130.7,242.2z M131.7,260.4l0.1-0.2l0-0.5l-0.2-0.1l-0.5,0.5l-0.2,0l-0.5-0.1l0.1,0.3
		l1,0.2L131.7,260.4z M133,242.2l0.4-0.6l0.4,0.3l0.4-0.1l0.6-1.2l-0.3-0.3l-0.3,0.1l-0.6,0.7l-0.4,0l0.2-0.6l-0.1-0.3l-0.1-0.2
		l-0.8-0.1l-0.8-0.6l-0.4,0.3l0.9,1.7l0.4,0.1l0.1,0.2l-0.2,0.4l0.2,0.3L133,242.2z"/>
	<path class="st9" d="M155.5,295.4c-2.3,0-4.1-0.5-5.8-1.3c-1.5-0.7-3-2-4-3.5c-0.9-1.3-2.1-3.2-2.4-4.9c-0.3-1.9-0.4-3.8-0.6-5.8
		c0-2-0.2-4.1,0.2-6c0.2-0.9,0.5-1.8,0.8-2.5c0.3-1.1,0.4-2.2,0.7-3.2c0.5-1.9,1.1-3.9,1.9-5.7c1.5-3.7,4.6-7.5,7.3-10.3
		c0.7-0.6,1.4-1.5,2.1-2.2c0.7-0.6,1.4-0.9,2.3-1.5l2.3-1.2c0.7-0.4,1.4-0.9,2.2-1.1l0.3-0.1c0.7,0,1.5-0.2,2.2-0.3
		c1.1-0.3,2.2-0.4,3.4-0.3c0.7,0.1,1.2,0.4,1.9,0.9c0.8,0.4,1.6,0.8,2.2,1.6c1,1.1,1.4,2.4,1.7,3.7c0.5,2.6-0.1,5.4-1.4,7.5
		c-1,1.6-2.1,3-3.7,4c-0.6,0.5-1.7,1.4-2.8,1.6c-0.6,0.1-1.3,0.3-1.6-0.2c-0.1-0.2-0.3-0.4-0.3-0.6c-0.1-0.6-0.1-1.4,0-1.8
		c0.5-1,1-1.8,1.1-2.7c0.4-1.7,1.4-3.5,1.1-5.2s-1.7-3.2-3.4-2.9c-1.9,0.4-2.9,2-3.9,3.5c-1.2,1.6-2.3,3.4-3,5.2
		c-0.7,1.8-1,3.9-1.8,5.7c-0.7,1.9-1.3,3.9-1.5,6c-0.2,2-0.1,4-0.2,6c-0.1,1-0.2,1.8-0.1,2.6c0.2,1.4,1.1,2.7,1.1,2.9
		c0.7,1.6,1.2,2.5,2.8,3.3c1.8,1,4.1,0.9,6.3,0.4c1.7-0.4,3.4-1.1,4.6-1.9c1.6-1.2,3.1-2.6,4.5-4.1s3.1-3.9,4.4-5.4
		c1.1-1.4,2.3-3.1,3.2-4.9l0.9-2.5c0.4-1,0.6-1.7,1.2-3.1c0-0.1,0.2-0.4,0.3-0.4c0.7-0.2,2.7,0.8,3,1.9c0,0.2,0.1,0.5,0,0.7
		c-0.1,0.5-0.4,1.5-0.5,1.9c-0.5,2-1.9,3.9-2.6,5.7c-0.8,2-2.1,4-3.4,5.9c-1.1,1.6-2.4,3-3.5,4.4c-1.5,1.5-3.1,2.8-4.5,4.4
		c-1.4,1.5-2.8,2.4-4.6,3.5c-0.8,0.5-1.7,1-2.7,1.2c-0.8,0.2-1.5,0.2-2.1,0.4c-0.8,0.2-1.8,0.7-2.5,0.8
		C158,295.6,156.4,295.4,155.5,295.4z M145.8,278l-0.2-0.6l0.2-0.6l-1-0.5l-0.1,0.1l0.2,0.5l-0.2,0.9l0.1,0.5l0.4,0l0.3-0.1
		L145.8,278z M149.7,277.5l0.2-0.5l-0.3-0.3l-1.7-1l0.4-0.7l0.2-0.9l0.4,0.1l0.3,0.3l0.1,0.8l0.6-0.1l0.2-0.3l0.2-0.4l-1.1-1
		l-0.1-0.2l0.1-0.4l0.2-0.4l1.4-0.7l-0.1-0.8l0.8,0l0.1-0.1l0.5-2.8l-0.3-0.2l-0.7,0.6l-0.5,0l-0.4-0.1l-0.1-0.2l0-0.1l0.3-0.8
		l0-0.2l-1.2-1.2l-0.7-0.1l-0.9,0.3l-0.2,0.4l-0.1,0.4l0.3,0.3l0.4,0l0.6-0.6l0.2,0l0.6,0.3l0.2,0.4l-0.1,0.4l-0.8,0.1l-0.2,0.2
		l-1.3,2.2l-0.1,0.7l-0.7-0.1l-1.1,1.1l0.3,0.5l-0.1,0.2l-0.8,1.2l0.1,0.2l0.7-0.2l0.7,0.1l0.1,0l0.6-0.7l0-1.1l0.1-0.2l1.6-0.4
		l0.1,0.5l-0.9,1.7l0,0.8l-0.2,0.2l-0.6-0.3l-0.2,0L146,276l0.1,0.2l2.5,0.6l0.3,0.3l0.2,0.4l0.1,0.2L149.7,277.5z M146.5,269.9
		l0.3-0.3l0.2-0.5l-0.3-0.3l-0.2-0.1l-0.3,0.1l-0.3,0.3l-0.1,0.6l0.1,0.2l0.1,0.1L146.5,269.9z M148,270.1l0-0.5l0.5-0.5l0.1,0
		l0.4,0.3l0.3,0.3l-0.2,0.2l-0.6,0.3H148z M151.8,266.6l-0.1-0.3l-0.5-0.7l0.1-0.2l0.9,0.1l0.2-0.5l-0.8-0.9l0.3-0.4l0.4-0.1
		l0.8,0.4l0.3-0.1l-0.1-0.3l-0.7-0.8l0.1-0.7l-0.1-0.1l-0.8-0.2l0.2-0.4l0.9-1.2l0.3-0.1l0.4,0.4l0.4,0.1l0.3-0.4l0.2-1.2l0-0.2
		l-0.1-0.2l-0.7-0.3l-0.1-0.1l-0.1-0.5l0.3-0.8l-0.1-0.2l-0.2,0l-1.4,2.6l-0.6,0.3l-0.4,0l-0.6-0.2l-0.2,0l-0.2,0.3l-0.2,0.5l0,0.2
		l1.1,0.8l0.1,0.1l-0.1,1l-0.2,0l-0.9-0.4l-0.4,0.1l0.1,0.3l0.8,0.8l-0.1,0.1l-1-0.6l-0.2,0l-0.9,0.8l0.6,1.5l0.4,0.1l0.2,0l0.6-0.9
		l0.4,0.3l0.3,0.3l-0.6,0.7l0,0.2l1.6,0.9L151.8,266.6z M149.7,279.5l0-0.2l-1.2-1.1l-0.1-0.1l-0.2,0.2l0,0.2l1.1,1.1l0.2,0.1
		L149.7,279.5z M148.9,261.9l0.2-0.6l-0.4-0.1l-0.5,1l0.1,0.3l0.2,0L148.9,261.9z M148.6,271l0.3-0.3l0.2,0.1l0.3,0.2l-0.3,0.3
		l-0.3,0.1L148.6,271z M150.2,290.4l0.4-0.6l0.7,0l1-0.8l0-0.2l-0.1-0.2l-1.5,0.2l-0.9,0.7l-0.9-0.4l-0.2,0.3l0.2,0.3l1.2,0.9
		L150.2,290.4z M151.3,287l0.1-0.4l-0.1-0.2l-1,0.7l-0.2-0.1l-0.6-0.2l-0.2,0.2l-0.2,0.3l0.7,0.9l0.2,0L151.3,287z M150.1,269.5
		l-0.5-0.5l0.1-0.2l1,0.5l-0.1,0.2L150.1,269.5z M150.8,273.2l0.2-0.3l-0.3-0.2l-0.2,0l-0.3,0.4l0.3,0.2L150.8,273.2z M152.3,256.7
		l0-0.2l-0.2,0l-0.8,1l0.3,0.2L152.3,256.7z M152.3,287.8l-0.3-0.3l-0.2-0.1l-0.2,0.2l0.1,0.3l0.4,0.1L152.3,287.8z M155.1,292.7
		l0.3-0.7l0.2-0.2l0.2,0l0.4,0.5l0.2-0.2l-0.4-1.3l0.1-0.7l0-0.2l-0.3-0.3l-0.5-0.2l-0.1,1.5l-0.4,0.3l-0.2,0l-0.1-0.2l-0.7-1.4
		l-0.2-0.1l-1.6,1.9l0.6,1l0.2,0.1l0.4-0.2l1.6,0.3L155.1,292.7z M152.7,286.7l0.3-0.2l-0.1-0.3l-0.4,0.1l-0.3,0.2l0.1,0.3
		L152.7,286.7z M155.2,288.8l-0.8-1l-0.4,0l-0.3,0.3l-0.1,0.1l0,0.5l0.2,0.3l1.3,0.2L155.2,288.8z M155,254.6l0.1-0.1l-0.1-0.3
		l-0.3,0.1l-0.2,0.4l0.1,0.2L155,254.6z M155.1,255.7l-0.4,0.1l0.1,0.3l0.4-0.1L155.1,255.7z M157.1,253.9l0.2-0.4l-1-0.5l-0.3,0.1
		l-0.1,0.2l0.9,0.7L157.1,253.9z M158.3,290.7l0.1-0.1l0-0.2l-0.6,0.1l-0.1-0.1l0-0.5l0.2-0.3l0.9-0.2l0.1-0.2l-1.1-0.1l-0.3,0.3
		l-0.6,0.9l-0.1,1l0.1,0.2l0.2,0.1L158.3,290.7z M158.2,292.2l-0.2-0.3l-0.4,0.1l-0.3,0.2l0.2,0.3l0.4,0L158.2,292.2z M159.5,251
		l-0.2-0.3l-0.3,0.1l-0.3,0.4l0.5,0.1L159.5,251z M160.9,292.2l0-0.7l-0.2-0.4l-0.7-0.5l-0.1,0l-0.8,1.4l0.1,0.3l0.4,0l0.3-0.1
		l0.8,0.2L160.9,292.2z M162.3,289.9l-0.3-0.3l-0.2-0.1l-0.4,0.2l-0.3,0.3l0,0.5l0.1,0.3l0.4,0L162.3,289.9z M167.9,262l-0.2-0.3
		l-1-0.2l-0.3,0.1l0,0.2l0.4,0.4l0.6,0.2L167.9,262z M168.5,261l0.7-1.1l0.8-0.5l0.2-0.8l0.2-0.2l0.2,0l0.2-0.2l-0.1-0.5l-0.3-0.2
		l-1.5,0.1l-0.6-0.8l-0.3,0.1l-0.2,0.5l0.1,1.2l-0.2,0.6l0,0.2l0.6,0.6l0,0.2l-0.2,0.2l-0.5-0.2l-0.2-0.1l-0.3,0.2l0.2,0.3l0.9,0.4
		L168.5,261z M168,250.7l0.2-0.3l0-0.1l-0.4,0l-0.2,0.2l-0.1,0.2l0.2,0.1L168,250.7z M168.8,259.2l-0.1-0.2l0.1-0.2l0.2,0l0.2,0.1
		l0.1,0.2l-0.2,0.2L168.8,259.2z M169.4,252.8l0.1-0.4l0-0.7l-0.3-0.2l-0.2-0.1l-0.3,1l0.1,0.3l0.4,0L169.4,252.8z M171,256.8
		l0.4-0.3l0.2-0.5l-0.2-0.8l0.9-2l-0.7-0.7l0.2-2.1l-0.5-0.1l-0.7,0.5l-0.1,0.4l0.4,0.5l-0.3,1l0.6,1.3l-1.1,0.5l-1,0l-0.2,0.3
		l0.7,1.5l0.6,0.2l0.4,0.4L171,256.8z M169.8,250.1l0.4-0.4l-0.1-0.3l-0.3,0.1l-0.4,0.4l0,0.2l0.1,0.1L169.8,250.1z M170.3,255.7
		l0.2-0.2l0.1,0.2l-0.1,0.4l-0.2,0.2L170.3,255.7z"/>
	<path class="st9" d="M207.8,282.9c-2.7-0.5-4.6-2.3-5.6-4.9c-0.2-0.3-0.4-0.7-0.4-1.2c-0.4-2.4,0.6-5.2,0.7-7.7
		c0.1-1.3,0.1-2.5,0.6-3.9c0.3-1.5,0.4-2.9,0.9-4.3c0.2-0.6,0.5-1.1,0.7-1.7c0.2-0.8,0.2-1.5,0.4-2.2c0.3-1.5,0.9-2.9,1.2-4.4
		c0.3-1.5,0.7-3.1,0.6-4.6c-0.1-0.6-0.1-1.4-0.2-2.1c-0.1-0.6-0.3-1.1-0.7-1.4c-0.9-1-1.8-1.2-2.8-1c-1.7,0.4-3.4,2.3-4.9,4.4
		s-2.7,4.4-3.3,5.4c-0.6,1.2-1.4,2.1-1.7,3.4c-0.5,1.5-0.9,2.9-1.1,4.4c-0.5,3.1-1.4,6.1-1.6,9.2c-0.1,1.4-0.4,2.9-0.7,4.4l-0.4,1.4
		c-0.3,0.8-0.2,1.5-0.3,2.3c-0.1,1.3-0.6,2.7-0.8,4.1c-0.3,1.4-0.5,2.6-1.2,3.8c-0.5,1.1-1.1,1.8-2.1,2c-0.2,0-0.4,0-0.5,0
		c-0.7,0.2-1.4,0.1-2.1,0.1c-0.7,0-1.3,0.3-2.1,0.1c-1.1-0.2-2.1-0.7-2.3-1.7c-0.3-1.7,0.4-3.9,0.8-5.2c0.5-1.3,0.7-2.4,0.9-3.8
		c0.2-1.4-0.2-2.9,0.3-4.3c0.2-0.5,0.5-1,0.5-1.6c0-0.6-0.2-0.9,0.1-1.5c0.2-0.6,0.6-1.2,0.8-1.8l0.6-2.7c0.2-1.2,0.2-2.6,0.5-3.9
		c0.4-1.6,1.1-3,1.1-4.5c0-1.4,0.5-2.8,0.8-4.2c0.2-1.6,0.1-2.7,0.9-4.3c0.6-1.3,0.4-2.7,0.7-4l1.2-4.9c0.4-1.4,0.6-2.9,0.7-4.3
		c0.1-1.7,0.5-2.9,0.8-4.5c0.4-3.1,1.1-6.5,1.7-9.7c0.4-1.6,1-4.3,0.6-6.1c-0.2-0.9-1.2-1.2-1.4-2.1c-0.3-1.5,2.3-1.8,3.5-2.6
		c1.3-0.9,3.4-2.1,4.8-2.7c0.5-0.2,1.4-1.3,2.1-1.4c0.6-0.1,1-0.1,1.5,0.1c0.5,0.2,0.7,0.7,0.8,1.2c0.1,0.7-0.1,1.4-0.2,2.2
		c-0.1,0.7-0.4,1.6-0.3,2.4c0.1,0.3-0.4,2-0.4,2.4c-0.3,2.2-0.8,3.6-1,5.4c-0.5,2.9-1.6,5.9-2.1,8.9c-0.3,1.4-0.7,2.1-1.2,3.5
		c-0.2,0.5-0.1,1.1-0.3,1.7c-0.1,0.8-0.3,1.7-0.5,2.6c-0.2,1.4-0.8,3.9-0.6,5.3c0.1,0.4,0.4,0.7,0.7,0.7c1.4-0.3,2.4-1.4,3.3-2.4
		c0.9-1.2,2.2-2.3,3.4-3.1c1.1-1,2.3-1.5,3.6-1.8c1.6-0.4,3.6-0.3,5.1,0.1c1.1,0.3,1.7,1.1,2.5,1.9c0.4,0.5,1,1.1,1.3,1.7
		c0.6,0.8,0.6,1.2,0.7,2.2c0.2,0.8,0.4,1.4,0.5,2.1c0,0.7-0.2,1.5-0.3,2.2c-0.2,1.7-0.2,5-0.5,6.7c-0.7,2.6-1.1,5.4-2,8
		c-0.6,1.3-0.9,2.2-1.2,3.6c-0.6,1.4-0.6,3-0.7,4.5c-0.1,1.1-0.2,2.2,0,3.2c0.1,0.5,0.2,0.9,0.4,1.3c0.7,1.4,2.2,1.4,3.6,1
		c1.1-0.3,2-1.2,2.9-2c1.2-0.9,1.5-1.4,2.3-2.7c0.8-1.4,1.1-2.3,1.3-3.7c0.3-1.5,1.1-2.6,1.9-4c0.2-0.5,0.8-2,1.2-3.4l1.1-3.4
		c0.1-0.2,0.4-0.3,0.7-0.4c0.6-0.1,1.2,0.1,1.8,0.4c0.5,0.2,0.9,0.6,1,1.2c0,0.2,0.1,0.5,0,0.7c-0.2,0.6-0.7,2.2-1.2,3.6
		c-0.4,1.1-1,2.2-1.1,2.6c-0.6,1.3-1,2.7-1.7,4l-1.9,3.7c-0.6,1.2-1,2.6-1.8,3.6c-0.8,1.2-2.1,2-3.1,3c-1.2,1.2-2.2,2.5-3.6,3.5
		c-1.3,1-2.9,1.8-4.5,2.1C210.4,283.1,209,283.2,207.8,282.9z M187.1,263.2l0.4-0.1l0.4,0.6l0.8-0.5l-0.3-0.3l-1.1-0.6l-0.1-0.1
		l-0.2-0.4l-0.1-0.1l-0.2,0.6l-0.2,0.2l-0.5-0.2l-0.2,0.2l0.2,1.7l0.1,0.2l0.4,0.1l0.3-0.1L187.1,263.2z M188.7,257l0.6-0.1l0.1-0.1
		l-0.2-0.1l-1.1-0.7l-0.1,0l0.1,0.8l-0.9,1.5l0.1,0.2L188.7,257z M188.3,265.5l-0.1-0.5l-0.4,0l-0.1,0.2l0.1,0.3L188.3,265.5z
		 M188.9,260.2l0.8-0.8l0-0.1l-0.3-0.2l-0.7,0.5l-0.4,0.6l0.2,0.1L188.9,260.2z M189.1,253.8l0.2-0.2l0-0.5l-0.4,0.1l-0.1,0.2
		l0.1,0.3L189.1,253.8z M190.8,254.7l-0.8-0.8l-0.3,0.3l-0.1,0.4l1.1,0.2L190.8,254.7z M191.2,253.5l-0.1-0.7l-0.6-0.9l0.3-0.3
		l0.2-0.2l0.8-0.8l-0.1-0.3l-0.3-0.3l-0.3-0.2l-0.2,0.2l-1.4,2l0,0.2l0.4,0.3l0.2,0.6l0.8,0.5L191.2,253.5z M191.3,246l0.1-0.1
		l0.2-0.4l-1.3-0.4l-0.2,0.3l0,0.2l0.8,0.5L191.3,246z M191.1,242.8l0.6-0.6l0.6-0.3l0-0.5l-1.3-0.8l-0.2,0.1l-0.2,0.2l0.6,1.2
		l-0.6,0.5l0,0.2l0.2,0.1L191.1,242.8z M193.1,234.8l0.3-0.3l0.2-0.4l-0.1-0.4l-0.2-0.4l-2-0.8l-0.2,0.1l-0.1,0.2l0.1,1.2l0.2,0.3
		l0.6-0.7l0.4,0.1l0.5,0.4l-0.2,0.8l0,0.2l0.5,0L193.1,234.8z M193.7,240.7l0.1-0.1l0.4-1.5l-0.1-1.2l0.6-1.7l0-0.2l-0.4-0.4
		l-0.2-0.1l-0.2,0.2l-0.7,1.4l-0.2,0.2l-1.8-0.3l-0.1,0.5l0.2,0.3l2,0.8l0,0.2l-0.4,0.6l-0.6,0.6l-0.1,0.2l0.1,0.1l1,0.4
		L193.7,240.7z M192.4,231.5L192,231l0-0.7l-0.4,0.1l-0.2,0.4l0.1,0.3l0.8,0.6L192.4,231.5z M193.8,244.4l1,0l0.1-0.2l-0.7-0.3
		l-0.6-1.2l-0.2-0.1l-0.4,0.3l-0.2,0.1l-0.5-0.2L192,243l0.2,0.3l0.9,0.5l-0.1,0.4l-0.3,0.1l-0.8-0.2l-0.1,0.2l0.8,0.5l0.5,0
		L193.8,244.4z M192.4,252.7l-0.1-0.4l-0.3,0.2l0.1,0.3L192.4,252.7z M194.3,248.5l0.2-0.2l0.3-0.7l0.2-0.1l0.5,0.1l0.2-0.2
		l-0.4-0.7l0.4-1.1l0.8-0.7l0-0.2l-0.3-0.3l-0.2-0.1l-0.2,0.1l-0.2,0.2l-0.3,0.8l-0.6,0l-0.5,0.4l-0.2,0.1l-0.4-0.4l-0.2,0.1
		l-0.6,0.7l-0.1,0.2l1.4,0.7l-0.2,0.4l-1.2-0.2l-0.2,0.4l1.5,0.7L194.3,248.5z M193,251.2l1.7-2.2l-0.3-0.2l-1.6,1.2l0,1.2
		L193,251.2z M195.3,231.5l0-0.5l-1.1-2.6l0.2-0.8l0.5,0l0.5,0.5l0,0.2l-0.2,0.9l0,0.2l0.1,0.1l0.2,0.1l0.4-0.2l0.1-0.1l-0.3-1.5
		l-0.4-0.6l-0.1-0.3l0.2-0.4l0-0.2l-1.1-0.7l-1.4,0.6l-0.1,0.2l0.7,0.7l0,0.2l-0.5,1.1l0.4,0.3l0,0.1l-0.1,0.5l0,0.2l0.4,0.4l0,0.2
		l-0.2,0.4l0,0.2l1.2,1L195.3,231.5z M194.4,219.7l0.1-0.2l-0.1-0.3l-0.1-0.2l-0.1-0.1l-0.9,1.9l0.1,0L194.4,219.7z M194.6,234.3
		l0.5-0.9l-0.1-0.4l-0.7-0.9l-1-0.2l-0.2,0.2l0.1,0.7l0.2,0.1l1.2,0.2l-0.6,1.4l0.2,0.1L194.6,234.3z M194.2,227.1l-0.2-0.4l0.2-0.2
		l0.4-0.1l0.3,0.2l-0.1,0.2l-0.2,0.2L194.2,227.1z M196.4,225.1l0.4-0.3l-0.2-0.3l-0.5-0.4l-0.9,0.9l0.6,0.7l0.3-0.1L196.4,225.1z
		 M206.2,274.1l0.4-0.4l-0.3-1.7l-0.1-0.2l-0.7-0.2l-0.9-1.9l-0.2,0l0.7,2.5l0.8,0.5l-0.1,0.4l-1.2-0.1l0,0.5l0.2,0.1l0.4,0l0.9,0.5
		L206.2,274.1z M205.8,268.6l-0.1-2.2l0.4-0.7l0.7,0l0.2-0.2l0.1-0.5l-0.1-1.2l0.1-0.2l1.5-0.6l0.3-1l0.8-0.3l0.1-0.1l0.1-0.2
		l-0.2-0.3l-0.4-0.1l-0.2-0.3l0.1-1l0.2-0.4l0.5,0l0,1.1l1,1.1l0.1,0l0.4-0.4l0.2,0l0,0.2l-0.2,0.9l0,0.2l0.1,0.1l0.2-0.2l0.5-1.3
		l-0.6-1.2l0.5-1l0.7-0.2l0.3-0.4l-0.1-0.3l-0.5,0l-0.4,0.2l-0.5,0.5l-0.2,0l-1.4-0.6l-0.4,0.1l-2.4,2.8l-0.2,0l-0.5-0.2l-0.2,0
		l-0.8,1l0.1,0.8l-0.5,0.4l-0.1,0.1l0.1,0.3l0.2,0.1l0.7-0.2l0.7-0.8l0.1,0.2l-0.1,0.2l-0.4,0.6l-0.2,0.2l-0.9,0.2l-0.2,0.2
		l-0.1,0.2l0.5,0.9l0,0.2l-0.8,1.4l-0.2,1.5l0.2,0.4l0.4,0.1l0.4,0L205.8,268.6z M210.5,273.7l0.1-0.2l-1.5-0.7l-0.9-1.1l0.1-0.2
		l0.2-0.4l0.1-0.7l0.4-0.2l0.3,0.3l0.1,0.5l-0.4,0.6l0,0.2l0.9,0.4l0.2,0.1l0.1-0.1l0.2-0.2l0.1-1.7l-0.2-0.3L209,269l0-0.2l0.4-0.7
		l1-0.4l0.1-0.1l0.1-1.3l0-0.2l-1.6-0.9l0.1-1.1l0-0.2l-0.2-0.1l-0.2,0l-1,0.9l0,0.2l0.4,0.3l-0.1,0.2l-0.8,1.1l-0.1,0.2l0.3,0.4
		l0.1,0l0.5-0.8l0.4-0.1l0.3,0.3l-1.2,4.3l-1-1.3l0-0.2l0.8-1.2l-0.2-0.3l-0.8,0.3l-0.5,1.5l0,0.2l0.3,0.3l0.3,0.9l1.6,1.8l0,0.2
		l-0.1,0.6l-0.1,0.4l0.4,0.1l0.3-0.3l0.2,0l0.5,0.4L210.5,273.7z M208.7,257.8l0-0.1l-0.1-0.2l-1.4,0.1l0.1-1l-0.3-0.3l-0.2,0.3
		l-0.3,1l0.4,0.6l-0.1,1.4l0.1,0.1L208.7,257.8z M207.2,275.5l0.2-0.4l-0.1-0.5l-0.1-0.2l-0.4,0.2l-0.2,0.6l0.1,0.2l0.4,0.1
		L207.2,275.5z M211.6,257l1.2,0.1l0.4-0.2l0-0.1l-0.4-0.6l0.1-0.4l0.6-0.3l0.3-0.3l-0.1-0.3l-0.4-0.1l-0.4,0.4l-0.2,0.1l-1.1-1
		l-0.2-0.1l-0.4,0.2l-0.9-0.4l-0.6,0.3l-0.1,0.4l1.7,1l0.6,0l0.2,0.1l0,0.2l-0.8,0.2l-0.7-0.2l-1.1,0.3l-0.1-0.2l0-1.1l0-0.2
		l-0.1-0.2l-0.5-0.1l-0.4,0.2l-0.1,0.1l0,0.8l-0.2,0.1l-0.5-0.1l-0.2,0.3l0.8,0.7l0.2,0.1l0.8-0.2l0,0.8l0.1,0.1l1.6,0.3L211.6,257z
		 M209.5,275.2l0.1-0.1l-0.2-0.3l-0.4-0.1l-0.2-0.1l-0.2,0.2l-0.1,0.5l0.1,0.1l0.7,0.1L209.5,275.2z M213.2,253.5l0-1.1l-1-0.7
		l-1.1,0l-0.3-0.2l-0.2-0.4l-0.4-0.5l-0.1-1l-0.3-0.3l-0.5-0.1l-0.8,0.3l-0.2,0.4l0,0.2l0.5,0.1l1,1.2l-0.2,0.4l-0.7-0.1l-0.2,0.3
		l0.8,0.9l0.9-0.2l1.9,1.6l0.2-0.1L213.2,253.5z M209.2,253.6l0.1-0.2l-0.2-0.4l-0.4,0.1l-0.1,0.1l0.1,0.4l0.1,0.1l0.2,0.1
		L209.2,253.6z M210.5,243.9l0-0.2l-1.1-0.6l-0.2,0.3l0.4,1.8l0.4,0L210.5,243.9z M212.3,248.8l-0.1-0.2l-0.8,0.2l-1.2-0.8l0-0.2
		l0.2-0.1l0.5,0.4l0.5,0l1.7-1.7l0.1,0l0.6,0.3l0.2-0.3l-2-1.3l-0.4-1.1l-0.3,0.1l-0.1,0.2l0.1,0.3l-0.3,0.7l0.2,1.4l-0.1,0.2
		l-0.3,0.1l-0.6-0.3l-0.4,0.1l-0.3,0.4l-0.1,0.4l0.1,0.4l1.9,2.1l0.2-0.1L212.3,248.8z M210.5,264.8l0.3-0.8l-0.1-0.1l-0.2-0.1
		l-0.3,0.3l-0.2,0.4l0.2,0.4L210.5,264.8z M212.7,243.2l0.4-0.3l0.1-0.4l-0.2-0.1l-0.4,0.3l-0.6-0.1l-0.1,0.1l0.2,0.3l0.4,0.1
		L212.7,243.2z M214.1,249.8l0.3-0.4l-0.6-0.6l0-0.5l0.2-0.6l-0.3-0.3l-0.2-0.1l-0.4,0.1l-0.5,0.5l0,0.2l0.5,0.5l-0.4,0.8l0.1,0.4
		l0.4,0.1l0.5,0L214.1,249.8z M214.3,245l-0.1-0.3l-0.4-0.7l-0.3,0.3l-0.3,0.4l0.8,0.5L214.3,245z M214.4,252.1l0.1-0.4l-0.1-0.1
		l-0.4,0.1l0,0.5l0.5,0.1L214.4,252.1z"/>
	<path class="st9" d="M231.8,276.5c-0.8-0.2-1.6-0.3-2.2-0.9c-1.9-1.4-3.5-4.1-3.9-6.5c-0.2-1.4-0.2-2.9,0-4.4
		c0.2-1.7,0.5-3.3,0.5-4.8c0.1-0.8,0.1-1.7,0.1-2.5c0.1-1,0.4-2,0.4-2.9l0.6-2.7c0.2-1,0.7-2.4,1.1-3.3c0.2-0.4,0.2-0.9,0.4-1.3
		s0.4-0.4,0.5-0.8c0.4-0.8,0.9-1.7,1.1-2.6c0.8-1.6,1.1-3.3,2-4.8s2.3-2.6,3.1-4c0.9-1.5,2.1-2.7,3.3-4c1.3-1.1,2.4-2.6,3.9-3.4
		l1.8-0.8c0.2-0.1,0.5-0.2,0.9-0.3c0.9-0.2,1.9-0.1,2.8-0.2c1.5,0,2.7,0.3,3.7,1.5c0.4,0.6,0.7,1.4,1.4,1.7c0.5,0.2,0.7,1.6,1.2,1.5
		c0.2-0.1,0.8-0.3,1-0.5c0.5-0.6,0.6-2,0.6-2.7c0-0.7,0.1-1.4,1-1.9c0.8-0.3,2.6-0.7,3.4-1c0.6-0.3,1.3-0.6,1.8-0.8
		c0.3-0.1,0.7,0,0.9,0c0.5,0,0.8,0.2,1.1,0.3c0.3,0.3,0.5,0.7,0.5,1.2c0.1,0.3,0.3,1,0.2,1.4c-0.2,0.9-0.5,1.5-0.8,2.3
		c-0.4,1-0.4,2-0.4,2.9c-0.3,1.8-1,3.6-1.3,5.5s-0.4,3.7-1,5.6c-1.1,3.4-1.2,7.1-2,10.6c-0.5,1.8-0.7,3.3-0.6,5.2
		c0.1,1.7,1,3.9,3.2,3.4c1.4-0.3,2.7-1.7,3.7-2.6c1.4-1.3,2.3-2.7,3.3-4.2c1.1-1.8,1.4-3.9,2.4-5.6c0.4-0.9,0.6-1.7,0.9-2.6
		c0.4-1.4,0.8-1.5,1.1-3.6c0.1-0.1,0.2-0.2,0.5-0.2c0.4-0.1,1.1-0.1,1.7,0.1c0.6,0.2,1.2,0.5,1.4,1.1c0,0.2,0.1,0.4-0.1,0.7l-1,3.4
		c-0.6,1.8-1.4,3.1-2.3,5c-0.5,1.1-0.6,2-1.2,3c-0.3,0.8-1.2,1.6-1.6,2.4c-0.4,0.8-0.7,1.7-1.3,2.5c-0.7,0.8-1.4,1.4-1.9,2.2
		c-0.6,0.9-1.2,1.8-2,2.6c-0.7,0.6-1.5,1.2-2.3,1.8c-0.8,0.7-1.4,1.4-2.3,1.7c-1,0.5-2,1-3,1.3c-1.7,0.4-3.2,0.4-4.8-0.4
		c-1.5-0.7-2.5-2.6-3.4-3.9c-0.6-0.9-1.1-1.3-1.8-1.1c-1.1,0.3-3.7,5.7-4.9,6.9c-1,0.9-2.3,2-3.6,2.6c-1,0.5-1.8,0.8-2.7,1
		c-0.6,0.1-1.2,0.4-2,0.5c-0.4,0-0.6,0.1-0.8,0.2C233.5,277.4,232.7,276.8,231.8,276.5z M229.2,269.1l0.2-0.4l-0.8-3l-0.3,0.1
		l0.4,3.2l0.1,0.2L229.2,269.1z M230.9,258.6l0.6-0.7l0.6-0.3l-0.4-0.7l0.2-0.8l-0.3-0.2l-0.4,0l-0.8-0.4l-0.9,0.6l-0.4-0.4
		l-0.4,0.3l-0.1,0.7l0.8,0.6l-0.3,0.7l0,0.2l0.8,0.4l0.2,0l0.2,0.1L230.9,258.6z M232.8,260.1l0.2-0.8l-0.1-0.2l-0.4-0.1l-0.4,0.2
		l-0.3,0.4l-0.8,0.2l-0.7-0.2l-0.1,0.1l-0.1,0.4l0.1,0.2l0.6,0.2l0.4-0.1l1,0.2L232.8,260.1z M231,253.1l-0.4-0.1l-0.1-0.4l-0.2-0.1
		l-0.1,0.6l0.3,0.4l0.5,0L231,253.1z M230.3,256.4l0.4-0.1l0.1,0.3l-0.4,0.1L230.3,256.4z M231.5,262.3l0.1-0.1l-0.2-0.3l-0.2-0.1
		l-0.2,0l-0.2,0.3l0.1,0.2l0.2,0.1L231.5,262.3z M231.9,264.8l0.1-0.1l1.2-0.4l0.5,0.1l0.2-0.2l0.2-0.5l0-0.1l-0.8,0l-0.4-0.4l0-1.2
		l-0.2-0.3l-0.3,0.1l-0.5,1.1l0.6,0.8l-0.1,0.2l-1.5,0.7l0,0.2l0.3,0.2L231.9,264.8z M232.5,249.1l0.3-0.4l-0.6-0.9l-0.4-0.1
		l-0.3,0.3l-0.1,0.2l0.2,0.6l0.5,0.5L232.5,249.1z M232.8,252.7l0.1-0.5l-0.1-0.8l0.2-0.2l1.2-0.4l0.6-0.7l1.1-0.3l0.1-0.1l0.1-0.4
		l-0.3-0.2l-0.2,0.1l-2.1,1.6l-1.1,0l-0.3,0.4l0.3,1.1l-0.5,0.2l-0.2,0.3l0.8,0.4L232.8,252.7z M232.5,246.4l0.1-0.4l0.1-0.1l0-0.5
		l-0.4,0.1l-0.2,0.2L232,246l0.3,0.6L232.5,246.4z M234.5,255.8l0.1-0.2l-0.5-0.4l0-0.2l0.5-0.6l0.4-1.6l-0.1-0.3l-0.3-0.2l-0.7,0.9
		l0.1,0.6l-0.1,0.2l-0.3,0.2l-0.5-0.2l-0.2,0.1l-0.8,1.5l0.3,0.3l0.8-0.1l0.9,0.4L234.5,255.8z M233.2,257.9l0-0.2l-0.9,0.1l0.2,0.4
		l0.5,0L233.2,257.9z M233.6,259.9l-0.3,0.1l0.1,0.3l0.4,0L233.6,259.9z M234,265.3l-0.1-0.5l-0.6,0.1l0.2,0.4L234,265.3z
		 M234.4,246.2l0.2-0.4l-0.3-0.3l-0.4,0.1l-0.2,0.2l-0.2,0.6l0.1,0.1l0.5,0L234.4,246.2z M238,244.4l-0.1-0.3l-0.1-0.2l0-0.2
		l-0.1-0.1l0-0.7l-0.4-0.5l-0.6,0.5l-0.2,0.1l-1.1-0.6l-0.5,0.6l-0.5,0l-0.2,0.2l0.1,0.2l0.7,0.2l-0.1,0.8l0.1,0.1l0.4-0.1l0.6-0.6
		l0.1,0l1.4,0.8L238,244.4z M234.7,241.8l0.6-1l-0.2-0.3l-0.4,0l-0.5,0.8l0.2,0.5L234.7,241.8z M236.3,246.9l0-0.2l-0.3-0.3
		l-0.1,0.5l0.3,0.3L236.3,246.9z M237.9,241.6l0-0.2l0.9-2.2l0-0.1l-1.5,0.1l-0.6-0.3l-0.3,0.1l-0.2,0.5l0.1,0.3l1.4,0.6l0,0.2
		l-0.2,0.8l0.2,0.3L237.9,241.6z M237.6,245.8l0.1-0.1l-0.2-0.4l-0.4-0.3l-0.6-0.1l-0.2,0.4l0.3,0.3l0.2,0.1l0.1,0.2l0.4,0
		L237.6,245.8z M245.9,261.7c0.5-1.3,1.2-2.4,1.8-3.6c0.7-1.3,1.1-3,1.7-4.3c0.5-1.5,0.9-3,1.1-4.6l0.9-4.5c0.3-1.5,0.7-3.2,0.9-4.7
		c0.2-1.7-0.1-3.3-0.4-4.9c-0.2-1-0.9-2.4-1.7-3c-0.7-0.6-1.6-0.9-2.3-0.8c-0.4,0.1-0.9,0.6-1.1,0.7c-1.1,0.5-1.9,1.3-2.5,2.2
		c-0.7,1.1-1.3,2.3-1.8,3.5c-0.6,1.2-1.1,2.5-1.5,3.8c-0.6,1.4-0.7,3-1.3,4.3c-1,2.6-2.4,5.4-2.7,8.2c-0.5,3.2-0.8,6.8-0.2,9.9
		c0.4,2.1,1.2,4.4,4,3.8C243.2,267.3,244.9,263.9,245.9,261.7z M250.1,260.9l0.4-0.2l0.1-0.1l-0.7-1.2l-0.3,0.1l0.1,1.3l-0.3,0.4
		l0,0.2l0.3,0.2L250.1,260.9z M251.8,256.8l0.2-0.2l0.2,0l0.5-0.6l0-0.2l-0.1-0.2l-0.7-0.2l0-0.7l-0.4,0l-0.3,0.4l-0.3,1.1l-0.1,0.1
		l-0.3,0.2l-0.2,0.3l0.3,0.3l0.2,0.1L251.8,256.8z M253.7,261.7l0.8-1.2l-0.2-1.2l-0.7-0.9l0.2-0.6l0.7,0.2l0.3-0.3l0.7-1.5l0-0.1
		l0.1-0.2l0-0.2l-0.4-0.5l0.2-0.3l0.5,0.1l0.2-0.2l0-0.1l-0.8-1l-0.2-0.1l-0.1-0.2l-1.1-0.2l-0.3-0.6l0.3-0.2l0.3,0.4l0.6,0.3
		l0.2-0.1l0.6-0.5l0.8,0.4l0.2-0.1l0.7-0.8l0.2,0.1l0.1,0.6l-1.1,2.5l0.1,0.7l0.5,0.1l0.2-0.1l0.2-0.2l-0.1-1.6l1.1-1.8l0-0.7
		l0.4-0.9l0-0.2l-0.3,0.1l-0.1,0.1l-0.4,0.2l-0.2-0.3l1.4-1.4l0.1-0.2l-0.2-0.8l-1.1-0.9l0-0.6l-1-2l-0.4-0.1l-0.3,0.4l0.3,1.5
		l0.6,0.7l-0.3,0.2l-1.1-0.4l0.1-0.7l-0.1-0.2l-0.6,0l-0.2,0.2l-0.2,0.9l-0.2,0.1l-0.1-0.1l-0.2-0.5l-0.3-0.2l-0.6,0.1l-0.2,0.2
		l-0.2,0.1l-0.3,0.9l0.1,0.1l0.6-0.4l0.3,0.3l0.1,0.4l-0.6,0.5l-0.1,0.2l0.2,0.5l-0.1,0.7l-0.3,0.7l-0.6-0.1l-0.3,0.4l0,0.2l0.3,0.4
		l0.4,0.1l0.1,0.3l-0.4,0.3l-0.1,0.5l-0.3,0.1l-0.5,0.4L251,254l0.3,0.2l0.9-0.6l0.1-0.4l0.2-0.1l0.3,0.2l0.3,0.6l0.5,0.4L253,255
		l0,0.8l0.3,0.6l1.1-0.3l0.1,0.5l-0.2,0.3l-1.8,0.8l-0.4-0.3l-0.4,0l-0.8,0.4l-0.5,0.8l0.6,0.9l0.3-0.2l-0.1-0.9l0.2-0.2l0.4-0.1
		l1.1,0.7l-0.6,0.7l0.2,0.4l0.4,0.1l0.9-0.1l0.1,0.5l-0.3,0.4l-0.4,0.1l-0.2-0.1l-0.3-0.3l-0.2-0.1l-0.7-0.5l-0.2,0.5l0,0.2l1.8,1
		L253.7,261.7z M255.5,265.9l-0.1-0.2l-0.9-0.1l-0.1-0.6l0.2-0.2l1.1-0.3l0.3-0.3l-0.2-1.7l-0.2-0.1l-0.2,0.5l0.1,0.9l-0.5,0.4
		l-0.7,0.2l-0.6-0.1l-1.3,0.4l0,0.2l0.3,0.2l0.9-0.1l0.8,1.3l0.1,0.1l0.5,0l0.3,0.4l0.4,0L255.5,265.9z M253.9,263.3l0-0.1l-0.5-0.5
		l-0.4,0l0.1,0.5l0.3,0.3l0.4,0L253.9,263.3z M257,243.8l0-0.4l-0.7-0.6l0.9-1l0.3,0.2l-0.1,0.7l0.5,0.1l0.8-0.9l0.5,0l1-2.1
		l-0.2-0.4l-0.3,0.2l-0.2,0.3l-2.2,1.3l-0.4-0.3l0-0.2l0.2-0.4l0.6,0.1l0.4-0.2l0-0.2l-0.3-0.3l-0.9-0.4l-1.5,2l-0.6-0.2l-0.6,0.1
		l-0.1,0.4l0.7,0.3l0,0.2l-1.1,0.7l0,0.2l0.2,0.1l0.7-0.2l0.9,0.3l0.1,0.2l1.1,0.4L257,243.8z M254.3,252.1l-0.3-0.3l0-0.2l0.2-0.6
		l0-0.2l0.3-0.9l0.7-0.5l0.3,0.2l-0.7,0.8l-0.1,0.2l0.3,1.2l-0.2,0.5L254.3,252.1z M254.9,245.4l0.3-0.3l0.2-1.2l-0.3-0.4l-0.7,0.2
		l-0.4,0.8l0.1,0.4l0.4,0.6L254.9,245.4z M258,238.9l0.6-0.6l0.6-0.3l0.1-0.2l-0.3-1.1l0.3-1l-0.2-0.1l-0.3,0.2l-0.5,1.6l-0.7,0.4
		l-0.7-0.8l-0.5-0.1l-1,0.2l-0.4-0.1l-0.4-0.6l-0.1,0l-0.1,0.2l0.1,0.6l0.3,0.4l0.9,0.3l0.2,0.5l0.4,0.1l0.5-0.8l0.8,1l0.4,0.1
		L258,238.9z M255.4,239.2l-0.3-0.4l-0.2-0.1l-0.3,0.1l0.1,0.4l0.5,0.2L255.4,239.2z M257.1,249.6l-0.7-0.8l-1.2-0.5l0.1-0.4
		l0.4-0.1l0.7,0.8l0.2,0.1l0.3-0.3l0.5-0.2l0.1,0.2l-0.2,0.3l-0.3,0.2l-0.1,0.2l0.4,0.5l-0.1,0.1L257.1,249.6z M255.7,259.1
		l-0.2-0.3l-0.3,0.1l0,0.8l0.1,0.2l0.2,0.1L255.7,259.1z M257.3,259.5l-1-3.1l-0.8,1l0,0.2l1.1,1.9l0.4,0.1L257.3,259.5z
		 M256.2,234.8l-0.3-0.2l-0.2,0.3l0,0.1l0.3,0.3L256.2,234.8z M257.6,261l-1.1-0.7l-0.2,0l-0.2,0.2l-0.2,0.5l0,0.2l0.5,0l0.6-0.3
		l0.5,0.2L257.6,261z M256.1,250.2l0-0.2l0.2-0.2l0.3,0.2l0,0.1l-0.2,0.4L256.1,250.2z M257.2,265.1l0.4-0.3l0.1-0.2l-0.3-0.6
		l0.1-0.5l-0.1-0.3l-0.4-0.1l-0.3,0.3l-0.1,0.5l0.2,1.4l0.1,0.1L257.2,265.1z M258.1,266.9l-1.1-0.5l-0.2,0.2l0.2,0.3l0.9,0.3
		L258.1,266.9z M257.5,235.9l0.2-0.4l-0.1-0.7l-0.1-0.2l0.1-0.2l-0.1-0.4L257,234l-0.1,0.2l0.2,1l-0.1,0.2l-0.2,0.2l-0.1,0.2
		l0.1,0.1L257.5,235.9z M259.1,246.9l0.8-1.5l-0.8-0.6l0.5-2l-0.3-0.2l-1.4,1.4l-0.2,0.4l0.2,0.5l0.8,0.8l0,0.6l-0.2,0.3l0.1,0.3
		l0.1,0.2L259.1,246.9z M260.3,241.9l-0.3,0.1l0.2,0.3l0.4,0L260.3,241.9z M260.8,237.3l0.2-0.4l-0.3-0.3l-0.6-0.1l-0.1,1.2l0.2,0.1
		L260.8,237.3z"/>
	<path class="st9" d="M292.3,262.4c-1.9-0.4-3.1-0.8-4.4-2.2c-1.3-1.5-2.5-3.2-2.9-5.1s-0.1-4,0-5.9c0.1-2.1,0.3-4.4,0.7-6.6
		c0.2-1.8,0.7-4,1.4-5.7c0.8-2.1,1.3-4.3,2-6.4c0.3-1,0.7-1.9,1-2.9c0.2-0.8,0.6-1.7,0.5-2.5c-0.2-0.9-0.5-0.9-1.5-1.2
		c-0.6-0.1-1.1-0.1-1.5,0c-0.5,0.1-1.1,0.4-1.9,0.6c-0.7,0.2-1.4,0.2-1.8,0.7c-0.7,0.5-1,1.5-1.5,2.2c-1,1.8-1.1,4-1.4,6
		c-0.3,2-1.1,3.9-1.9,5.6c-0.6,1.2-1,3.6-1.5,5.3c-0.2,0.9-0.3,1.7-0.8,1.8c-0.4,0.1-0.9-0.3-1.5-0.5c-0.7-0.3-1.5-0.5-1.6-1
		c-0.2-0.9,0.6-2.4,0.7-2.8c0.4-2,0.9-3.9,1.3-5.7c0.5-2,0.8-3.9,1-5.9c0.2-2.1,0-4.4-0.2-6.3c-0.1-1.2-0.8-2.4-1-3.6
		c-0.2-0.9-0.3-1.8-0.6-2.8c-0.2-0.5-0.4-1-0.5-1.5c-0.1-0.3-0.1-0.6,0.1-1c0.3-1,1.1-1.6,2.1-1.9l3.5-1.5c1.5-0.7,2.7-1.5,4-2
		l0.4-0.1c1-0.2,1.6,0.4,1.7,1.4c0.2,1.4-1.1,4.6-1.2,6.3c0,0.7,0.1,1.3,0.3,1.7c0.3,0.6,1,0.8,1.7,1c0.5,0.1,1.1,0.2,1.5,0.1
		c1-0.2,1.5-0.1,2.2-0.3c2.1-0.5,3.2-1.2,5.3-1.7c1-0.2,2-0.8,3.1-1.1c0.8-0.2,1.5-0.2,2.1,0.1c0.6,0.2,0.8,0.5,0.9,1.1
		c0.2,1.1-0.8,2.9-1.1,4c-0.7,1.9-1.2,4.1-1.6,6.1c-0.4,1.9-1.4,3.4-1.7,5.2c-0.3,2-1,3.9-1.6,5.9c-0.9,3.6-2,7.4-1.4,11.1
		c0.5,2.7,2,4.5,4.8,3.8c1.5-0.4,2.6-1.8,3.6-3.1c2.7-3.2,4.9-6.9,6.3-10.9c0.3-0.8,1.1-3.1,1.6-5.2c0,0,0.2-0.5,0.7-0.5
		c0.6,0.1,1.2,0.5,1.8,0.9c0.6,0.2,1.1,0.4,1.2,0.8c0,0.1,0,0.2,0,0.4c0,0.4-0.4,1.1-1,2.9c-0.4,1.3-0.6,1.6-0.9,2.6
		c-0.3,1-0.7,2-1.1,3c-0.5,1.1-1.1,2-1.8,3.1c-1,1.8-1.8,3.7-2.9,5.4c-0.5,0.9-1.3,1.7-2,2.6c-0.6,0.7-1.1,1.7-1.8,2.3
		c-0.7,0.6-1.5,1.1-2.4,1.6c-1,0.5-1.9,1.1-2.8,1.7c-0.6,0.3-1.3,0.5-2,0.7C295.1,262.7,293.6,262.7,292.3,262.4z M279.8,222.4
		l0.2-0.4l-0.1-0.7l0.3-0.4l0.3-0.3l0.5,0l0,0.4l-0.3,0.4l0.2,0.4l2.1-2.1l0-0.1l-1-1.1l-2.7-1.1l-0.3-0.6l-0.2,0.1l-0.2,0.2
		l-0.3,1.1l0.2,1.4l0.4,0l0.9-1l0.1,0.2l-0.7,3.9l0.2,0.3L279.8,222.4z M279,220.9l-0.1-0.4l-0.3,0.1l0.1,0.4L279,220.9z
		 M281.9,217.5l-0.1-0.4l-0.3-0.2l-0.5-0.1l-0.4,0.2l0.3,0.5l0.5,0.4L281.9,217.5z M281,220.3l-0.2-0.8l0.1-0.1l0.4-0.1l0.4,0.1
		l0.3,0.4l0,0.2l-0.9,0.3L281,220.3z M282.7,216l0-0.5l-0.1-0.2l-0.5-0.2l-0.2,0.4l0.1,0.4l0.1,0.1l0.2,0.1L282.7,216z M289.2,251.8
		l0.4-0.3l0.1-0.1l-1-1.5l0-0.2l0.7-1.4l2.1-1l0.3-0.4l-0.1-0.4l-0.7-0.3l-0.3-1.1l0.1-0.2l0.8-0.7l0.1,0l0.2,0.3l0.8,0.8l-0.5,0.8
		l0.2,1.1l0.1,0.2l0.2-0.1l0.4-0.2l0.2-0.4l0.3-0.9l-0.2-1l-0.9-1l-0.1-0.4l0.3-0.2l0.6,0.3l0.1-0.1l-0.5-0.6l0-0.2l0.6-2l0.8-0.7
		l0.1-0.2l-0.3-0.5l0.1-0.2l0.1-0.1l0.3-0.2l0.1-0.1l-0.1-1.3l-0.4,0l-0.3,0.2l-0.2,0.9l-0.2,0.1l-0.6-0.8l-0.1-0.1l-1.8,0.8
		l-0.8,0.9l-0.2,0.1l-0.5-0.4l-0.2,0.2l0,0.2l0.9,0.7l0.5-0.5l0.9-0.1l0.6-1l0.4,0.1l0.1,0.4l-0.5,0.6l-0.1,0.2l0.2,0.9l-0.5,1.2
		l-0.4-0.1l-0.1-0.2L291,240l-0.2-0.1l-0.4,0.2l-0.2,0.1l-0.6-0.3l-0.4,0.1l0.2,0.9l-0.1,0.1l-1,0.4l-0.2,0.2l0.2,0.9l-0.4,0.2
		l0,0.4l0.4,0.4l0.3,0.6l0.3-0.1l1-0.7l0.8-1.6l0.2,0.4l-0.2,0.6l0,0.2l0.3,0.5l-0.4,0.1l-1.5,0.8l0,0.7l0.3,0.6l0.5-0.2l0.2,0.1
		l-0.4,1.1l-0.8-0.5l-0.2,0.1l0,0.5l0.2,1l-0.3,0.1l-0.1-0.2l-0.1-2.8l-0.1-0.2l-0.5,0l-0.2,0.3l0.3,0.6l0,0.4l-0.6-0.1l-0.2,0.2
		l0.5,1.2l-0.4,1l1.6,2.7l0.1,0.4l-0.2,0.8l0.3,0.2L289.2,251.8z M289.9,255.5l0.3-0.2l0.2-0.3l-0.1-0.2l-0.5-0.4l-0.5,0.5l-0.5,0.1
		l0,0.2l1,0.2L289.9,255.5z M293.1,252.4l0-0.7l-0.8,0l-0.2-0.4l1-0.9l0.1-0.2l-0.6-1.9l-0.3-0.2l-0.5,0.4l-0.2-0.1l-0.4-0.1l-0.5,0
		l-1.3,1.1l-0.1,0.1l0.8,1.1l0.5,0.1l-0.1-1.5l0.4-0.2l0.2,0.1l0.9,0.4l0,0.2l-0.6,1.1l-0.7,0l0,0.7l0.3,0.3l1.8,1.2l0.4,0
		L293.1,252.4z M290,252.6l0-0.4l-0.3-0.2l-0.4,0.3l0,0.2l0.1,0.2L290,252.6z M290.4,234.2l0.5-0.4l0.2-0.4l-0.4-0.1l-0.6,0
		l-0.3,0.4l0.1,0.6L290.4,234.2z M292.2,236.5l0.1-0.2l-1.6-0.8l-0.2,0.2l-0.4,0.6l0.6,0.6l1.4-0.1L292.2,236.5z M294.5,234.9
		l-0.1-0.3l-0.1-0.2l-0.5,0l-1.1,0.4l-0.5-0.2l0.1-0.2l0.8-0.3l2.3,0.5l0.2-0.1l0.3-0.2l-0.5-0.6l0.5-0.8l0-0.5l-0.1-0.8l0.1-0.2
		l0.7-0.4l-0.2-0.3l-0.5-0.5l-0.2,0.1l-1.2,1.8l-0.2,0.1l-1.9-0.4l-0.3-0.4l0.3-0.3l0.5-0.2l-0.1-0.3l-0.4-0.1l-0.4,0.2l-1.2,1.7
		l0,0.2l1,0l0.6,0.3l1.3-0.1l0.2,0.3l-0.3,0.2l-0.5,0.1l-1-0.2L292,233l-0.9,1.6l0.3,0.3l1.3,0.4l1,0.8l0.1,0L294.5,234.9z
		 M293.1,255.9l0.5-0.5l0.7-0.2l-0.1-0.3l-1.4,0.2l-0.5-0.1l-1.3,0.3l-0.1,0.1l0.1,0.4l0.2,0.1l1.1-0.3l0.5,0.2L293.1,255.9z
		 M291.1,242.7l0.2-0.3l0.2-0.1l0.2,0.1l-0.1,0.2l-0.1,0.1l-0.3,0.2L291.1,242.7z M292.9,254.2l0.1-0.2l-0.8-0.5l-0.4,0l0,0.2
		l0.7,0.8L292.9,254.2z M297.9,228.3l0-1.2l0-0.2l-0.2-0.1l-0.2,0.8l-0.6,1l-0.2,0.1l-0.1-0.1l-0.6-0.8l-0.1-0.1l-0.2-0.1l-1,0.4
		l-0.4-0.1l-0.1-0.1l-0.2-0.6l-0.7-0.8l-0.1,0l0.1,0.6L293,227l-0.8,1l0.1,0.6l0.4,0.1l0.3-0.3l0.2-0.1l1.2,0.4l0.2,0.6l0.5,0.1
		l0.3-0.8l0.3-0.1l0.9,1l0.2-0.1L297.9,228.3z M294.4,229.9l-0.1-0.3l-1.2-0.5l-0.2,0.4l1.1,0.9L294.4,229.9z M295.3,225.8l0-0.5
		l-0.2-0.3l-0.3,0.1l-0.2,0.4l0.2,0.3l0.3,0.3L295.3,225.8z M295.8,235.7l0-0.4l-0.1-0.1l-0.3,0.1l-0.1,0.2l0,0.2l0.3,0.3
		L295.8,235.7z M296.4,226.8l0.3-0.4l0-0.4l-0.3-1.2l-0.2-0.1l-0.2,0.4l0,0.8l-0.3,0.8l0.1,0.2l0.2,0.1L296.4,226.8z"/>
	<path class="st9" d="M336.6,251c-1-0.6-1.4-1.4-2-2.3c-0.3-0.5-0.6-0.6-1-1.1c-0.5-0.6-0.5-2-1.5-1.8c-0.9,0.2-2.2,3.2-2.9,4.2
		c-0.6,1-1.5,2-2.3,2.9c-0.9,1-2.1,1.9-3.1,2.5c-1.5,0.8-2.9,1.5-4.3,1.8c-0.8,0.2-1.7,0.3-2.6,0.3c-2.2-0.2-4-1.8-5.2-4
		s-1.9-5-2.1-7.2l-0.2-3.1c0-1.4,0.5-2.2,0.7-3.4c0.4-2.3-0.1-4.8,0.9-7.2c0.1-0.5,0.1-1.1,0.4-2.1c0.3-1,1.3-1.9,1.7-2.9
		c1-2.3,1.3-4.5,2-6c0.5-0.7,1.5-1.5,1.6-1.8c0.2-0.3,0.3-0.9,0.5-1.2c0.5-1.1,1.1-2.1,1.9-3.1c1.4-1.9,2.7-3.8,4.8-5.5
		c1.6-1.4,3.9-2.5,5.9-2.9c2.4-0.6,4.1-0.3,6.1,1.1c0.5,0.5,1.3,1.9,2,1.8l0.3-0.1c1.1-0.5,1.1-2,1.4-3c0.5-2.5,0.5-4.7,1.1-7.1
		c0.5-2.5,0.9-4.8,1.5-7.3c0.2-1,0.2-1.9,0.3-2.9c0-0.5,0.2-1,0.2-1.4c-0.1-0.6-0.3-0.9,0-1.5c0.3-1.1,0.7-2.5,0.9-3.9
		c0.2-1.5,0.4-2.9,0.2-4.2c-0.1-0.6-0.4-1.1-0.7-1.6c-0.3-0.5-0.5-1.2-0.2-1.7s0.8-0.8,1.3-1c0.6-0.3,1.5-0.5,2.9-1
		c1.2-0.5,4.1-2.1,5.7-2.5c0.8-0.2,1.2-0.2,1.8,0.2c0.4,0.3,0.6,0.8,0.7,1.5c0.3,1.5-0.5,4-0.8,5c-0.6,1.2-0.7,2.2-0.7,3.4
		s-0.7,2.6-0.8,3.7c-0.3,2.4-0.5,4.7-1.3,7.1c-0.5,1.2-0.7,2-0.7,3.3s-0.6,2.3-1.1,3.4c-0.4,1.1-0.3,2.3-0.7,3.4
		c-0.5,1.3-0.9,2.3-1,3.6c-0.3,2.2-0.2,4.6-0.9,6.7c-0.9,2.2-0.9,5.2-1,7.5c0,1.2-0.4,1.5-0.9,2.6c-0.5,0.9-0.5,2.1-0.9,3
		c-0.4,1.1-0.9,2.2-1,3.4c-0.1,1.3,0,2.7-0.1,4c-0.1,1.2-0.1,2.6-0.5,3.8c-0.4,1.4-0.6,2-0.3,3.7c0.2,0.9,0.2,2.1,0.8,2.6
		c0.7,0.6,2,0.6,2.9,0.4l0.2-0.1c1-0.4,1.8-1.1,2.7-1.8c0.7-0.6,1.3-1.8,2.1-2.6c0.8-0.8,1.4-2.1,1.9-3.1c0.6-1.3,1.2-2.2,1.8-3.7
		c0.4-1,0.9-2.3,1.4-3.3c0.5-1.1,0.2-0.6,0.6-1.8c0.1-0.6,0.3-1.1,0.6-2.3c0.4-1.1,0.6-1.1,0.8-1.1c0.3-0.1,0.9,0.1,1.6,0.4
		c0.7,0.3,1.6,0.7,1.7,0.9c0.1,0.6-0.5,1.5-0.7,2c-0.6,2.5-1.9,6-3.1,8.3s-1.9,4.6-3.5,6.5c-0.8,0.9-1.3,1.9-2,2.8
		c-0.9,1-2,1.8-2.9,2.7c-1,0.8-1.9,1.7-2.8,2.5c-1.1,1-2.3,1.7-4.1,2.1C340.8,252.5,338.2,252.1,336.6,251z M315.6,237.9l0-0.1
		l-0.2-0.4l0-0.2l0.2-0.4l0-0.2l-1.1-0.6L314,236l-1,0.8l-0.1,0.1l0.1,1.6l0.1,0.2l1.1,0.2L315.6,237.9z M316.4,240.6l0.3-1l0-0.2
		l-0.1-0.1l-0.3,0.1l-0.9,0.6l-1.2-0.1l-0.2,0.4l0.2,0.4l2,0.2L316.4,240.6z M315.2,242.6l0-0.4l-0.2-0.1l-0.3,0.1l0,0.4l0.2,0.1
		L315.2,242.6z M317.4,244.6l0.4-0.3l-0.2-0.4l-0.6,0l-0.1-0.2l-0.4-1.6l-0.4,0l-0.4,0.9l-0.1,0.2l0.1,0.2l0.3,0.3l0,0.2l-0.1,0.1
		l-1.3,0.6l0,0.4l0.6,0.1L317.4,244.6z M316.5,232.5l-0.2-0.1l-0.4,0.8l0,0.2l0.2-0.1L316.5,232.5z M318.3,235.9l-0.1-0.2l-0.3-0.3
		l0-0.1l0.8-2.3l-0.1-0.3L318,233l-0.1,0.1l-0.4,1.3l-0.1,0.1l-0.7-0.2l-0.1,0l-0.7,1.3l0,0.2l0.1,0.1l2.1,0.2L318.3,235.9z
		 M317.5,245.3l-0.3,0.1l0.1,0.3l0.3-0.1L317.5,245.3z M318.1,226.2l-0.1-0.3l-0.2,0.1l-0.4,0.2l-0.2,0.3l0.3,0.3L318.1,226.2z
		 M318.4,238.1l-0.1-0.1l-0.4-0.1l0,0.5l0.1,0.2l0.5,0L318.4,238.1z M321.1,223.8l-0.1-0.4l-0.1-0.2l-0.5,0.1l-1.2-0.3l-0.2,0.2
		l-0.1,1.3l0.2,0.1l0.8-0.6l1,0.2L321.1,223.8z M321.1,220.2l0.2-0.4l-0.4-0.4l-0.6-0.2l-0.4,0.6l0.2,0.4l0.6,0.2L321.1,220.2z
		 M328.9,243.9l2-4.7c0.7-1.3,0.9-2.6,1.5-3.9c0.2-0.8,0.8-1.2,1-2c0.3-0.7,0.4-1.5,0.5-2.1c0.4-1.7,0.7-3.3,1-5.1
		c0.2-1.4,1.2-2.2,1.1-3.6c-0.2-1.7-0.1-3.4-0.4-5c-0.4-2.3-2.1-5.4-4.8-4.8c-2.3,0.6-3.5,4-4.8,5.9c-1.6,2.6-2.9,5.1-3.3,8.1
		c-0.2,1.5-0.8,2.6-1.3,3.8c-0.4,1.5-0.2,2.9-0.5,4.4c-0.6,2.6-0.4,4.9-1,7.5c0,0.6,0,1.1,0,1.5c0.1,0.4,0.3,1,0.4,1.7
		c0.3,1.5,0.8,2.4,2.3,2.7c0.5,0.1,1.1,0.1,1.6,0C326.5,247.9,328,245.8,328.9,243.9z M334,240.5l0-0.2l-0.1-0.2l-0.2,0.1l0,0.4
		l0.4,0.3L334,240.5z M335,238.7l0.7-0.5l-0.1-0.2l-0.1-0.1l-1.2,1l0.1,0.4l0.1,0.2l0.4,0.1L335,238.7z M335.2,237l1-0.7l0-0.2
		l-1.2-0.3l-0.1,0.1l0,0.5l-0.2,0.5l0.2,0.3L335.2,237z M336.5,241.3l-0.2-0.3l-0.5-0.4l-0.2,0.2l0.2,0.4l0.6,0.2L336.5,241.3z
		 M339.2,247.2l0.1-0.5l-0.1-0.3l-0.1-0.2l-1-0.4l0-0.5l1.3-0.6l0.2-0.4l-0.2-1.2l-0.3,0.1l-0.1,1.1l-0.5,0.4l-2.2,0.5l0.1,0.3l1,0
		l0.5,0.6l0.2,0.6l0.1,0.1l0.4,0l0.1,0.2l0.3,0.3L339.2,247.2z M339.3,236l-0.4-0.7l0.5-0.2l0.1-0.1l-0.3-0.6l-2-1.1l-0.1-0.2
		l0.2-0.4l0.3-0.1l0.4,0.5l0.4,0.1l0.3-0.4l-0.8-0.6l0-0.2l0.2-1.2l0.6-1l0.2-0.2l0.1,0.1l1,0.6l0.2,0.4l-0.2,0.1l-0.5-0.5l-0.2-0.1
		l-0.4,0.2l-0.1,0.1l-0.2,0.4l0.8,1.9l0.5,0.4l0.2-0.1l0.3-0.3l0.1-0.2l-0.2-0.5l0.1-0.1l0.1,0l0.4,0.4l0.3,0.6l-0.2,0.4l-0.6,1.1
		l-0.2,1.6l0.1,0.2l0.4,0.1l0.3-0.1l0.1-0.2v-1.3l1-3.1l-0.1-0.2l-0.4-0.4l0.6-1.2l0.3-1.1l-0.6-0.9l-0.2-1.2l-0.9-1.4l-0.4-0.3
		l-0.2,0.2l0,0.5l0.3,1.5l0.4,0.4l-0.1,0.2l-1.2-0.3l-0.1-0.8l-0.1-0.1l-0.5,0l-0.1,0.1l-0.3,0.8l-0.7-0.7l-0.4,0.1l-0.3,0.4
		l0.5,0.8l-0.1,0.2l-0.4,0.8l-0.6,4l0.9,1.4l0,0.1l-0.4,1.1l0.2,0.6l0.1,0.2l0.2-0.1l0.6-0.3l0.2,0.1l-0.1,0.7l-0.2,0.6l0,0.1
		l0.4,0.1L339.3,236z M337.8,239.9l0.2-0.3l0-0.2l-0.9-1.6l-0.4,0.1l-0.4,0.4l0.6,0.6l0,0.2l-0.3,0.7l0.2,0.4l0.2,0.1L337.8,239.9z
		 M339,225.1l0.2-0.6l0-0.2l-0.4-0.3l-0.1,0l-0.5,0.2l-0.1,0.1l-0.1,0.5l0.1,0.7l0.5,0.1L339,225.1z M342.4,218.7l1.6-0.5l0.9-0.8
		l0.1-0.2l-0.1-0.2l-1.2-0.4l-0.5-0.9l-0.2-0.1l-1,0.9l0,0.8l-0.5,0.7l-0.2-0.1l-0.7-0.7l-0.4-0.1l-1.1,0.4l-0.2-0.1l-0.1-0.2
		l-0.4-0.7l-0.3-0.2l-0.2,0.3l0.1,1.3l0.1,0.2l0.7,0.3l0.2,0.3l-0.3,0.2l-0.8,0.1l0,0.4l0.3,0.4l0.5,0.4l1.1-0.9l0.5-0.7l1.2,0.9
		l0.2-0.1L342.4,218.7z M340.8,223.7l-0.5-0.5l0.2-0.4l0.3-0.3l0.3-0.2l0.1,0.7l0.4,0.3l1.3-1.1l1-2l0-0.4l-0.4-0.1l-2.1,1.8
		l-0.6-0.1l-0.1-0.3l0.9-0.3l0.2-0.4l-1.2-0.7l-0.2,0.1l-1,1.5l-0.4,0.3l-0.7,0l-0.2,0.4l0.3,0.3l0,0.2l-0.2,0.5l0,0.2l1.8,0.9
		l0.7,0L340.8,223.7z M339.3,239.7l0-0.2l-0.3,0.1l-0.1,0.2l0.1,0.1l0.2,0.1L339.3,239.7z M341.1,216.4l2-2.8l0.2-0.1l1,0.5l0.3-0.3
		l-0.1-0.3l-0.6-0.7l0-0.2l0.1-0.2l0.3-0.3l0.3-0.2l0.1,0.1l0.4,1.1l0.3-0.1l0.3-1.4l-0.2-0.3l-1.5-1.1l0.2-0.4l0.4,0l1.1-0.9
		l0.6-1.2l-0.1-0.7l-0.4-0.1l-0.3,0.2l0,0.9l-0.1,0.1l-0.2,0.2l-0.5,0l-0.9-0.4l-0.2,0.1l0.1,0.7l-0.2,0.2l-0.3,0.1l-0.6-0.3
		l-0.2,0.1l-1.2,0.5L341,210l-0.4,2.3l0.4,1.2l-0.1,0.2l-2,0.6l-0.1,0.1l0.8,1.3l0.2-0.1l0.4-0.4l0.1,0.2l-0.1,0.8l0.1,0.2
		L341.1,216.4z M339,228.7l-0.1-0.4l0.3-0.1l0.9,0.6l0.2,0.1l0.6-0.3l0,0.2l-0.3,0.4l0,0.2l0.2,0.3l-0.1,0.1L339,228.7z
		 M340.7,239.7l0-0.7l-0.7-2.2l-0.4,0.3l-0.2,0.5l0.1,0.4l1,1.6L340.7,239.7z M340.1,241.6l0.2-0.3l0-0.4l-0.1-0.2l-0.4,0.3
		l-0.3,0.3l0.3,0.3L340.1,241.6z M341.2,245.1l-0.2-1.6l-0.3-0.2l-0.4,0.3l-0.1,0.2l0.1,1l0.3,0.6l0.2-0.1L341.2,245.1z
		 M341.6,247.4l0.1-0.2l-0.3-0.3l-0.7,0l-0.1,0.1l0.3,0.3l0.4,0.1L341.6,247.4z M341.4,214.8l0-0.2l0.8-1.4l0.3-0.1l0.1,0.3l-1,1.4
		L341.4,214.8z M342.6,225.4l0.5-2.1l-0.1-0.2l-0.3,0.1l-1.1,1.6l-0.1,0.2l0.3,0.4l0.5,0.4L342.6,225.4z M342.1,212.4l-0.5,0
		l-0.2-0.3l0.1-0.2l0.5-0.4l-0.2-0.5l0.5-1.3l0.2-0.2l0.4,0l0.3,0.2l0.2,0.5l-0.5,1.8l-0.1,0.1l-0.2,0.2L342.1,212.4z M343,217.1
		l0.3-0.1l0.1,0.6l-0.3,0.1L343,217.1z M344.4,215.3l-0.5-0.4l-0.4-0.1l-0.3,0.1l0,0.5l0.4,0.3l0.7,0.1L344.4,215.3z M344.3,204.4
		l0.3-0.4l0.8-0.8l0.5-1.3l0-0.1l-0.1-0.2l-0.4,0l-0.1,0.2l0.1,0.2l-0.1,0.2l-1.2,1.5l-0.9,0.2l0.1,0.4l0.4,0.3l0.4-0.1L344.3,204.4
		z M345.5,206.1l0.2-1.8l-0.1-0.4l-0.4,0.2l-0.6,0.7l-0.2,0.6l-0.8,0.7l0,0.2l0.5,1.1l0.2-0.1L345.5,206.1z M346.8,199.8l0.6-0.7
		l0.1-1.6l1-0.7l0.7-3.4l-0.2-0.3l-0.2,0.2l-0.4,0.8l-0.2,0.1l-0.9-1l-0.1-0.1l-0.2,0.2l-0.4,2.1l0.1,0.2l0.1,0.1l1.3-0.9l0.2-0.1
		l0.4,0.3l0,0.2l-0.2,0.4l-4.7,3.5l-0.2,0.4l0,0.2l0.4,0.3l0.2-0.1l0.7-0.4l0.3-0.1l1.1,0.6L346.8,199.8z M345.3,195.9l0.3-0.3
		l-0.5-0.6l-0.5-0.1l0,0.4l0.1,0.7l0.4,0.1L345.3,195.9z M347.5,191.2l0.8-4.8l-0.1-0.1l-0.9-0.7l-0.4-0.5l-0.3-0.3l-0.4,0.3
		l0.2,0.9l-0.6,0.4l-0.2,0.2l0.1,0.3l1,0.6l0.5-0.4l0.1,0.1l-1.1,3l0,0.1l1,1.2l0.1,0.1L347.5,191.2z M346.8,201.1l-0.2-0.4
		l-0.1-0.1l-0.4-0.1l-0.1,0.1l0.1,0.3l0.3,0.3L346.8,201.1z M346.1,198.1l0.3-0.4l0.4,0.1l0.1,0.3l-0.3,0.3l-0.3,0.1L346.1,198.1z
		 M347.1,183.1l-0.1-0.4l-0.3,0.1l0.1,0.4L347.1,183.1z M349.6,185.5l-0.1-0.3l-0.9-0.1l-0.4-0.3l-0.1-0.4l0.6-1.3l-0.3-0.2
		l-0.8,1.2l-0.1,0.2l0.2,0.5l0.2,0.4l0.8,0.4l0.6,0L349.6,185.5z M348.2,192.5l-0.1-0.3l-0.3,0.1l0.1,0.3L348.2,192.5z M350.2,188.1
		l0-0.4l-0.5,0l-1.2,0.9l0.1,0.3l0.5,0l0.4,0L350.2,188.1z M350.1,189.7l-0.1-0.2l-0.3,0.1l-0.5,0.5l0,0.4l0.4,0L350.1,189.7z"/>
	<path class="st9" d="M398.5,238.1c-1.4,0-3,0.2-4.3-0.3c-1.4-0.5-2.7-1.4-3.9-2c-2.7-1.5-4.9-4-6.3-6.8c-0.7-1.6-1.3-3.5-1.8-5.2
		c-0.4-1.2-0.9-2.5-1.1-3.9c-0.1-0.4-0.2-0.9-0.1-1.5c0-3.5,0.5-7.1,0.2-10.5c-0.1-1.8-0.4-3.4-0.1-5.1c0.3-1.6,0.9-3.2,1.3-4.8
		c0.6-3.7,1.7-7.1,2.8-10.7c0.6-1.8,1.5-3.2,2.5-4.9c0.7-1.3,1.3-2.9,2.1-4.4c0.9-1.5,1.8-3.1,2.6-4.7c0.7-1.4,1.6-2.4,2.7-3.6
		c1.2-1.2,2.6-2.5,3.7-3.8c1.1-1.3,2-2.7,3.4-3.9c1.3-1.1,2.7-2.4,4.2-3.2c1.6-0.8,3.1-1.6,4.5-2.5c1-0.7,2-1.1,3.1-1.3
		c1.7-0.4,3.5-0.5,5.3-0.8c0.8-0.2,1.4-0.4,2.2-0.6c1-0.2,2,0,3,0c0.7,0.1,1.4-0.2,2-0.1c0.7,0.1,0.9,0.5,1.4,1
		c1.2,0.8,2.3,0.9,3.4,2c0.9,1.3,1.4,2.7,1.8,4.3c0.3,1.1,0.9,2.3,1.1,3.5c0.1,0.6,0.1,1.2,0.1,1.8c-0.1,1.6-0.9,3.4-1.4,4.9
		c-0.9,2.9-3.4,5.9-5.2,8.2c-2,2.5-4.8,4.3-7.7,5.2c-0.4,0.2-0.9,0.4-1.2,0.5c-0.5,0.1-1,0-1.3-1l0-0.1c-0.2-1,0.5-1.8,1.2-2.4
		c2.2-2.3,3.7-5,4.7-8.1c1.1-3.3,1.9-7.5,1.1-10.8c-0.8-3.2-4.2-4.2-7.2-3.5c-3,0.7-5.7,2.9-7.8,5.4l-3,4.4c-1,1.4-2.2,2.8-3.2,4.3
		c-0.9,1.5-1.5,3.1-2.5,4.6c-0.8,1.4-1.7,2.6-2.5,4.1c-1.5,2.9-3,6-3.5,9.2c-0.4,1.7-0.4,3.4-0.9,5.2c-0.5,1.4-1,2.6-1.2,4.1
		c-0.3,3.5-0.5,6.8-0.7,10.3c0,1.4-0.1,2.8,0.2,4.2c0.3,1.9,1.3,3.6,2,5.3c0.3,1,0.4,1.8,1,2.6c0.5,0.6,1,0.9,1.4,1.5
		c1,1.1,1.3,2.4,2.6,3c3.6,2.1,8.3,2,12.7,1c2.8-0.6,5.5-1.8,7.7-2.9c3.2-1.7,6.1-4.5,8.5-7.1c2.3-2.6,4-5.3,5.7-8.3
		c1.3-2.4,2.3-5,3.3-7.6c0.3-0.9,0.6-1.7,0.8-2.6c0.1-0.5,0.2-1.7,0.5-2.1c0.2-0.2,0.4-0.2,0.8-0.3c1.9-0.4,2.7,0.1,2.8,1.1
		c0.3,1.7-1.2,4.8-1.5,6.1c-0.8,3.4-2.5,5.9-4,9.1c-0.6,1.3-0.8,2.9-1.7,4.2c-0.8,1.1-1.8,1.7-2.5,3.1c-0.3,0.7-0.5,1.5-0.9,2.1
		c-0.5,0.6-1,0.9-1.5,1.4c-1.1,1.1-2,2.2-3.2,3.2c-1.3,1.2-2.6,2.5-4,3.6c-1.4,1.3-2.7,1.7-4.4,2.4c-1.6,0.6-3.3,1.4-4.9,2.1
		c-1.5,0.7-3,1.8-4.7,2.2C405.3,238.6,401.8,238.3,398.5,238.1z M388.3,209.6l-0.4-0.4l0-0.2l0.2-0.2l1-0.7l0-0.4l-0.1-0.1l-0.5,0.4
		l-0.6,0.3l-0.7-0.1l0.2-0.9l-0.1-0.1l-1.8-0.5l-0.9,0.2l-0.8-0.9l-0.1-0.3l0.1-0.1l0.5,0l0.5,0.4l0.9,0.3l0.9-0.2l0.7-0.5l0.1,0.1
		l0.7,0.8l0.4,0l0.2-0.2l0.1-0.2l-0.2-0.9l0.2-0.1l0.5,0l-0.1,0.7l0.3,0.4l0.2-0.1l0.2-0.2l0.2-0.3l0-1.4l-0.7-1.1l-0.2-0.1
		l-0.2,0.1l-0.6,0.6l-0.2,0.1l-2.8-0.8l0-0.2l0.1-0.5l-0.1-0.2l-1.5-0.5l-0.2,0.1l-0.2,0.2l-0.2,0.4l0,0.5l0.9,1.2l0,0.2l-0.2,0.4
		l-0.7,0.5l-0.1,0.2l0.2,1.7l0.5,0.6l-0.6,0.6l0.3,0.3l0.9,0l0.4-0.8l0.1,0l0.5,0l0.1,0.2l-0.9,1.6l-1,0.7l0,0.1l0.3,0.3l0.1,0.1
		l0.2-0.1l2-2.1l0.4,0.1l0.8,1l0.7,0.2L388.3,209.6z M389.9,202.4l-0.1-0.2l-1-0.7l0-0.2l0.6-1.2l0.3-0.3l0.1,0.1l0.2,0.8l0.4,0
		l0.7-2.6l-0.3-0.2l-0.4,0.1l-0.2-0.4l0.2-1l-2.3-1.1l0.2-0.6l0-0.2l-0.4-0.5l0.1-0.1l0.2,0.1l1.4,1.6l1.4,0.6l0.4-0.1l0.4-0.3
		l0.1-0.1l-0.1-0.4l-0.5,0.1l-0.9-0.5l0.2-0.6l-0.2-0.3l-1.2-0.5l-0.9-1.8l-0.8-0.6l-0.3,0.3l0.1,0.3l0.5,0l0,0.4l-0.6-0.2l-0.3,0.2
		l-0.1,0.2l0.1,0.3l0.6,0.4l0,0.2l-0.6,0.5l-0.2-0.5l-0.4,0.1l-0.4,0.4l-0.1,0.2l0.1,0.2l1.2,0.8l0.5,1.2l-0.1,0.2l-0.4,0.1
		l-0.5-1.2l-0.3,0.1l-0.2,0.4l0.1,0.6l0.7,1.2l-0.1,0.1l-1.2,0.3l-0.1,0.1l0,0.5l0.8,0.8l0.2-0.1l1-1.4l0.4-0.1l1.6,0.3l0.4,0.4
		l0,0.4l-0.2,0.2l-1.2,0.2l-0.2,0.2l-0.2,0.5l-0.2,0.2l-2.3-0.6l-0.2,0.1l-0.7,1.1l0.1,0.4l0.9-0.1l0.2,0.1l0.5,1.3l0.5,0.4l0.5,0
		l0-0.5l-0.5-0.6l0-0.2l0.1-0.2l0.4-0.2l0.1,0.1l0.8,1.3l1.8,0.3L389.9,202.4z M385.3,195.2l-0.1-0.3l-0.4,0l-0.4,1l0.3,0.2
		L385.3,195.2z M384.7,204.9l-0.1-0.4l0.2-0.3l0.6,0.1l0.7,0.6l0.6-0.4l0,0.2l-0.5,0.8L384.7,204.9z M385.5,212.4l1.7-1.7l-0.1-0.2
		l-0.3,0.1l-0.4,0.6l-0.6,0.4l-0.2,0.1l-0.3-0.3l-0.4-0.1l0,0.4l0,0.9l0.2,0.1L385.5,212.4z M391.3,230.6l0.1-0.2l0-1.1l-0.2-0.4
		l-0.2,0.1l-0.7,0.5l-1-0.6l-0.5-1.1l-0.6-0.3l-0.2-0.3l-0.1-0.4l0.2-0.9l-0.9-0.5l-0.2,0.1l-0.8,1.2l0,1.1l0.3,0.2l0.7-0.8l0.3,0.2
		l1.1,2.2l1.1,0.4l-0.1,0.7l0,0.1l1.2,0.2L391.3,230.6z M386.7,189.5l-0.3,0.1l0.1,0.3l0.3-0.1L386.7,189.5z M388,187.3l-0.1-0.2
		l-0.4,0.1l-0.3,0.4l-0.3,0.8l0.1,0.3l0.2,0.1L388,187.3z M387.3,223.9l-0.5,0l0.1,0.4l0.3-0.1L387.3,223.9z M392.3,193.7l0-0.7
		l-0.1-0.1l-2.2-0.6l0-0.1l0.7-0.6l-0.2-0.4l-0.7-0.6l0.1-0.7l-0.1-0.2l-1.4-1l-0.3,0.1l-0.5,0.7l0.1,0.4l1.8,1.7l0.1,0.2l-0.4,0.6
		l0,0.1l0.9,0.6l0.7,0.1l1.3,0.9L392.3,193.7z M392,221.9l-0.3-0.4l-0.2,0.1l-0.4,0.8l-0.3-0.2l-0.9-0.7l0-0.2l1.2-2.2l-0.1-0.4
		l-0.2-0.3l-0.4-0.4l-0.4,0l-0.2,0.3l0.6,0.8l0,0.1l-1.7,2.3l-0.9,0.3l-0.2,0.3l0,0.2l0.3,0.3l1-0.5l0.4-0.1l1.7,1.4l0.1,0
		L392,221.9z M388.6,223.8l0.2-0.4l-0.3-0.2l-0.4,0.2l-0.1,0.5l0.4,0.1L388.6,223.8z M388.4,196.9l-0.2-0.3l0.2-0.2l0.1,0.2l0.2,0.3
		l-0.1,0L388.4,196.9z M388.6,220.8l0.3-1.6l-0.5-0.1l-0.2,1.7l0,0.1l0.2,0.1L388.6,220.8z M393.7,229l-0.1-1.3l0.1-0.1l0.2-0.2
		l1.3-0.3l0.2-0.4l-0.2-0.3l-0.6-0.3l-0.1-0.2l0.1-0.7l-0.1-0.1l-0.6-0.1l-0.1-0.2l-0.1-0.7l-1.9,1.1l-0.3-0.2l1.3-1.4l0-0.1
		l-0.4-0.3l-0.2,0.1l-0.4,0.2l-0.6,1.1l-0.4,0l-0.5-1.6l-0.1,0l-1.5,2l0,0.2l1.6,0l0.3,0.4l-1.3,1.8l0,0.2l0.8,0.4l0.4,0l0-0.4
		l-0.2-0.3l0-0.5l0.2-0.5l0.9,1.4l0.2,0.1l1.1-0.1l0.1,0.2l0,0.6l0.2,0.3l0.3,0.3L393.7,229z M389.2,216.3l0.1-0.1l-0.2-1.1
		l-0.5-0.1l0,0.5l0.1,0.8l0.3,0.2L389.2,216.3z M392.2,192l0.1-0.1l-0.2-0.8l0.7-0.6l0.4-1l0-2.2l-0.7-0.8l0.5-1.8l0.9,0.3l1-0.2
		l0-0.5l-1.4,0l0.3-0.8l0-0.1l-0.9-0.6l-0.2,0.1l-0.5,0.5l-0.2-0.8l-0.3-0.2l-0.2,0.1l-0.9,1.3l-0.1,0l-0.6-0.4l-0.2,0.3l0,0.2
		l-0.6,1.1l-0.2,1.7l0.5,0.9l0.4,0.1l0.2-0.1l0.5-2l0-0.2l-0.6-0.1l-0.1-0.3l0.2-0.2l1.1-0.4l0.5,0.2l-0.3,0.8l0.5,0.4l0.1,1.4
		l-0.8-0.2l-0.2,0.3l0.2,0.3l1.2,0.8l-0.4,0.4l0,0.5l0.3,0.4l0.6,0.3l-0.3,0.3l-0.7-0.3l-0.2,0.1l-0.2,0.4l0.6,1.9l0.2,0.1
		L392.2,192z M390.8,189.5l0.3-0.3l0.1-0.7l-0.4-0.3l-1.4,0.2l-0.2,0.3l0.7,0.9l0.5,0L390.8,189.5z M392.6,180.9l0-0.5l-0.3-0.4
		l-0.4-0.3l-0.3,0.1l-0.9,1l0.2,0.3l0.7-0.4l0.1,0l0.6,0.4L392.6,180.9z M391.5,227.1l0-0.5l0.2-0.3l0.3,0.2l0.1,0.3l-0.2,0.3
		L391.5,227.1z M393.1,231.4l0.2-1.5l-0.6-0.6l-0.5-0.1l0,0.4l0.1,0.3l0,0.6l0.2,0.6l0.4,0.5L393.1,231.4z M395.5,182l0.5-0.1
		l-0.4-2.1l0.2-0.2l1.3-0.6l0.1-0.1l0-0.2l-0.2-0.4l-0.1-0.1l-0.2-0.1l-0.4,0.2l-0.2-0.1l-0.4-0.4l-0.5-0.1l-0.3,0.3l-0.1,0.1
		l0.5,0.6l-0.4,1.4l-0.3,0.2l-0.5,0l-0.6-0.6l-0.1-0.8l-0.5,0l-0.4,0.3l0.1,0.4l0.7,0.1l-0.3,2.4l0.1,0.1l0.2,0.1l1-0.5l0.2,0.1
		l0.3,0.6l0.2,0.1L395.5,182z M394.6,176.4l0.6,0.4l0.3-0.1l-0.1-1l0.2-0.3l0.4,0.1l0.1,0.8l0.2,0.3l0.4-0.1l0-1.2l0.5,0l0.6,0.4
		l0.5,0.1l0.1-0.5l-0.1-0.2l-1.3-0.8l0-0.1l0.6-0.9l0.7,0.2l0.2-0.3l-0.4-0.5l0.5-0.9l0.1,0l1.1,0.8l0.5,0l1-0.5l0.2-0.2l-0.1-0.2
		l-0.8,0.2l-0.4-0.4l-1.6-0.6l-0.4,0.3l-0.8,1.6l-0.2,0.2l-0.2-0.1l0.4-1.5l0.7-0.8l2.1-1.2l2,0.9l0.3-0.2l-0.7-0.9l0-0.2l0.4-0.9
		l0-0.2l-0.1-0.1l-0.2-0.1l-0.6,0l-0.1,0.1l-0.2,0.8l-0.2,0.2l-1.5-0.1l-0.2,0.1l0.1,0.4l-0.1,0.2l-1.1,0.1l-1.1,0.9l-0.2,0.8
		l-0.2,0.2l-0.7,0.2l-0.3,0.4l0.3,0.2l0.2,0.1l0.1,0.1l0.6,1.4l-1.1,0.5l-0.6,0.7l-0.2,0.1l-0.5-0.1l0.2-0.6l-0.1-0.2l-0.3,0.2
		l-1.3,1.9l0.1,0.3l0.7,0.2l0,0.1l-0.1,0.7l0.1,0.4l0.4,0L394.6,176.4z M394,186.3l-0.3-0.4l-0.4-0.1l-0.2,0.1l-0.2,0.3l0.2,0.3
		l0.3,0.3l0.2,0.1L394,186.3z M393.3,226.8l-0.3-0.3l0-0.5l0.1-0.5l0.5,0.2l0.1,0.2l0.1,0.4l-0.1,0.1l-0.3,0.2L393.3,226.8z
		 M398.2,177.2l-0.4-0.1l-0.2-0.1l-0.3,0.2l0.2,0.3l0.1,0.2l0.4-0.1L398.2,177.2z M399.8,176l0.3-1l-0.1-1.2l-0.3-0.3l-0.2-0.1
		l-0.2,0.3l-0.4,1.9l0.3,0.6l0.2-0.1L399.8,176z M400.7,170.7l-0.4-0.3l-0.2,0.4l0.1,0.2l0.4,0L400.7,170.7z M403.4,168.4l0.2-0.4
		l0.1-0.2l-0.1-0.2l-1.7-1.2l-0.4,0.3l-0.3,0.4l0,0.4l0.9-0.2l0.5,0l0.1,0.2l0.5,1.3L403.4,168.4z M404.1,166.4l-0.3-0.5l-0.1-0.4
		l-0.3,0.2l-0.2,0.2l0.1,0.4l0.4,0.4l0.3-0.1L404.1,166.4z M424.8,177.8l0.1-0.1l0-0.5l-0.3,0.3l-0.2,0.4L424.8,177.8z M426.2,176.7
		l0.2-0.3l-0.1-0.4l-0.3-0.2l-0.4,0l-0.3,0.7l0,0.2l0.1,0.2l0.5,0L426.2,176.7z M430.2,168.7l0.1-1.1l0.6-0.3l1.1-1.8l-0.8-0.4
		l-0.1-0.2l0.1-0.5l0.4-0.8l-0.1-0.4l-1.9-2.1l-0.2,0.2l0.4,0.7l-0.1,0.5l-0.3,0.3l-1,0.1l-0.4,0.2l-0.2,0.1l-0.4-0.1l-0.1-0.7
		L427,162l-0.6-0.2l-0.2,0.2l0,0.6l0.9,1l0,0.2l-0.3,0.7l0.4,0l0.5-0.4l0.2,0.1l0,0.9l1.8,0.9l0,0.2l-0.4,2.4l0.4,0.3L430.2,168.7z
		 M427.5,175.4l0.2-0.4l-0.1-0.2l-0.4-0.1l-0.7,0l-0.2,0.4l0.4,0.3l0.6,0.2L427.5,175.4z M427.4,173.1l-0.1-0.6l-0.4-0.3l-0.4,0
		l-0.2,0.3l0.6,1l0.3-0.1L427.4,173.1z M427.7,167.7l0-0.2l-0.9-1.3l-0.2,0.1l0.1,1l0.3,0.5l-0.1,1.4l0.2,0.1L427.7,167.7z
		 M427.8,161.6l-0.1-1.1l-0.3-0.2l-0.2-0.1l-0.4,0.3l-0.1,0.1l0.6,1L427.8,161.6z M430,171.4l1.4-3l-0.4-0.1l-1,1.6l-0.2,0.2
		l-1.4-0.1l-0.6-0.3l-0.2,0.1l-0.8,1.4l0,0.2l0.3-0.1l0.8-0.8l0.6,0.1l0.4,0.1l0.2,0.6l-0.1,0.1l-1,0.1l-0.1,0.2l0.2,0.3l0,0.4
		l0.2,0.3l0.3-0.1L430,171.4z M429.6,165.2l-0.8-0.5l0-0.2l0.8-1.1l1.2,0.8l-0.9,1L429.6,165.2z M430,164.4l-0.1-0.3l-0.4,0.1
		l0.2,0.3L430,164.4z M430.7,166.3l-0.2-0.3l0.1-0.2l0.3-0.1l0.1,0.1l0,0.4l-0.1,0.1L430.7,166.3z"/>
	<path class="st9" d="M442.6,225.6c-1.2-0.4-2.6-0.8-3.5-1.8c-1.1-0.9-1.7-2.3-2.5-3.4c-1-1.5-2-2.9-2.4-4.9c-0.2-1.1-0.1-2.3,0-3.5
		c0.1-1.4,0.2-3,0.4-4.4c0.2-1.6,0.9-3.5,1.2-5s1-2.9,1.4-4.3c0.3-1.5,0.6-3,1.4-4.3c0.7-1.3,1.4-2.4,2.2-3.7
		c0.4-0.4,0.3-0.8,0.6-1.2c0.2-0.5,0.8-0.8,1.2-1.2c0.9-1.4,1.7-2.8,3-3.9c1.1-1.1,2.2-2.3,3.5-3.1c1.5-0.8,2.9-1.6,4.4-2.3
		c0.7-0.4,1.6-1,2.3-1.1l1.7-0.4c0.3-0.2,0.6-0.3,1-0.4c1.3-0.3,2.7-0.2,4.2,0.2c1.3,0.4,2.5,1.1,3.5,1.9c1.2,1,2.1,2.6,2.7,4.1
		c0.3,0.6,0.6,1.4,1,2.1c0.5,0.7,0.5,1.4,0.7,2.2c0,0.7-0.1,1.4-0.1,2.2c0.1,0.8,0.3,1.5,0.3,2.3c0,1.5,0.1,3.1-0.1,4.6
		c-0.1,1.4-0.3,2.8-0.6,4.1c-0.1,0.6-0.6,1.9-0.5,2.7c0.2,1.2,0.9,2,1.7,1.8c1.8-0.4,4.3-3,5.2-4.2c0.9-1,1.5-2,2.2-3.2
		c0.3-0.7,0.7-1.3,0.9-2c0.2-0.5,0.9-2,1.1-3.3c0-0.5,0.4-0.8,0.8-0.9c0.7-0.2,1.3,0.4,2,0.8c0.5,0.5,1,0.7,0.8,1.4
		c-0.7,3.1-1.2,3.8-1.9,5.1c-1.1,2.4-3.3,6.3-5.3,8.1c-1.1,0.9-2.2,1.4-3.3,2.2c-1.2,0.9-2.5,1.6-3.9,2.2c-1.3,0.5-2.7,0.9-3.8,1.1
		c-1.2,0.4-1.7,1.2-2.2,2.4c-1.1,2.3-3,4.6-4.9,6.2c-2.2,1.9-5.4,4.1-8.1,5.1c-0.3,0.2-0.8,0.3-1.1,0.4
		C447.5,227,444.9,226.2,442.6,225.6z M440.3,197.3l0.1-0.7l-0.3,0.1l-0.1,0.1l-0.2,0.4l0,0.2l0.3,0.3L440.3,197.3z M441.7,200.8
		l0.1-0.6l-0.5-0.4l-0.3,0.1l-0.5,0.5l-0.1,0.8l0.1,0.2l0.7,0L441.7,200.8z M442.1,197.2l0.1-0.5l-0.4-0.1l-0.2,0.2l-0.4,0.2l0,0.5
		l0.1,0.2l0.4-0.1L442.1,197.2z M443.9,194.8l1.1,0.2l0.2-0.5l0-0.5l-0.2-0.3l-0.4,0l-0.3,0.3l-0.2,0.1l-1.1-0.6l-0.5,0.5l-0.5,0.1
		l-0.1,0.2l0.7,0.2l0,0.2l0,0.6l0.3,0.2L443.9,194.8z M443,192l0-0.2l-0.4-0.1l-0.5,0.9l0,0.2l0.3,0.2L443,192z M446.4,193.2
		l0.2-0.2l0-0.5l-0.8,0.3l-0.1-0.8l1.7-2.3l0.1,0.2l0.3,1.1l0.5,0.4l0.1,0.2l-0.1,0.6l0.5,0l0.2-0.2l0.1-1l0.4-0.1l0.5,0.8l0.6,0.2
		l0-0.4l-0.2-1.4l0.1-0.1l0.3-0.3l0.1-0.6l-0.1-0.6l-0.2-0.1l-1.5,1.7l-0.4,0.2l-0.1-0.3l0-0.7l0-0.2l-0.1-0.2l-0.8-0.2l-0.6-0.8
		l-0.2,0.3l-0.5,1.3l-0.4,0.3l-0.5,0.1l-1.1-0.3l-0.6,1l0.1,0.2l1.1,0.6l0.1,0.2l-0.1,1l0.1,0.2l0.1,0.1l0.5,0.1l0.3,0.3
		L446.4,193.2z M455.8,214.6c0.6-1,1-2,0.9-2.8c-0.2-0.9-1.4-1.5-1.9-2.4c-1.1-1.6-2.1-3.3-3.1-4.9c-0.5-0.8-0.5-1.8-0.8-2.5
		c-0.3-1.2-0.6-2.3-0.9-3.6c-0.2-0.9-0.2-1.8-0.4-2.9c-0.1-0.8-0.3-1.7-1.3-1.5c-0.8,0.2-1.3,1-1.5,1.7c-0.5,1.1-0.6,2.5-0.8,3.4
		c-0.3,1.1-0.8,2.4-0.9,3.6c0,0.5,0.1,1,0,1.7c-0.1,0.6-0.4,1.3-0.4,1.7c-0.2,1.2,0,2.4-0.2,3.6c0,0.5,0.2,1.7,0.1,2.8
		c0,0.9,0,1.9,0,2.2c0.2,0.4,0.3,0.9,0.5,1.3c0.3,0.9,0.6,1.7,1.3,2.4c1.1,0.9,2.4,1.1,3.7,0.8C452.3,218.7,454.5,216.6,455.8,214.6
		z M446.2,187.1l-0.3-0.2l-0.6,1l0,0.2l0.1,0L446.2,187.1z M464,169c-0.9-0.6-2-1.3-2.9-2c-0.8-0.5-1.6-1.1-2.5-1.6
		c-0.6-0.3-1.2-0.3-1.6-0.2c-0.7,0.2-1.2,0.5-1.7,1.2c-1.7,1.7-3,3.8-4.7,5.5c-0.9,0.9-1.9,2.2-2.9,2.4c-0.5,0.1-1.2-0.1-1.7-1.1
		c0-0.2-0.2-0.3-0.2-0.5c-0.1-0.7,0.3-1.1,0.8-1.8l2.6-3.6c1.5-2,2.9-4,4.1-6c0.7-1.1,1.3-2.2,1.9-3.4c0.7-1.1,1.3-3,2.6-3.3
		c1.7-0.4,2.8,2.3,3.6,3.5c0.8,1.1,1.5,2.2,2.4,3.3l2.6,3.3c0.6,0.8,1.8,1.7,2,2.7c0.2,1.4-1,2.6-2,2.8
		C465.5,170.3,464.9,169.5,464,169z M448.8,185.4l0.2-0.5l-0.3-0.3l-0.3,0.1l-0.2,0.3l0.1,0.3l0.4,0.1L448.8,185.4z M450.1,187.8
		l-0.1-0.3l-0.4-0.3l-0.3,0.3l0.2,0.3l0.3,0.3L450.1,187.8z M450.8,184.5l0.2-0.2L451,184l-1.1-0.2l-0.2,0.3l0,0.2l0.9,0.3
		L450.8,184.5z M460,204.3c0.6-1,1.4-4.1,1.7-5.6c0.4-1.9,0.8-4.1,0.7-5.9c0-1.8,0.1-3.8-0.2-5.5c-0.2-1-0.1-2-0.3-2.9
		c-0.1-0.6-0.3-1.2-0.8-1.8c-0.9-1.2-2.1-2-3.6-1.6c-1.8,0.4-3,2.1-3.6,3.9c-0.7,1.9-0.6,4.1-0.9,6.2c-0.2,1,0.3,2.3,0.5,4l0.6,3.3
		c0,0.2,0.1,0.4,0.1,0.7c0.1,0.4,0.2,0.9,0.4,1.3c0.5,0.8,1,1.8,1.6,2.6c0.7,0.9,1.5,2.2,2.6,2C459.1,204.9,459.6,204.8,460,204.3z
		 M454.2,165.3l-0.1-0.4l-0.3,0.1l-0.1,0.1l0,0.4l0.2,0.1L454.2,165.3z M456.6,162.9l0.6,0.6l1.5-0.9l0.8-1.9l-0.3-0.2l-1.8,1.6
		l-0.5,0.1l-0.5,0l-0.2-0.3l0.1-0.2l0.6-0.3l0.3-0.3l-0.4-0.3l-0.4-0.1l-0.2-0.1l-2.2,3.1l0.3,0.3l0.4,0.1l0.5,0L456.6,162.9z
		 M456,206.9l0.1-0.1l-0.2-0.4l-0.3-0.2l-0.3,0.3l0,0.5l0.4,0L456,206.9z M457.5,209.5l0.1-0.5l0-0.2l-0.6-0.3l-0.2-1.2l-0.1-0.2
		l-0.4,0l-0.1,0.2l0.2,1.2l0.5,0.9l0.4,0.1L457.5,209.5z M458.4,158.8l-0.1-0.6L458,158l-1.2,1.6l0.3,0.3L458.4,158.8z M460.4,207.5
		l0-0.5l-0.3-0.2l-1,0l-0.5,0.6l-0.3,0.1l-0.5-0.5l-0.3,0.2l0,0.4l0.2,0.4l0.3,0.3l0.6,0.1L460.4,207.5z M458.9,216l0.4-0.6
		l-0.7-0.6l-0.2,0.2l-0.4,0.6l0.2,0.3l0.3,0.2L458.9,216z M461.7,212.9l0.6-1.2l-0.1-1l-0.8-1.1l0-0.5l0.2-0.1l0.6,0.1l0.2-0.1
		l0.9-2.1l0-0.2l-0.4-0.5l0.1-0.1l0.6,0.1l0.1-0.2l0-0.2l-0.7-0.9l-1.3-0.1l-0.1,0l-0.2,0.9l-0.4,0.6l-0.1,0.6l0.2,0.6l0.3,0.2
		l0.8-0.2l0.2,0.3l-0.1,0.2l-0.1,0.1l-1.8,0.5l-0.6-0.1l-0.9,0.3l-0.8,1l0.9,1.1l0.2-0.2l-0.1-1.2l0.2-0.2l0.3-0.1l1,0.6l-0.6,1.1
		l-0.4,0.1l-0.2,0.2l0,0.5l0.1,0.2l1.6,1l0.2-0.1L461.7,212.9z M460,164l0.3-0.4l-0.1-0.3l-0.2-0.4l-0.4-0.1l-0.4,0.3l0.4,1.2
		L460,164z M460.4,216.4l0-0.4l-0.3-0.2l-0.4,0.1l0.1,0.4l0.2,0.1L460.4,216.4z M460.3,161.8l-0.1-0.4l-0.4,0.2l0.1,0.3L460.3,161.8
		z M464.3,165l-0.5-0.4l-2.8-0.2l-0.3,0.3l-0.1,0.1l1.1,0.7l2.5-0.4L464.3,165z M463.2,163.6l0.1-0.2l-2-1.1l-0.3,0.1l-0.1,0.1
		l-0.1,0.2l0.2,0.3l1.6,0.7l0.4,0L463.2,163.6z M461.4,214.1l-0.3-0.2l-0.4,0l0.2,0.3l0.3,0.2l0.4,0L461.4,214.1z M461.1,212.2
		L461,212l-0.1-0.3l0.2-0.3l0.4-0.1l0.1,0.1l0.2,0.3l-0.4,0.6L461.1,212.2z M462.6,203.6l-0.1-0.1l-0.3,0.1l0.2,0.3l0.1,0.1l0.3-0.1
		L462.6,203.6z M465.4,207.1l-0.1-1.5l0.3-0.9l0.4-0.4l0.6-0.3l0.2-1.7l0.1-0.1l0.7-0.4l0.3-0.3l-0.3-0.6l0.2-0.2l0.3-0.2l0.2-0.2
		l0.2-2.5l-0.2-0.1l-1.3,1.6l-0.2,0.1l-0.9-0.7l-0.1-0.8l-1.1-1.9l-0.2,0.1l-0.2,0.4l0.2,1.4l0.5,0.5l-0.1,0.2l-1.1,0.1l-0.1,0.1
		l0.8,1l1.1-0.5l0,0.2l-0.2,0.3L465,200l-0.1,0.1l0,0.2l0.3,0.4l-0.2,0.2l-0.8-0.6l-0.4-0.1l-0.3,0.4l0.6,0.4l0,0.2l0,0.5l-0.9-0.6
		l-0.1,0l-0.4,0.3l-0.1,0.1l0.1,0.4l0.2,0.5l-0.1,0.6l0.1,0.2l0.8,0.8l0.2,0.1l0.4-0.6l0.1-0.2l-0.3-0.4l0.1-0.2l0.2,0.1l0.7,0.7
		l0,0.2l-1.1,3l0,0.2l0.3,0.3l0.2,0.1l0.5,0L465.4,207.1z M463.4,210.7l0.1-0.2l-0.2-0.3l-0.2,0.1l-0.1,0.2l0.1,0.3l0.2,0.3
		L463.4,210.7z M464.2,166.8l0.2-0.2l0-0.4l-0.1-0.2L464,166l-0.1-0.1l-0.4,0.3l-0.2,0.3l0.3,0.3l0.1,0.1L464.2,166.8z M464.6,210.3
		l0.2-0.5l-0.6-2l-0.3-0.2l-0.4,0.6l-0.2,0.6l0.8,1.4l0.2,0.1L464.6,210.3z M464.7,193.1l0-0.4l-0.2-0.1l-0.2,0.3l0.1,0.4
		L464.7,193.1z M465.7,191.2l-0.9-0.3l-0.1,0l0.2,0.3l0.6,0.3L465.7,191.2z M465.9,190l1.1-0.9l-0.1-1.4l0.2-0.5l0-0.2l-0.1-0.1
		l-0.2,0.2l-1,2l-0.6,0.4l0.2,0.3l0.3,0.3L465.9,190z M465.9,193.8l0.4-0.6l0.5-0.1l1-2l0-0.2l-0.1-0.2l-2.2,2.3l-0.2,0.4l0.2,0.6
		l0.1,0L465.9,193.8z M466.9,198.1l1.1-1.4l0-0.4l-1.2-0.2l0-1.4l0.4-0.4l-0.2-0.3l-0.1,0l-1.4,1.8l1,1.2l0,0.2l-0.2,1l0.1,0.1
		L466.9,198.1z M465.8,202.1l-0.1-0.2l0.8-1l0.3,0.2l-0.2,0.3l-0.6,0.7L465.8,202.1z M467,206.8l-0.2-0.3l-0.3,0.2l-0.4,0.4l0,0.2
		l0.3,0.2L467,206.8z M467.5,205.1l0-0.4l-0.3,0.1l-0.2,0.3l0.1,0.3l0.2,0.1L467.5,205.1z M468.3,194.7l0.3-0.4l0.1-0.5l-0.1-0.4
		l-0.1-0.2l-0.4-0.1l-0.4,0.3l0.2,0.5l-0.1,0.2l-0.4,0.3l0.2,0.3l0.2,0.1L468.3,194.7z M468.2,188.9l0.2-0.3l0-0.4l-0.4-0.1
		l-0.2,0.3l-0.1,0.2l0.1,0.4L468.2,188.9z"/>
	<path class="st9" d="M487.4,216.7c-2-0.1-3.5-0.5-5-1.6c-0.8-0.6-1-1.4-1.5-2.2c-0.5-0.8-1-1.4-1.5-2.4c-0.1-0.6-0.3-1.1-0.4-1.7
		c-0.3-1.6-0.2-3.2-0.3-5c0-0.8,0.2-1.6,0.4-2.4c0.2-0.9,0-1.8,0.2-2.6c0.3-2.3,1.3-4.5,1.6-6.8c0.2-1,0.5-1.8,0.8-2.7
		c0.4-1,0.2-2.1,0.4-3c0.2-0.9,0.6-1.8,0.8-2.7c0.4-1.1,0.2-2.3,0.3-3.5c0-0.7,0.5-2,0.4-2.6c-0.1-0.8-0.9-0.7-1.7-1.2
		c-0.8-0.4-2.9,0-3.1-1c-0.1-0.8,0.3-2.3,0.6-2.9c0.3-0.3,0.6-0.5,1.2-0.6c0.5-0.1,1.4-0.1,1.9-0.2l0.4-0.2c0.8-0.3,1.3-1,1.8-1.6
		c1.1-1.6,1.2-3.7,1.5-5.5c0.3-2.1,0.8-3.9,1.2-6.1c0.4-1.9,0.8-4.1,0.5-5.9c-0.1-0.7-0.4-1.6-0.3-2.4c-0.1-1,0.2-2.1,1.1-2.6
		c0.6-0.4,1.4-0.4,2-0.8c0.9-0.6,2-0.6,2.9-1c0.9-0.3,1.9-1.1,2.9-1.4c0.5-0.1,1-0.1,1.5,0.2c0.5,0.2,0.7,0.8,0.8,1.3
		c0.2,1.4-0.2,3.2-0.5,4.4c-0.2,0.9-0.3,1.7-0.4,2.6c-0.1,1.1-0.6,1.8-0.9,2.8c-0.7,1.8-0.6,4-0.9,5.9c-0.4,1.6-1.3,3.1-1,4.6
		c0.3,1.8,1.6,2.3,3,2c0.4-0.1,1-0.4,1.4-0.4l0.5-0.1c0.9,0.1,1.7,0.9,1.8,1.8c0.1,0.4,0,0.9-0.2,1.4c-0.4,0.4-1.2,0.8-2,0.9
		l-0.7,0.2c-0.1,0-0.2,0.1-0.2,0.1c-1.1,0.3-2.1,0.6-3,1.3c-2.3,1.4-2.3,2.7-2.8,5.2c-0.3,2-1.3,4.5-1.5,6.6
		c-0.1,1.2-0.6,2.5-0.6,3.8c-0.1,1.1-0.1,1.9-0.5,3.1c-0.8,2.1-1,4.5-1.2,6.6c-0.1,1.3-0.2,2.8-0.5,4.1c-0.3,1-0.6,1.9-0.4,2.9
		c0.4,2.1,2.2,3.9,4.1,3.5c1-0.2,2.1-1,3.1-1.3c0.7-0.4,2.1-1.6,2.8-2.3c0.8-0.7,1.3-1.4,2.1-2c1-0.7,1.7-1.5,2.3-2.4
		c1-1.5,1.7-3.2,2.7-4.8c0.5-0.8,1.1-1.6,1.4-2.4c0.9-2.3,1.1-3.7,1.5-4.7c0-0.4,0.2-0.5,0.7-0.6c0.3-0.1,1,0.4,1.2,0.4
		c0.6,0.3,1.8,0.6,1.7,1.6c-0.4,2.3-2.2,5.8-3.2,7.9c-0.9,1.7-1.5,3.3-2.3,5c-0.9,1.9-3,4-4,5.8c-0.6,1-1.1,1.7-2,2.2
		c-0.8,0.6-1.4,1-2.1,1.8c-1.7,1.7-3.7,1.9-5.8,2.8c-1,0.4-1.9,0.8-2.8,1C488.8,216.7,488.1,216.7,487.4,216.7z M484,174.3l-0.1-0.4
		l-0.1-0.1l-0.5,0l-0.5,0.2l0,0.1l1,0.4L484,174.3z M488,212.9l0-0.2l-0.2-0.4l0.3-2.3l0.2-0.1l0.3,0.6l0.3,0.3l0.3-0.4l-0.1-0.4
		l-1-0.8l-0.5,0.1l-0.2-0.4l-0.1-0.2l-0.9,0.3l-1-0.2l-0.1-0.2l-0.2-0.4l-0.3-0.2l-1.2,0.2l0.2,0.3l0.6,0.2l0,0.8l0.8,0.2l0.6,1.3
		l0.4,0.1l0.9,0l0.3,0.2l-0.4,0.9l0.2,0.9l0.5,0L488,212.9z M486.4,185.5l0.1-0.2l0-0.7l0.3-0.7l0.1-1.4l0.3-0.3l0.4,0l-0.3,2.1
		l0.3,0.2l1-1.2l0.2,0.1l0.3,0.5l0.1,0.1l0.3-0.2l0.6-2.6l0.6-0.7l0.1-0.2l-0.2-0.4l-0.4,0l-1.1,2.1l-0.2,0.1l-0.9-0.7l0.2-0.8
		l-0.3-0.4l-1.1,0.5l-0.1,0.1l0.1,0.8l-0.1,0.1l-0.2,0.2l-1-0.7l-0.4,0l-0.1,0.2l0.2,1l0.9,0.4l0.2,0.4l0,0.5l-0.8,1.2l0.5,0.9
		l0.2-0.1L486.4,185.5z M487,172.7l0.2-0.3l-0.3-0.2l-1.2-0.1l-0.5,0.4l-0.2,0.6l0.4,0.1l0.4-0.1L487,172.7z M486.4,212.2l0-0.1
		l-0.9-0.7l-0.4,0l0.1,0.4l0.6,0.9l0.2-0.1L486.4,212.2z M485.8,193.9l-0.4,0l-0.2,0.1l-0.1,0.1l0.4,0l0.2,0.1L485.8,193.9z
		 M485.8,179.5l0.2-0.1l1.1,0.2l0.3-0.2l0.7-1.1l0.7,0.2l0.2-0.3l-1.8-1.2l-1.6,0.5l-0.2,0.3l0.1,0.8l-0.4,1.1l0.1,0.3l0.2,0.1
		L485.8,179.5z M487.6,176.4l0.4-0.3l0-0.2l-0.2-0.3l-0.4,0.1l-0.4,0l0.1-0.7l-0.2-0.1l-0.3,0.4l-1.1,0.7l-0.2,0.3l0.3,0.2l0.4-0.2
		l0.2-0.1l1,0.4L487.6,176.4z M486.7,196.2l0-0.5l0.1-0.2l0.4-0.1l0.2-0.3l-1.4-0.6l-0.2,0.3l0.2,0.6l-0.5,0.6l0.6,0.4l0.2-0.1
		L486.7,196.2z M485.9,192.7l0.8-1.2l-0.1-0.3l-0.1-0.1l-0.5-0.1l-0.4,1.7l0.1,0.1L485.9,192.7z M486.4,206.2l-0.3-0.4l-0.4,0
		l0.1,0.4l0.1,0.1l0.4,0L486.4,206.2z M488.2,187.7l0.5-1.2l0.9-0.8l0-0.5l-0.3-0.2l-0.7,0.2l-0.6,0l-0.2,0.4l0.1,0.3l-0.1,0.2
		l-0.7,0.5l-1,0.1l-0.3,0.2l0,0.2l0.3,0.3l0.4-0.2l0.2,0.1l0.9,0.5l0.2-0.1L488.2,187.7z M486.2,178.7l-0.1-0.2l0-0.1l0.2-0.4
		l0.4,0.1l0.1,0.3l-0.1,0.2L486.2,178.7z M486.3,210.2l-0.1-0.4l0.3-0.1l0.1,0.4L486.3,210.2z M487.5,190.3l0-0.5l0.1-0.2l0.4-0.1
		l0.3-0.3l-1.4-0.6l-0.3,0.3l0.2,0.6l-0.5,0.6l0.6,0.4l0.2-0.1L487.5,190.3z M487.1,193.9l0.9-1.5l-0.1-0.3l-0.1-0.1l-0.5,0.1
		l-0.4,1.7l0.1,0.1L487.1,193.9z M490.9,168.6l-0.7-1.1l-0.1-0.8l-1.4-1l-0.2-0.1l-0.2,0.3l0.5,0.6l0.1,0.7l-0.2,0.1l-0.5-0.1
		l-0.1,0.1l2.7,1.6L490.9,168.6z M488.6,164.3l0.2-0.4l-0.1-0.3l-0.1-0.1l-0.2,0.4l-0.1,0.6L488.6,164.3z M488.8,180.9l0.9-1.6
		l-0.1-0.2l-0.2-0.1l-0.3,0.1l-0.2,0.2l-0.1,0.1l-0.1,0.8l-0.2,0.4l0,0.2l0.1,0.2L488.8,180.9z M490.6,178.2l0.5-1.2l0-0.1l-0.5-0.4
		l-0.2,0.1l-0.6,0.4l-0.7-1.5l-0.3,0.1l-0.1,0.6l0.1,0.7l0.6,0.7l1.1,0.7L490.6,178.2z M490.2,173.9l0.3-0.3l-1.5-0.9l-0.4,1.3
		l0.3,0.2l1.1,0L490.2,173.9z M489.1,169l-0.1-0.4l-0.4,0.2l0.1,0.3L489.1,169z M491,172.7l-0.6-0.9l0.2-0.4l0.2-0.1l0.4,0l0.7,0.9
		l0.1,0l1.3-3.2l0.8-0.8l0.1-0.5l-0.5-0.6l0-0.7l0-0.1l-0.3-0.3l-0.2,0.1l-0.3,0.8l-0.3-0.3l-0.3-1.6l0.1-0.2l0.4-0.3l0.5-0.1l0-0.4
		l-0.5-0.2l0-0.7l-0.2-0.4l0-0.2l0.4-0.4l0.1-0.2l0-0.2l-1.2-0.9l-0.2,0.1l-0.9,0.8l-0.3-0.3l0.4-0.8l-1.4-1l-0.2,0.2l0.8,1.1
		l-0.6,1.2l0,0.2l0.3,0.5l0,0.1l-0.4,0.3l-0.1,0.2l0.2,0.6l0.5,0.6l1.2,0.1l0.1,0.2l0,0.2l-0.6,2.3l0.1,0.2l0.8-0.1l0.9,0.7l0,0.4
		l-0.7-0.3l-0.1,0.5l0.1,1.2l0,0.5l-0.2,0.1l-2.7-0.2l-0.2,0.3l0.6,1.5l1.5,0.9L491,172.7z M492.8,211.2l-0.3-0.2l-2.9,0l-0.7,1.1
		l0.2,0.1l3.6-0.5L492.8,211.2z M491,175.6l0.9-1.6l0-0.2l-0.3-0.2l-0.9,1.4l-0.6-0.2l-0.2,0.2l0.7,0.7l0.4,0L491,175.6z
		 M490.6,157.2l-0.1-0.4l-0.5,0L490,157l0.1,0.4l0.4-0.1L490.6,157.2z M490.2,163.3l-0.1-0.6l0.5-0.2l0.5,0.1l0,0.4l-0.7,0.6
		L490.2,163.3z M491.5,163.6l0.2-0.5l0.3-0.1l0.3,0.2l-0.4,0.6l-0.4,0.3L491.5,163.6z M491.6,161.8l0.4-0.1l0.1,0.3l-0.4,0.1
		L491.6,161.8z M494.3,159.7l0.2-0.3l-1.2-0.2l0-0.2l0.3-0.4l0.1-0.2l-0.1-0.6l0.1-0.1l0.5-0.4l0.1-0.2l-0.5-0.5l-0.2-0.1l-1,1.5
		l0,1.5l0.2,0.4l0.4,0.1l0.5,0L494.3,159.7z M495.5,170.7l0.2-0.2l-0.2-0.3l-1.5-0.6l-0.4,0.1l-0.4,0.4l0,0.2l0.3,0.4l0.5,0.4
		L495.5,170.7z M494.2,162.4l-0.1-0.3l-0.4,0l-0.1,0.1l0,0.4l0.4,0.1L494.2,162.4z M494.6,153.2l0.2-0.3l-0.2-0.4l-0.4,0l-0.2,0.3
		l-0.2,0.4l0.4,0.3L494.6,153.2z M494.8,150.6l0.8-1.1l0-0.2l-0.4,0l-0.9,1l0,0.4l0.2,0.1L494.8,150.6z M495.7,169.4l0.2-0.3
		l-0.9-0.7l-0.3,0.2l-0.1,0.2l0.4,0.4l0.5,0.2L495.7,169.4z M497.2,169.9l-0.1-0.4l-0.1-0.1l-0.3,0.1l0.1,0.3l0.1,0.2L497.2,169.9z"
		/>
	<path class="st9" d="M515.3,209.5c-1.2-0.7-2.6-1.1-3.6-2.1c-1.2-1.2-2-2.8-2.9-4.4c-0.8-1.3-1.6-2.8-1.9-4.4
		c-0.3-1.7-0.3-3.5-0.5-5.2c-0.2-1.7,0.4-3.5,0.7-5.2c0.4-1.7,0.6-3.6,1.1-5.4c0.9-3.3,2.4-6.6,4.1-9.7c1.6-3.1,3.3-5.6,6-7.8
		c1.3-1.1,2.9-2.1,4.3-3c0.7-0.4,1.6-1,2.3-1.2l0.4-0.1c0.5-0.1,1-0.1,1.6-0.2c0.9-0.2,1.4-0.7,2.2-0.9c0.9-0.2,1.7-0.3,2.6-0.3
		c1.6,0.1,3.3,0.9,4.3,2.2c1,1.1,1.5,2.6,1.8,4.2c0.3,1.9,0.4,4,0.1,5.9c-0.5,3.4-2,6.8-4.3,9.5c-2.4,2.8-4.6,5.1-8.1,6.4
		c-0.8,0.3-1.5,0.6-2.2,1l-0.5,0.1c-0.5,0.1-1.1,0.1-1.8,0.3c-1.4,0.3-3.1,1-3.6,2.5c-0.2,0.8-0.2,1.6,0,2.5
		c0.2,0.9,0.4,1.8,0.6,2.6c0.5,1.4,1.1,3,2.2,3.9c1.1,1.1,2.8,1.5,4.4,1.2c1.8-0.4,3.7-0.8,5.2-1.6c1.6-0.7,3.1-1.6,4.4-2.6
		c1.5-1.2,2.7-2.8,4.1-4.3c1-1.1,2.1-2.6,2.9-3.9c1.1-1.6,2-3.8,2.8-5.5c0.6-1.3,1.5-3.3,2-5.3c0.1-0.1,0.1-0.1,0.2-0.2
		c0.2-0.1,0.5,0,1,0.2c0.7,0.4,2,1.4,2.2,1.9c0,0.2,0,0.5-0.1,0.6l-0.9,2.9c-0.7,1.8-1,2.7-1.8,4.6c-0.8,1.9-2,3.8-3.2,5.6
		c-2,3.2-4.7,5.9-7.5,8.6c-3.2,3-7.1,5.6-10.6,6.4C522.2,210.1,518.1,210.9,515.3,209.5z M513.2,190.7l0.3-0.4l0-0.2l-1.9-1.2
		l1.6-3.3l0.1-0.1l0.8-0.1l0.4-0.2l-0.4-0.7l0.3-0.3l0.9,0.6l0,0.2l-0.8,1l-0.7,0.4l0,0.2h1.5l0,0.8l1.5,1.3l0.2-0.2l0-0.4l-0.2-0.4
		l-0.8-0.4l-0.2-0.2l0.4-1.5l-1.1-3.4l0.5-1.2l-0.2-0.2l-0.3,0.2l-0.7,0.6l-0.4,0.2l-0.5-0.1l-0.2-0.2l0-0.2l0.3-0.8l-1.1-1.3
		l-0.5-0.1l-0.7,0.2l-0.4,0.3l0.1,0.6l0.4-0.1l0.4-0.3l0.1,0l0.7,0.6l0.2,0.4l0,0.4l-0.6-0.1l-0.3,0.1l-1.5,2.2l0,0.8l-0.1,0.1
		l-0.6-0.1l-0.3,0.1l-0.4,2.4l0.1,0.2l0.4,0.1l0.1,0l0.5-0.7l0.1-1l0.2-0.3l1.1-0.4l0.5-0.5l0.4-0.2l0.2,0.1l0,0.2l-0.6,0.4
		l-0.1,0.1l-1,3.1l-0.8-0.2l-0.8,1.6l2.5,0.6l0.6,0.8l0.1,0.1L513.2,190.7z M511.6,183.4l0-0.5l0.3-0.4l0.3-0.2l0.6,0.3l0.1,0.3
		l-1,0.4L511.6,183.4z M515.6,179.8l-0.1-0.3l-0.6-0.9l0.1-0.1l0.7,0.3l0.3-0.2l0.2-0.3l-0.1-0.4l-0.8-0.4l0.1-0.6l0-0.2l-0.3-0.3
		l0-0.2l0.1-0.1l1.8,1.1l0.2-0.1l0-0.2l-0.7-0.9l0.1-0.7l-0.1-0.1l-0.7-0.1l-0.1-0.4l1.4-1.8l0.6,0.9l0.3-0.1l0.4-1.7l-1.2-0.7
		l-0.2-0.3l-0.3-0.2l-0.3,0.3l-0.4,1l-0.6,0.7l-1,0.4l-0.5,0.5l0,0.2l0.6,0.6l-0.1,1.3l-0.7-0.1l-0.1,0.2l0.2,0.5l-0.1,0.1l-0.2,0.1
		l-0.8-0.4l-0.2,0.2l-0.4,1.7l0.2,0.2l0.4,0.1l0.2-0.1l0.7-0.8l0.4,0.3l0.2,0.3l-0.6,0.7l0.2,0.3l1.2,0.8l0.3,0L515.6,179.8z
		 M514.1,187.7l-0.9-0.6l-0.3,0.1l0.1,0.3l0.3,0.2l0,0.2l0,0.4l0.2,0.2L514.1,187.7z M513.3,182.5l0-0.2l0.2-0.2l0.9,0.4l0,0.4
		l-0.3,0.1L513.3,182.5z M514.8,190.7l-0.1-0.3l-0.4,0.1l0.1,0.3L514.8,190.7z M515.2,188.1l-0.2-0.3l-0.3,0.1l-0.1,0.2l0.3,0.2
		L515.2,188.1z M518.6,205.9l0.1-0.1l0.7-0.5l0.4-0.9l-0.2-0.2l-1.2,0.5l-0.6,1l-0.4,0.1l-0.8-0.2l-0.8,0.3l0.3,0.4l0.3,0.3l2.1,0.2
		L518.6,205.9z M518.4,202.8l0-0.2l-0.2-0.1l-0.7,0.9l-0.6,0.5l0.1,0.4l0.5,0.1L518.4,202.8z M517.8,186.9l0.2-0.3l-0.3-0.3
		l-0.3-0.2l-0.4,0.3l0.1,0.4l0.3,0.2l0.2-0.1L517.8,186.9z M526.2,180.8c1.5-1.7,2.6-3.7,3.2-5.8c0.6-2,0.7-4.1,0.3-6.2
		c-0.4-2.5-1.2-3.7-3.3-3.2c-2.2,0.5-3.2,2.4-4.2,4.3c-1.1,2.1-2.5,4-3.1,6.4l-0.8,3.5c-0.4,1.1-1.1,2.5-0.8,3.7
		c0.3,1.5,1.8,1.7,3.3,1.3C522.9,184.3,524.8,182.4,526.2,180.8z M518.3,188.2l0.3-0.3l-0.3-0.3l-0.3,0.2l-0.2,0.4l0.1,0.1
		L518.3,188.2z M519.7,170l-0.2-0.1l-0.3,0.1l0.2,0.3l0.3,0L519.7,170z M520,208.2l0.1-0.1l0.1-0.2l-0.3-0.9l0.3-0.1l0.7,0.4
		l0.3-0.3l0-0.4l0.2-0.3l1.4-0.3l0.7-0.9l0-0.5l-0.4-0.1l-0.2,0.1l-0.6,0.5l-1.3-1l-0.2,0.1l-1.4,2.9l-0.1,1.3l0.3,0L520,208.2z
		 M519.4,156c-0.1-0.3,0.3-1.1,0.5-1.3c0.5-0.9,1.2-1.7,1.8-2.4c1.2-1.7,2.4-3.2,3.5-4.9c0.8-1.7,1.6-3.3,2.2-5.1
		c0.4-0.9,0.8-3.5,2-3.8c1.2-0.3,2,1.2,2.6,1.7c0.6,0.6,1.1,1.1,1.8,1.7c0.6,0.7,1.1,1.1,1.7,1.7c0.4,0.5,0.7,0.8,0.8,1.4
		c0.2,1.1-1.4,2.1-2.2,2.8l-2,1.5c-1.5,1.2-3,2.4-4.5,3.7l-4.6,3.6c-0.4,0.3-1,0.8-1.6,1C520.4,157.7,519.5,156.9,519.4,156z
		 M523.2,207.6l-1.1-0.4l-0.3,0.2l-0.1,0.2l0.3,0.2l1.3,0.1L523.2,207.6z M524.7,207.2l0-0.1l-0.2-0.2l-0.9-0.5l-0.1,0.1l0,0.2
		l0.9,0.5L524.7,207.2z M524.5,152.9l0-0.5l-0.3-0.3l-0.3,0l-0.2,0.3l0.2,0.5l0.3,0.3L524.5,152.9z M524.9,204.2l0.2-0.4l-0.2-0.2
		l-0.2-0.1l-0.2,0.1l-0.2,0.2l0.1,0.4l0.2,0.1L524.9,204.2z M525.7,151.9l-0.4-0.9l-0.5-0.4l-0.2,0.4l0,0.4l0.6,0.6l0.3,0
		L525.7,151.9z M525.8,205.1l0.2-0.3l-0.2-0.2l-0.3,0.1l-0.3,0.2l0.2,0.3L525.8,205.1z M527.7,150.5l0.2-0.3l-0.3-0.5l0-0.5l0.5-0.7
		l-0.1-0.7l-0.2-0.3l-0.9,0.6l-0.5,1.5l0.6,1l0.2,0.1l0.2-0.1L527.7,150.5z M528.9,204.2l-0.9-1.1l-0.1-0.1l-0.2-0.1l-0.2,0.2
		l-0.5,1.2l0,0.2l0.2-0.1l0.6-0.4l0.2-0.1l0.8,0.3L528.9,204.2z M528.3,146.3l0.1-0.1l-0.1-0.3l-0.1,0l-0.2,0.2l-0.2,0.3l0.2,0.2
		L528.3,146.3z M529.1,148.6l0.2-0.6l0.1-0.1l0.6-0.4l0.3-0.4l0-0.5l-0.2-0.2l-0.2,0.1l-0.2,0.5l-0.2,0.2l-0.7,0.2l-0.1,0.1
		l-0.1,0.5l0.2,0.8L529.1,148.6z M529.8,145.3l0.3-0.3l-0.7-1.1l-0.4,0.2l0,0.4l0.5,0.9L529.8,145.3z M529.9,181.7l0.8-0.8l0.2-0.1
		l0.6,0.1l0.1-0.1l0.1-0.2l0-0.2l-0.2-0.2l-0.1-0.1l-2.2,1.3l0.1,0.3l0.5,0L529.9,181.7z M530.9,179.1l-1.1-0.2l-0.3,0.3l0.2,0.2
		l1.2,0.1L530.9,179.1z M530.8,143.3l-0.1-0.6l-0.3-0.3l-0.5,0l0,0.5l0.4,0.7l0.3,0L530.8,143.3z M532.4,179.1l0.5-0.7l0.3-1.1
		l0.9,0.1l0.3-0.2l-0.4-0.7l1.2-1.2l-0.7-0.8l0.2-0.3l0.3-0.1l0.4-0.2l0.1-0.1l-1-0.8l-0.2,0.1l-0.9,1.5l-0.4,0.2l-1.7,0.2l-0.2,0.2
		l0.1,0.4l1.1,0.1l0.3,0.2l-0.2,0.3l-1.6,0.2l-0.2,0.3l0.3,0.3l0.1,0.1l1.4-0.1l0.3,0l-0.1,0.2l-1.2,0.6l-1.2-0.1l0.2,0.4l0.1,0.1
		l0.7,0.2l0.9,0.7L532.4,179.1z M531.8,163.6l0-0.2l-0.1-0.1l-0.8,0.1l-0.2,0.1l0,0.2l0.1,0.1l0.8,0L531.8,163.6z M533,146.3
		l0.1-0.1v-1.3l-0.2-0.2l-1.2-0.5l-0.8,2.1l0.3,1L533,146.3z M532.3,174.3l0.9-1.5l0.5-0.2l0.5-0.7l1.1,0.9l0.2-0.1l0.5-0.6l0.5-2
		l-0.2-0.3l-0.2,0.1l-0.1,0.2l0.1,0.3l-0.1,0.2l-0.8,0.8l-0.9-1l-1.4,0.3l-0.2-0.1l-0.4-1.2l-0.3,0l0,1.9l0.4,0.1l0.6,0.1l0.2,0.2
		l-0.1,0.2l-0.2,0.1l-0.7-0.3l-0.3,0.2l0.1,0.4l0.5,0.8l-0.4,0.6l0,0.1l0.3,0.3L532.3,174.3z M531.9,146.3l-0.2-0.3l0.6-0.7l0.1,0
		l0.3,0.3l0,0.5l-0.1,0.1l-0.4,0.2L531.9,146.3z M536,168.4l0-0.4l-0.2-0.1l-0.4,0.4l-0.2-0.1l0-0.4l0.6-1.4l0.1-0.2l-1-1.1
		l-0.4,0.3l-0.1,0.2l0,0.2l0.6,0.9l-0.1,0.1l-1.5,0.6l-0.2-0.1l-0.4-0.4l-0.2,0.1l-0.2,0.5l-0.4,0.3l-0.2,0.3l0.4,0.1l0.8-0.2
		l0.5,0.9l1,0.7l0.2-0.1L536,168.4z M533.1,165.9l0.2-0.4l0.1-0.2l-0.1-0.4l-0.3-0.3l-0.3,0.7l-0.2,0.2l-0.6,0l0,0.5l0.8,0.2
		L533.1,165.9z M534.1,169.1l0-0.1l0.1-0.2l0.2-0.1l0.2,0.2l-0.1,0.2l-0.1,0L534.1,169.1z M535.1,164.3l-0.3-0.3l-0.3,0l-0.1,0.1
		l0.2,0.3l0.2,0.1l0.4,0.1L535.1,164.3z"/>
</g>
</svg>
