<?xml version="1.0" encoding="utf-8"?>
<!-- Generator: Adobe Illustrator 19.2.1, SVG Export Plug-In . SVG Version: 6.00 Build 0)  -->
<!DOCTYPE svg PUBLIC "-//W3C//DTD SVG 1.1//EN" "http://www.w3.org/Graphics/SVG/1.1/DTD/svg11.dtd">
<svg version="1.1" id="Layer_1" xmlns="http://www.w3.org/2000/svg" xmlns:xlink="http://www.w3.org/1999/xlink" x="0px" y="0px"
	 width="64px" height="64px" viewBox="0 0 64 64" style="enable-background:new 0 0 64 64;" xml:space="preserve">
<style type="text/css">
	.st0{fill:#FFFFFF;}
</style>
<g>
	<path class="st0" d="M52,28.8L36.8,61c-0.9,1.8-2.8,3-4.8,3s-3.9-1.1-4.8-3L12,28.8c-1.1-2.3-1.4-4.9-1.4-7.5C10.7,9.5,20.2,0,32,0
		s21.3,9.5,21.3,21.3C53.3,23.9,53,26.5,52,28.8z M32,10.7c-5.9,0-10.7,4.8-10.7,10.7S26.1,32,32,32s10.7-4.8,10.7-10.7
		S37.9,10.7,32,10.7z"/>
</g>
</svg>
