<?xml version="1.0" encoding="utf-8"?>
<!-- Generator: Adobe Illustrator 19.2.1, SVG Export Plug-In . SVG Version: 6.00 Build 0)  -->
<!DOCTYPE svg PUBLIC "-//W3C//DTD SVG 1.1//EN" "http://www.w3.org/Graphics/SVG/1.1/DTD/svg11.dtd">
<svg version="1.1" id="Layer_1" xmlns="http://www.w3.org/2000/svg" xmlns:xlink="http://www.w3.org/1999/xlink" x="0px" y="0px"
	 width="64px" height="64px" viewBox="0 0 64 64" style="enable-background:new 0 0 64 64;" xml:space="preserve">
<style type="text/css">
	.st0{fill:#FFFFFF;}
</style>
<g>
	<path class="st0" d="M62.6,56.9c-1,2.2-3.5,3.7-5.5,4.8c-2.7,1.5-5.4,2.3-8.5,2.3c-4.2,0-8-1.7-11.9-3.1c-2.8-1-5.5-2.2-8-3.8
		C21,52.3,11.7,43,6.9,35.3c-1.5-2.5-2.8-5.2-3.8-8C1.7,23.5,0,19.6,0,15.4c0-3,0.9-5.8,2.3-8.5c1.1-2,2.6-4.6,4.8-5.5
		C8.6,0.7,11.8,0,13.5,0c0.3,0,0.6,0,1,0.1c1,0.3,2,2.5,2.4,3.5c1.5,2.6,2.9,5.2,4.4,7.8c0.7,1.2,2.1,2.6,2.1,4
		c0,2.8-8.2,6.8-8.2,9.3c0,1.2,1.1,2.8,1.8,3.9c4.6,8.3,10.3,14,18.6,18.6c1.1,0.6,2.7,1.8,3.9,1.8c2.5,0,6.5-8.2,9.3-8.2
		c1.4,0,2.9,1.4,4,2.1c2.5,1.5,5.2,2.9,7.8,4.4c0.9,0.5,3.1,1.5,3.5,2.4c0.1,0.3,0.1,0.6,0.1,1C64,52.2,63.3,55.4,62.6,56.9z"/>
</g>
</svg>
