<?xml version="1.0" encoding="utf-8"?>
<!-- Generator: Adobe Illustrator 24.3.0, SVG Export Plug-In . SVG Version: 6.00 Build 0)  -->
<svg version="1.1" id="Layer_1" xmlns="http://www.w3.org/2000/svg" xmlns:xlink="http://www.w3.org/1999/xlink" x="0px" y="0px"
	 viewBox="0 0 144 144" style="enable-background:new 0 0 144 144;" xml:space="preserve">
<style type="text/css">
	.st0{fill:none;stroke:#000000;stroke-linecap:round;stroke-linejoin:round;stroke-miterlimit:10;}
</style>
<path class="st0" d="M107.45,96.925h3.7c2,0,3.65-1.65,3.65-3.65v-54.55H29.2v54.55c0,2,1.65,3.65,3.65,3.65h6.9"/>
<path class="st0" d="M114.8,38.725v-5.25c0-2-1.65-3.65-3.65-3.65h-78.3c-2,0-3.65,1.65-3.65,3.65v5.2"/>
<path class="st0" d="M40.3,35.155c-0.485,0-0.88-0.395-0.88-0.88s0.395-0.88,0.88-0.88s0.88,0.395,0.88,0.88
	S40.785,35.155,40.3,35.155z"/>
<path class="st0" d="M40.3,34.568c-0.162,0-0.293-0.132-0.293-0.293s0.131-0.293,0.293-0.293s0.293,0.132,0.293,0.293
	S40.462,34.568,40.3,34.568z"/>
<path class="st0" d="M35.1,35.155c-0.485,0-0.88-0.395-0.88-0.88s0.395-0.88,0.88-0.88s0.88,0.395,0.88,0.88
	S35.585,35.155,35.1,35.155z"/>
<path class="st0" d="M35.1,34.568c-0.162,0-0.293-0.132-0.293-0.293s0.131-0.293,0.293-0.293s0.293,0.132,0.293,0.293
	S35.262,34.568,35.1,34.568z"/>
<path class="st0" d="M45.5,35.155c-0.485,0-0.88-0.395-0.88-0.88s0.395-0.88,0.88-0.88s0.88,0.395,0.88,0.88
	S45.985,35.155,45.5,35.155z"/>
<path class="st0" d="M45.5,34.568c-0.162,0-0.293-0.132-0.293-0.293s0.131-0.293,0.293-0.293s0.293,0.132,0.293,0.293
	S45.662,34.568,45.5,34.568z"/>
<path class="st0" d="M99.75,75.475H84.5c-1.75,0-3.15,1.4-3.15,3.15v38.4c0,1.75,1.4,3.15,3.15,3.15h15.25
	c1.75,0,3.15-1.4,3.15-3.15v-38.4C102.95,76.875,101.5,75.475,99.75,75.475z"/>
<path class="st0" d="M90.65,70.975v-22.35c0-0.772-0.628-1.4-1.4-1.4h-42.1c-0.772,0-1.4,0.628-1.4,1.4v62.1
	c0,0.772,0.628,1.4,1.4,1.4h29.7"/>
<polyline class="st0" points="88.108,75.475 88.759,77.058 95.474,77.058 96.125,75.475 "/>
</svg>
