<?xml version="1.0" encoding="utf-8"?>
<!-- Generator: Adobe Illustrator 24.3.0, SVG Export Plug-In . SVG Version: 6.00 Build 0)  -->
<svg version="1.1" id="Layer_1" xmlns="http://www.w3.org/2000/svg" xmlns:xlink="http://www.w3.org/1999/xlink" x="0px" y="0px"
	 viewBox="0 0 144 144" style="enable-background:new 0 0 144 144;" xml:space="preserve">
<style type="text/css">
	.st0{fill:none;stroke:#000000;stroke-miterlimit:9.9998;}
	.st1{fill:none;stroke:#000000;stroke-linecap:square;stroke-linejoin:bevel;stroke-miterlimit:9.9998;}
</style>
<path class="st0" d="M60.5,89.536L75.588,41.88l7.912,2.484L68.412,92.02L60.5,89.536z"/>
<g>
	<path class="st1" d="M49.92,89.904l-26.036-18.4c-1.564-1.104-2.484-2.76-2.484-4.6s0.92-3.496,2.484-4.6l26.036-18.4l4.784,6.716
		l-23,16.284l23,16.284L49.92,89.904z"/>
	<path class="st1" d="M94.08,89.904l-4.784-6.716l23-16.284l-23-16.284l4.784-6.716l26.036,18.4c1.564,1.104,2.484,2.76,2.484,4.6
		s-0.92,3.496-2.484,4.6L94.08,89.904z"/>
</g>
</svg>
