<?xml version="1.0" encoding="utf-8"?>
<!-- Generator: Adobe Illustrator 24.3.0, SVG Export Plug-In . SVG Version: 6.00 Build 0)  -->
<svg version="1.1" id="Layer_1" xmlns="http://www.w3.org/2000/svg" xmlns:xlink="http://www.w3.org/1999/xlink" x="0px" y="0px"
	 viewBox="0 0 144 144" style="enable-background:new 0 0 144 144;" xml:space="preserve">
<style type="text/css">
	.st0{fill:none;stroke:#000000;stroke-linecap:round;stroke-linejoin:round;stroke-miterlimit:10;}
</style>
<g>
	<path class="st0" d="M107.114,45.34c-3.589-1.455-7.663-1.94-11.446-1.358c-2.91,0.485-8.051,2.134-7.081,5.917
		c1.552,3.88,7.76,5.238,11.543,5.529c3.395,0.097,7.081-0.291,9.894-2.231C113.807,50.093,110.509,46.795,107.114,45.34z"/>
</g>
<path class="st0" d="M88.393,48.832c0,1.261-0.194,4.753-0.291,5.917c-0.097,0.97-0.194,2.134,0.291,3.007
	c1.843,3.298,6.305,4.462,9.894,4.947c3.88,0.291,8.439,0,11.446-2.716c0.388-0.388,0.873-1.067,0.97-1.649l0.097-0.582l0.97-7.178"
	/>
<g>
	<path class="st0" d="M61.524,36.61c0.097,2.134,0.194,5.141,0.194,7.275c0.194,1.164,1.164,2.134,2.134,2.716
		c4.462,2.619,11.834,2.619,16.199,0c0.97-0.582,1.94-1.552,2.134-2.716c0.097-2.134,0.194-5.141,0.194-7.275"/>
</g>
<g>
	<path class="st0" d="M59.002,65.807l0.388,7.663c0.097,0.679,0.388,1.552,0.776,2.134c2.522,3.783,7.566,4.85,11.834,4.947
		c4.268-0.097,9.312-1.164,11.834-4.947c0.388-0.582,0.679-1.455,0.776-2.134l0.388-7.566"/>
</g>
<path class="st0" d="M80.827,60.181c-3.395-1.746-7.469-2.231-11.252-1.843c-0.582,0.097-1.746,0.291-2.328,0.388
	c-2.522,0.582-5.238,1.649-6.984,3.686c-2.231,2.619-1.164,5.626,1.455,7.469c5.238,3.589,13.192,3.686,18.818,1.067
	C86.162,68.232,86.55,63.188,80.827,60.181z"/>
<path class="st0" d="M79.178,33.312c-3.201-1.261-6.79-1.552-10.185-1.164c-1.455,0.194-3.007,0.582-4.268,1.164
	c-2.037,0.873-4.462,2.91-2.619,5.141c1.649,1.843,4.268,2.522,6.693,2.91c3.589,0.485,7.469,0.194,10.767-1.261
	C83.737,38.065,83.155,35.058,79.178,33.312z"/>
<path class="st0" d="M36.013,45.728c-4.268,2.134-5.432,5.917-0.582,8.245c3.686,1.649,8.051,1.746,12.028,0.97
	c2.716-0.582,5.626-1.649,7.469-3.88c1.94-2.716-0.291-5.044-2.813-6.111c-1.455-0.582-3.201-0.97-4.753-1.164
	C43.482,43.497,39.408,44.079,36.013,45.728z"/>
<path class="st0" d="M55.607,48.832c0,1.261,0.194,4.753,0.291,5.917c0.097,0.97,0.194,2.134-0.291,3.007
	c-1.843,3.298-6.305,4.462-9.894,4.947c-3.88,0.291-8.439,0-11.446-2.716c-0.388-0.388-0.873-1.067-0.97-1.649L33.2,57.756
	l-0.97-7.178"/>
<line class="st0" x1="125.253" y1="56.495" x2="72" y2="91.9"/>
<line class="st0" x1="72" y1="91.9" x2="18.65" y2="56.495"/>
<line class="st0" x1="72" y1="129.245" x2="72" y2="91.9"/>
<polyline class="st0" points="18.65,56.495 24.955,91.415 72,129.245 118.948,91.415 125.253,56.495 111.673,50.481 "/>
<path class="st0" d="M96.638,43.885L82.379,37.58"/>
<line class="st0" x1="18.65" y1="56.495" x2="32.23" y2="50.481"/>
<path class="st0" d="M47.265,43.885l14.259-6.305"/>
</svg>
