<?xml version="1.0" encoding="utf-8"?>
<!-- Generator: Adobe Illustrator 24.2.1, SVG Export Plug-In . SVG Version: 6.00 Build 0)  -->
<svg version="1.1" id="Layer_1" xmlns="http://www.w3.org/2000/svg" xmlns:xlink="http://www.w3.org/1999/xlink" x="0px" y="0px"
	 viewBox="0 0 144 144" style="enable-background:new 0 0 144 144;" xml:space="preserve">
<style type="text/css">
	.st0{display:none;}
	.st1{display:inline;}
	.st2{display:inline;fill:#231F20;}
	.st3{fill:#182835;}
	.st4{fill:#FFFFFF;}
	.st5{fill:#A7B9C7;}
	.st6{fill:#E34400;}
</style>
<g id="Layer_1_1_" class="st0">
	<g id="ZqHS5n.tif" class="st1">
	</g>
</g>
<g id="Temp" class="st0">
	<rect id="XMLID_58_" x="-264" y="325" class="st2" width="81.9" height="144"/>
</g>
<g id="Layer_4" class="st0">
</g>
<g>
	<path class="st3" d="M68.2,70.7l0.1,0.2c-0.1-1.7-0.2-3.4-0.3-4.9c-0.5,0.1-1,0.2-1.5,0.3L68.2,70.7L68.2,70.7z"/>
	<path class="st3" d="M83.7,66.7c-1-0.3-2-0.5-3.1-0.7c-0.2,4-0.6,8.7-1,13.3L83.7,66.7z"/>
	<path class="st3" d="M98.5,78.7c-0.6-2.1-1.8-4.1-3.5-5.8l-5.2,15.3c-2.6,1.9-6.9,3.7-13.8,4.2l0,0c-0.9,0.1-1.9,0.1-2.9,0.1
		c-1.4,0-2.7-0.1-4-0.2c-1.1-2.8-2.4-6.3-3-7.8c-0.5-1-1.8-0.3-2.3,0.3c-0.6,0.6-1.1,1.5-0.3,3.6c0.3,0.8,0.8,2,1.3,3.3
		c-4.2-0.9-7-2.4-9-4l-5-11.8c-1,1.8-1.6,3.7-1.5,5.8c0.1,2.8,1.2,25.5,1.7,32.6c0.9,14.3,14.6,18.2,23.1,18.2s22.3-3.9,23.1-18.2
		c0.2-2.3,0.3-6.2,0.6-10.6c2.6-2.9,8.3-10.2,8.3-17.4C106.1,80.7,101.3,79.1,98.5,78.7z M98.4,92.7c0.2-3.2,0.3-6.1,0.4-8.1
		c0.7-0.1,1.6,0.3,1.6,1.6C100.4,88.3,99.5,90.6,98.4,92.7z"/>
	<path class="st4" d="M66.4,66.2l-0.2-0.5l-0.8,0.7C65.8,66.4,66.1,66.3,66.4,66.2z"/>
	<g>
		<g>
			<path class="st4" d="M-51.7,71.3l-14.1-38.6l-17.1,10.8l13.7,32.4l5,11.8c2,1.6,4.8,3.1,9,4c-0.5-1.3-1-2.5-1.3-3.3
				c-0.8-2.1-0.3-3,0.3-3.6c0.5-0.6,1.8-1.3,2.3-0.3c0.6,1.5,1.9,5,3,7.8h1L-51.7,71.3z M-59.9,73.5c-0.6,0.5-1.8,1.4-2.3,0.3
				c-0.1-0.3-0.7-1.6-1.4-3.5c-2.4-5.9-6.8-17-6.9-17.3c-0.8-2-0.2-2.9,0.3-3.6c1-1.3,2.4-1.5,2.9-0.5c0.3,0.9,5.4,14.4,7.3,19.4
				c0.4,0.9,0.6,1.6,0.7,1.8C-58.5,72.3-59.5,73.2-59.9,73.5z"/>
		</g>
	</g>
	<polygon class="st5" points="57.4,41.2 56.9,40.1 57.3,41.3 	"/>
	<polygon class="st5" points="59.6,47.3 59.2,46.2 59.1,46.2 59.5,47.3 	"/>
	<path class="st5" d="M68.3,70.9l-0.1-0.2l-0.1,0.1l0.2,0.5C68.3,71.1,68.3,71,68.3,70.9z"/>
	<path class="st5" d="M102,52.4c-0.1,0-0.1-0.1-0.2-0.1c-0.5-0.4-1.1-0.8-1.7-0.5c-0.6,0.2-0.9,0.7-1.9,1.4s-1.9-0.9-2.7-1.7
		c-0.9-0.8-1.9-0.6-2.9-0.5c-1,0-1.7-0.1-1.6-1.1s0.1-1.9-0.4-2.3c-0.1-0.1-0.2-0.2-0.3-0.2L90,47.5c0,0.1-0.1,0.2-0.1,0.2l-6.2,19
		c4.5,1.3,8.5,3.4,11.3,6.2L102,52.4z"/>
	<path class="st5" d="M78.5,92.1l-2.6,0.1l0.1,0.2c6.9-0.5,11.2-2.2,13.8-4.2L95,72.9c-2.8-2.8-6.8-4.9-11.3-6.2l-4.1,12.6
		C79.2,84.1,78.8,88.7,78.5,92.1z"/>
	<path class="st5" d="M75.5,92.2l-0.1,0.2c0.2,0,0.4,0,0.6,0l-0.1-0.2L75.5,92.2z"/>
	<path class="st4" d="M101.8,51.2l0.3,1l-0.1,0.2c0,0,0.1,0,0.1,0.1l0.1-0.3c0.1-0.2,0.1-0.3,0.1-0.4l-0.9-9.4l-0.5-0.2
		c-0.5,0.4-1.4,0.5-2.6,0.1c-1.2-0.3-1.8-1-2-1.8l-0.1,0l-6,6.7c0,0.1-0.1,0.1-0.1,0.2c0.1,0,0.1,0,0.2,0l0.5-0.2L101.8,51.2z"/>
	<path class="st4" d="M91,49.9c-0.1,1,0.6,1.1,1.6,1.1c1-0.1,2-0.3,2.9,0.5c0.8,0.8,1.7,2.4,2.7,1.7s1.3-1.2,1.9-1.4
		c0.6-0.3,1.2,0.1,1.7,0.5c0.1,0.1,0.1,0.1,0.2,0.1l0.1-0.2l-0.3-1l-11-4l-0.5,0.2c0.1,0,0.2,0.1,0.3,0.2C91.1,48,91.1,48.9,91,49.9
		z"/>
	<path class="st3" d="M101.2,42l-0.4-4.4c-0.1-0.8-1.2-1.2-1.7-0.6l-2.9,3.3c0,0.1,0,0.1,0.1,0.2l4.7,1.7
		C101,42.2,101.1,42.1,101.2,42z"/>
	<path class="st3" d="M98.3,42.3c1.3,0.4,2.1,0.3,2.6-0.1l-4.7-1.7C96.5,41.3,97.1,42,98.3,42.3z"/>
	<path class="st6" d="M80.6,66c0.2-2.6,0.3-4.9,0.3-6.5c0-1.9-0.1-3.6-0.3-5.2C79.4,56,76.6,57,74.1,57c-2.4,0-4.8-0.8-6.1-2.2
		c-0.2,1.4-0.3,3-0.3,4.7c0,1.6,0.1,3.8,0.2,6.4c2-0.3,4.1-0.5,6.2-0.5C76.3,65.4,78.5,65.6,80.6,66z"/>
	<path class="st6" d="M68.5,71.7L68.5,71.7l1.8,5.2l0.1-0.1l0.4,1.1L70.7,78l5,13.6l4-12.2c0.4-4.6,0.8-9.4,1-13.3
		c-2.1-0.4-4.3-0.6-6.5-0.6c-2.1,0-4.1,0.2-6.2,0.5c0.1,1.5,0.2,3.2,0.3,4.9L68.5,71.7z"/>
	<path class="st6" d="M68.5,71.7l-0.1,0.1c0.2,2.1,0.3,4.3,0.5,6.4l1.5-1.4L68.5,71.7z"/>
	<path class="st6" d="M70.7,78l-1.8,1.6c0.4,4.7,0.8,9.3,1.2,12.7l5.4-0.1l0.2-0.6L70.7,78z"/>
	<path class="st6" d="M68.5,71.7L68.5,71.7l-0.2-0.9c0,0.1,0,0.3,0,0.4L68.5,71.7z"/>
	<path class="st6" d="M68.3,71.3c0,0.2,0,0.4,0,0.6l0.1-0.1L68.3,71.3z"/>
	<polygon class="st6" points="70.8,77.9 70.4,76.8 70.3,76.9 70.7,78 	"/>
	<line class="st5" x1="-59.7" y1="62.2" x2="-56.2" y2="59"/>
	<line class="st5" x1="-54" y1="65.1" x2="-57.5" y2="68.5"/>
	<line class="st5" x1="-66.5" y1="43.9" x2="-63" y2="40.5"/>
	<line class="st5" x1="-64.2" y1="50" x2="-60.7" y2="46.8"/>
	<line class="st5" x1="-58.3" y1="52.9" x2="-62" y2="56.1"/>
	<line class="st5" x1="-51.7" y1="71.3" x2="-55.3" y2="74.5"/>
	<line class="st5" x1="-62.7" y1="79.2" x2="-66.9" y2="81.1"/>
	<line class="st5" x1="-65.2" y1="73.3" x2="-69.4" y2="75.1"/>
	<line class="st5" x1="-60.2" y1="85.2" x2="-64.3" y2="87"/>
	<line class="st5" x1="-67.7" y1="67.4" x2="-71.9" y2="69.1"/>
	<line class="st5" x1="-72.8" y1="55.5" x2="-76.9" y2="57.3"/>
	<line class="st5" x1="-75.2" y1="49.5" x2="-79.4" y2="51.3"/>
	<line class="st5" x1="-70.2" y1="61.4" x2="-74.5" y2="63.2"/>
	<line class="st6" x1="-51.1" y1="78.9" x2="-53" y2="80.7"/>
	<path class="st6" d="M78.5,92.1c0.3-3.4,0.7-8,1.1-12.8l-4,12.2l0.2,0.6L78.5,92.1z"/>
	<polygon class="st6" points="75.7,91.5 75.5,92.2 75.9,92.2 	"/>
	<path class="st4" d="M80.6,54.3c0.4-0.5,0.6-1.2,0.6-1.8c0-1.6-0.5-5.1-1.8-8.5c-0.6,0.3-1.2,0.6-1.9,0.7
		C78.7,46.8,80,49.9,80.6,54.3z"/>
	<path class="st4" d="M68.8,43.9c-1.3,3.5-1.8,7-1.8,8.6c0,0.9,0.3,1.6,1,2.3c0.5-4.7,1.9-7.9,3.1-10.1
		C70.2,44.5,69.4,44.2,68.8,43.9z"/>
	<path class="st4" d="M80.6,54.3c-0.6-4.4-1.9-7.6-3.1-9.6c-0.9,0.2-2,0.4-3.1,0.4c-1.2,0-2.3-0.1-3.3-0.4
		c-1.2,2.1-2.6,5.4-3.1,10.1c1.3,1.4,3.8,2.2,6.1,2.2C76.6,57,79.4,56,80.6,54.3z"/>
	<path class="st6" d="M80.7,26c-3.5-4.4-2.2-14.5-2.2-14.5c-9.6,4.1-14.2,18.1-14.3,23c0,4.2,1.3,7.6,4.6,9.4
		c0.7,0.4,1.4,0.6,2.3,0.8c1,0.2,2.1,0.4,3.3,0.4c1.1,0,2.2-0.1,3.1-0.4c0.7-0.2,1.3-0.4,1.9-0.7C85.5,40.8,85.2,31.6,80.7,26z"/>
</g>
<path id="XMLID_67_" class="st3" d="M226.1,86.3c0-5.6-4.8-7.2-7.6-7.6c-2.2-8-13.3-13.3-24.4-13.3c-12.5,0-25,6.6-24.8,16.3
	c0.1,2.8,1.2,25.5,1.7,32.6c0.9,14.3,14.6,18.2,23.1,18.2s22.3-3.9,23.1-18.2c0.2-2.3,0.3-6.2,0.6-10.6
	C220.4,100.8,226.1,93.5,226.1,86.3z M220.4,86.2c0,2.1-0.9,4.4-2,6.5c0.2-3.2,0.3-6.1,0.4-8.1C219.5,84.5,220.4,84.9,220.4,86.2z"
	/>
<path class="st4" d="M184.8,91.7c-0.5-1.3-1-2.5-1.3-3.3c-0.8-2.1-0.3-3,0.3-3.6c0.5-0.6,1.8-1.3,2.3-0.3c0.6,1.5,1.9,5,3,7.8
	c1.3,0.1,2.6,0.2,4,0.2c1,0,2,0,2.9-0.1l-21.8-59.7l-17.1,10.8l18.7,44.2C177.8,89.3,180.6,90.8,184.8,91.7z"/>
<path id="XMLID_87_" class="st5" d="M209.8,88.2l12.3-36l-0.3-1l-11-4l-0.8,0.3c0,0.1-0.1,0.2-0.1,0.2l-14.5,44.7
	C202.7,92,207.1,90.2,209.8,88.2z"/>
<path id="XMLID_61_" class="st4" d="M216.2,40.5l-6,6.7c0,0.1-0.1,0.1-0.1,0.2c0.2,0,0.3,0,0.5,0.2c0.5,0.4,0.5,1.3,0.4,2.3
	s0.6,1.1,1.6,1.1c1-0.1,2-0.3,2.9,0.5c0.8,0.8,1.7,2.4,2.7,1.7s1.3-1.2,1.9-1.4c0.6-0.3,1.2,0.1,1.7,0.5c0.1,0.1,0.2,0.1,0.3,0.2
	l0.1-0.3c0.1-0.2,0.1-0.3,0.1-0.4l-0.9-9.4L216.2,40.5z"/>
<path id="XMLID_100_" class="st3" d="M218.3,42.3c1.5,0.5,2.4,0.2,2.9-0.3l-0.4-4.4c-0.1-0.8-1.2-1.2-1.7-0.6l-2.9,3.3
	C216.4,41.2,217,42,218.3,42.3z"/>
<g>
	<g>
		<path class="st6" d="M-45.9,57c-2.4,0-4.8-0.8-6.1-2.2c-0.2,1.4-0.3,3-0.3,4.7c0,6.6,1.5,23.9,2.4,32.8l8.4-0.2
			c0.8-8.9,2.4-26,2.4-32.6c0-1.9-0.1-3.6-0.3-5.2C-40.6,56-43.4,57-45.9,57z"/>
	</g>
	<path class="st6" d="M-39.3,26c-3.5-4.4-2.2-14.5-2.2-14.5c-9.6,4.1-14.2,18.1-14.3,23c0,4.2,1.3,7.6,4.6,9.4
		c1.5,0.8,3.3,1.2,5.6,1.2c2,0,3.7-0.4,5-1.1C-34.5,40.8-34.8,31.6-39.3,26z"/>
</g>
<path class="st4" d="M-51.2,43.9c-1.3,3.5-1.8,7-1.8,8.6c-0.1,2.7,3.6,4.5,7.1,4.5c3.4,0,7.1-1.8,7.1-4.5c0-1.6-0.5-5.1-1.8-8.5
	c-1.4,0.7-3,1.1-5,1.1C-47.9,45.1-49.8,44.7-51.2,43.9z"/>
</svg>
