<?xml version="1.0" encoding="utf-8"?>
<!-- Generator: Adobe Illustrator 22.0.0, SVG Export Plug-In . SVG Version: 6.00 Build 0)  -->
<svg version="1.1" id="Layer_1" xmlns="http://www.w3.org/2000/svg" xmlns:xlink="http://www.w3.org/1999/xlink" x="0px" y="0px" viewBox="0 0 144 144" style="enable-background:new 0 0 144 144;" xml:space="preserve">
<style type="text/css">
	.st0{display:none;}
	.st1{display:inline;}
	.st2{display:inline;fill:#231F20;}
	.st3{fill:#182835;}
	.st4{fill:#FFFFFF;}
	.st5{fill:#A7B9C7;}
	.st6{fill:none;stroke:#00ADEE;stroke-width:2.5209;stroke-miterlimit:10;}
	.st7{fill:#E34400;}
</style>
<g id="Layer_1_1_" class="st0">
	<g id="ZqHS5n.tif" class="st1">
	</g>
</g>
<g id="Temp" class="st0">
	<rect id="XMLID_58_" x="-264" y="325" class="st2" width="81.9" height="144"/>
</g>
<g id="Layer_4" class="st0">
</g>
<g id="Design_Cup">
	<path id="XMLID_67_" class="st3" d="M106.1,86.3c0-5.6-4.8-7.2-7.6-7.6c-2.2-8-13.3-13.3-24.4-13.3c-12.5,0-25,6.6-24.8,16.3
		c0.1,2.8,1.2,25.5,1.7,32.6c0.9,14.3,14.6,18.2,23.1,18.2s22.3-3.9,23.1-18.2c0.2-2.3,0.3-6.2,0.6-10.6
		C100.4,100.8,106.1,93.5,106.1,86.3z M100.4,86.2c0,2.1-0.9,4.4-2,6.5c0.2-3.2,0.3-6.1,0.4-8.1C99.5,84.5,100.4,84.9,100.4,86.2z"
		/>
	<path id="XMLID_89_" class="st4" d="M64.8,91.7c-0.5-1.3-1-2.5-1.3-3.3c-0.8-2.1-0.3-3,0.3-3.6c0.5-0.6,1.8-1.3,2.3-0.3
		c0.6,1.5,1.9,5,3,7.8c1.3,0.1,2.6,0.2,4,0.2c1,0,2,0,2.9-0.1L54.2,32.7L37.1,43.5l18.7,44.2C57.8,89.3,60.6,90.8,64.8,91.7z
		 M49.8,49.4c1-1.3,2.4-1.5,2.9-0.5c0.4,1.1,7.5,19.8,8,21.2c0.8,2.2-0.2,3.1-0.6,3.4c-0.6,0.5-1.8,1.4-2.3,0.3
		c-0.5-1.2-8.2-20.4-8.3-20.8C48.7,51,49.3,50.1,49.8,49.4z"/>
	<g id="XMLID_63_">
		<polygon id="XMLID_64_" class="st5" points="60.5,62.8 64.1,59.5 63.7,58.4 60.1,61.7 		"/>
		<polygon id="XMLID_112_" class="st5" points="62.7,69 66.4,65.6 65.9,64.5 62.3,67.9 		"/>
		<polygon id="XMLID_113_" class="st5" points="53.8,44.4 57.4,41.2 56.9,40.1 53.3,43.3 		"/>
		<polygon id="XMLID_115_" class="st5" points="55.9,50.6 59.6,47.3 59.2,46.2 55.6,49.5 		"/>
		<polygon id="XMLID_116_" class="st5" points="58.2,56.7 61.9,53.4 61.5,52.3 57.8,55.6 		"/>
		<polygon id="XMLID_123_" class="st5" points="64.9,75.1 68.5,71.7 68.2,70.7 64.5,74 		"/>
		<polygon id="XMLID_124_" class="st5" points="67.2,81.2 70.8,77.9 70.4,76.8 66.8,80.2 		"/>
		<polygon id="XMLID_128_" class="st5" points="57.1,78.7 52.9,80.6 53.3,81.6 57.5,79.7 		"/>
		<polygon id="XMLID_129_" class="st5" points="54.6,72.8 50.4,74.6 50.8,75.6 55,73.8 		"/>
		<polygon id="XMLID_130_" class="st5" points="59.6,84.7 55.4,86.5 55.9,87.5 60.1,85.7 		"/>
		<polygon id="XMLID_132_" class="st5" points="52.1,66.9 47.9,68.6 48.3,69.6 52.5,67.8 		"/>
		<polygon id="XMLID_133_" class="st5" points="47,54.9 42.9,56.8 43.3,57.8 47.5,56 		"/>
		<polygon id="XMLID_134_" class="st5" points="44.6,49 40.4,50.8 40.8,51.8 45,50 		"/>
		<polygon id="XMLID_135_" class="st5" points="49.6,60.9 45.3,62.8 45.8,63.7 50,61.9 		"/>
	</g>
	<path id="XMLID_24_" class="st6" d="M73.3,57"/>
	<path id="XMLID_87_" class="st5" d="M89.8,88.2l12.3-36l-0.3-1l-11-4L90,47.5c0,0.1-0.1,0.2-0.1,0.2L75.4,92.4
		C82.7,92,87.1,90.2,89.8,88.2z"/>
	<path id="XMLID_61_" class="st4" d="M96.2,40.5l-6,6.7c0,0.1-0.1,0.1-0.1,0.2c0.2,0,0.3,0,0.5,0.2c0.5,0.4,0.5,1.3,0.4,2.3
		s0.6,1.1,1.6,1.1c1-0.1,2-0.3,2.9,0.5c0.8,0.8,1.7,2.4,2.7,1.7s1.3-1.2,1.9-1.4c0.6-0.3,1.2,0.1,1.7,0.5c0.1,0.1,0.2,0.1,0.3,0.2
		l0.1-0.3c0.1-0.2,0.1-0.3,0.1-0.4l-0.9-9.4L96.2,40.5z"/>
	<path id="XMLID_100_" class="st3" d="M98.3,42.3c1.5,0.5,2.4,0.2,2.9-0.3l-0.4-4.4c-0.1-0.8-1.2-1.2-1.7-0.6l-2.9,3.3
		C96.4,41.2,97,42,98.3,42.3z"/>
	<g id="XMLID_85_">
		<path id="XMLID_60_" class="st7" d="M73.2,92.4c1.9,0,3.7-0.1,5.3-0.3c0.8-8.9,2.4-26,2.4-32.6c0-13.6-6.1-18.2-6.1-18.2h-1
			c0,0-6.1,4.5-6.1,18.2c0,6.6,1.5,23.9,2.4,32.8C70.8,92.3,72,92.4,73.2,92.4z"/>
		<path id="XMLID_59_" class="st4" d="M74.1,57c3.4,0,7.1-1.8,7.1-4.5c0-2.4-1.2-8.9-4.1-13.4h-6c-3,4.5-4.1,11-4.1,13.4
			C66.9,55.2,70.6,57,74.1,57z"/>
		<path id="XMLID_20_" class="st7" d="M78.5,11.5c0,0-1.3,10.1,2.2,14.5c5.5,6.8,4.7,19.1-6.3,19.1c-7.4,0-10.2-4.5-10.2-10.6
			C64.3,29.6,68.9,15.6,78.5,11.5z"/>
	</g>
</g>
</svg>
