<?xml version="1.0" encoding="utf-8"?>
<!-- Generator: Adobe Illustrator 22.0.1, SVG Export Plug-In . SVG Version: 6.00 Build 0)  -->
<svg version="1.1" id="Layer_1" xmlns="http://www.w3.org/2000/svg" xmlns:xlink="http://www.w3.org/1999/xlink" x="0px" y="0px"
	 width="126.4" height="70.1" viewBox="0 0 126.4 70.1" style="enable-background:new 0 0 126.4 70.1;" xml:space="preserve">
<style type="text/css">
	.st0{fill:none;stroke:#FFFFFF;stroke-width:3.75;stroke-linejoin:round;stroke-miterlimit:10;}
</style>
<path class="st0" d="M122.4,63.4c-0.6-1.2-7.4-14.8-21.8-16.7c-6.9-0.9-18.2,0.5-23.5,9c-2.5,4-2.8,8.1-2.8,10.5
	c7.6-3.6,22-8.9,38.9-5.5C116.6,61.4,119.6,62.3,122.4,63.4z"/>
<path class="st0" d="M4,63.4c0.6-1.2,7.4-14.8,21.8-16.7c6.9-0.9,18.2,0.5,23.5,9c2.5,4,2.8,8.1,2.8,10.5c-7.6-3.6-22-8.9-38.9-5.5
	C9.8,61.4,6.8,62.3,4,63.4z"/>
<path class="st0" d="M63.2,63.3c-2.9-2.4-6.3-7.7-7.3-9.5c-2.9-5.4-4.2-11.9-4-18.9c0.3-7.2,1.9-14.3,4.9-21.2
	c1.8-4.4,4-7.8,6.4-10.1c2.3,2.3,4.5,5.8,6.4,10.1c2.9,6.9,4.6,14.1,4.9,21.2c0.3,7-1.1,13.5-4,18.9C69.5,55.6,66.1,60.9,63.2,63.3z
	"/>
</svg>
