<?xml version="1.0" encoding="utf-8"?>
<!-- Generator: Adobe Illustrator 19.2.1, SVG Export Plug-In . SVG Version: 6.00 Build 0)  -->
<!DOCTYPE svg PUBLIC "-//W3C//DTD SVG 1.1//EN" "http://www.w3.org/Graphics/SVG/1.1/DTD/svg11.dtd">
<svg version="1.1" id="Layer_1" xmlns="http://www.w3.org/2000/svg" xmlns:xlink="http://www.w3.org/1999/xlink" x="0px" y="0px"
	 width="64px" height="64px" viewBox="0 0 64 64" style="enable-background:new 0 0 64 64;" xml:space="preserve">
<style type="text/css">
	.st0{fill:#FFFFFF;}
</style>
<g id="twitter">
	<g>
		<path class="st0" d="M64,12.2c-1.1,0.6-4.3,1.8-7.3,2.1c1.9-1,4.8-4.5,5.5-7.2C60.3,8.3,56.1,10,54,10l0,0c-2.5-2.4-5.8-4-9.6-4
			c-7.3,0-13.2,5.9-13.2,13.2c0,1,0.1,2,0.3,2.9l0,0c-9.9-0.3-21.5-5.2-28-13.7c-4,6.9-0.5,14.6,4,17.4C6,26,3.1,25.7,1.8,24.4
			C1.7,29,3.9,35.1,12,37.3c-1.6,0.8-4.3,0.6-5.5,0.4c0.4,3.9,5.9,9,11.8,9C16.2,49.1,9,53.6,0,52.2C6.1,55.9,13.2,58,20.7,58
			c21.3,0,37.8-17.3,37-38.6v-0.1c0-0.1,0-0.1,0-0.2s0-0.1,0-0.2C59.5,17.7,62.1,15.3,64,12.2z"/>
	</g>
</g>
</svg>
