<?xml version="1.0" encoding="utf-8"?>
<svg version="1.1" id="Layer_1" xmlns="http://www.w3.org/2000/svg" xmlns:xlink="http://www.w3.org/1999/xlink" x="0px" y="0px"
	 viewBox="0 0 144 144" style="enable-background:new 0 0 144 144;" xml:space="preserve">
<style type="text/css">
	.st0{fill:none;stroke:#000000;stroke-linecap:round;stroke-linejoin:round;stroke-miterlimit:10;}
</style>
<path class="st0" d="M97.147,26.681H46.853c-7.827,0-14.173,6.345-14.173,14.173v50.293c0,7.827,6.345,14.173,14.173,14.173h50.293
	c7.827,0,14.173-6.345,14.173-14.173V40.853C111.319,33.026,104.974,26.681,97.147,26.681z"/>
<g>
	<g>
		<polyline class="st0" points="72,38.271 70.647,35.928 62.832,40.441 66.789,47.296 		"/>
		<polyline class="st0" points="50.259,75.927 42.36,89.61 50.175,94.123 60.68,75.927 		"/>
		<polyline class="st0" points="72,56.321 78.109,66.902 83.32,75.927 93.825,94.123 101.64,89.61 93.741,75.927 88.53,66.902 
			77.211,47.296 		"/>
		<polyline class="st0" points="65.891,66.902 72,56.321 77.211,47.296 81.168,40.441 73.353,35.928 72,38.271 66.789,47.296 
			55.47,66.902 		"/>
	</g>
	<polyline class="st0" points="78.109,66.902 65.891,66.902 55.47,66.902 41.038,66.902 41.038,75.927 50.259,75.927 60.68,75.927 
		83.32,75.927 	"/>
	<polyline class="st0" points="88.53,66.902 102.962,66.902 102.962,75.927 93.741,75.927 	"/>
</g>
</svg>
