<?xml version="1.0" encoding="utf-8"?>
<!-- Generator: Adobe Illustrator 24.3.0, SVG Export Plug-In . SVG Version: 6.00 Build 0)  -->
<svg version="1.1" id="Layer_1" xmlns="http://www.w3.org/2000/svg" xmlns:xlink="http://www.w3.org/1999/xlink" x="0px" y="0px"
	 viewBox="0 0 144 144" style="enable-background:new 0 0 144 144;" xml:space="preserve">
<style type="text/css">
	.st0{fill:none;stroke:#000000;stroke-miterlimit:10;}
</style>
<path class="st0" d="M72.5,24.8c6,0,11.7,1.2,17.2,3.5c2.6,1.1,5.1,2.5,7.5,4.1c2.4,1.6,4.5,3.4,6.5,5.4c2,2,3.8,4.2,5.4,6.5
	c1.6,2.4,2.9,4.9,4.1,7.5c2.3,5.4,3.5,11.2,3.5,17.2s-1.2,11.7-3.5,17.2c-1.1,2.6-2.5,5.1-4.1,7.5c-1.6,2.4-3.4,4.5-5.4,6.5
	c-2,2-4.2,3.8-6.5,5.4c-2.4,1.6-4.9,2.9-7.5,4.1c-5.4,2.3-11.2,3.5-17.2,3.5s-11.7-1.2-17.2-3.5c-2.6-1.1-5.1-2.5-7.5-4.1
	c-2.4-1.6-4.5-3.4-6.5-5.4c-2-2-3.8-4.2-5.4-6.5c-1.6-2.4-2.9-4.9-4.1-7.5c-2.3-5.4-3.5-11.2-3.5-17.2s1.2-11.7,3.5-17.2
	c1.1-2.6,2.5-5.1,4.1-7.5c1.6-2.4,3.4-4.5,5.4-6.5c2-2,4.2-3.8,6.5-5.4c2.4-1.6,4.9-2.9,7.5-4.1C60.7,25.9,66.5,24.8,72.5,24.8"/>
<path class="st0" d="M33.4,68.9c0,15.5,9,28.9,22,35.2L36.8,53C34.6,57.8,33.4,63.2,33.4,68.9L33.4,68.9z M98.9,66.9
	c0-4.8-1.7-8.2-3.2-10.8c-2-3.2-3.8-5.9-3.8-9.2c0-3.6,2.7-6.9,6.6-6.9c0.2,0,0.4,0,0.5,0C92,33.7,82.7,29.8,72.5,29.8
	c-13.7,0-25.7,7-32.7,17.6c0.9,0,1.8,0,2.5,0c4.1,0,10.4-0.5,10.4-0.5c2.1-0.1,2.4,3,0.3,3.2c0,0-2.1,0.2-4.5,0.4l14.2,42.4
	l8.6-25.7l-6.1-16.7c-2.1-0.1-4.1-0.4-4.1-0.4c-2.1-0.1-1.9-3.4,0.2-3.2c0,0,6.5,0.5,10.3,0.5c4.1,0,10.4-0.5,10.4-0.5
	c2.1-0.1,2.4,3,0.2,3.2c0,0-2.1,0.2-4.5,0.4l14.1,42l4-12.8C97.9,74.2,98.9,70.2,98.9,66.9L98.9,66.9z M73.2,72.3l-11.7,34.1
	c3.5,1,7.2,1.6,11.1,1.6c4.5,0,8.9-0.8,13-2.2c-0.1-0.2-0.2-0.3-0.3-0.5L73.2,72.3L73.2,72.3z M106.8,50.1c0.2,1.2,0.3,2.6,0.3,4
	c0,4-0.8,8.4-3,14l-12,34.5c11.6-6.8,19.5-19.4,19.5-33.8C111.6,62.1,109.9,55.7,106.8,50.1L106.8,50.1z"/>
</svg>
