<?xml version="1.0" encoding="utf-8"?>
<!-- Generator: Adobe Illustrator 24.3.0, SVG Export Plug-In . SVG Version: 6.00 Build 0)  -->
<svg version="1.1" id="Layer_1" xmlns="http://www.w3.org/2000/svg" xmlns:xlink="http://www.w3.org/1999/xlink" x="0px" y="0px"
	 viewBox="0 0 144 144" style="enable-background:new 0 0 144 144;" xml:space="preserve">
<style type="text/css">
	.st0{fill:none;stroke:#000000;stroke-miterlimit:10;}
</style>
<path class="st0" d="M98.4,92.7c0.2-3.2,0.3-6.1,0.4-8.1c0.7-0.1,1.6,0.3,1.6,1.6C100.4,88.3,99.5,90.6,98.4,92.7z"/>
<path class="st0" d="M89.8,88.2L95,72.9l7-20.5c-0.1,0-0.1-0.1-0.2-0.1c-0.5-0.4-1.1-0.8-1.7-0.5c-0.6,0.2-0.9,0.7-1.9,1.4
	s-1.9-0.9-2.7-1.7c-0.9-0.8-1.9-0.6-2.9-0.5c-1,0-1.7-0.1-1.6-1.1s0.1-1.9-0.4-2.3c-0.1-0.1-0.6-0.1-0.6-0.1l-6.3,19.2l-4.1,12.6"/>
<path class="st0" d="M102,52.4l0.1-0.3c0.1-0.2,0.1-0.3,0.1-0.4l-1.4-14.1c-0.1-0.8-1.2-1.2-1.7-0.6L90,47.5"/>
<path class="st0" d="M100.9,42.2c-0.5,0.3-1.4,0.5-2.6,0.1c-1.2-0.3-1.8-1-2-1.8"/>
<path class="st0" d="M96.2,40.3c0,0.1,0,0.1,0.1,0.2"/>
<path class="st0" d="M100.9,42.2c0.1-0.1,0.3-0.2,0.3-0.3"/>
<line class="st0" x1="60.3" y1="62.2" x2="63.8" y2="59"/>
<line class="st0" x1="66" y1="65.1" x2="62.5" y2="68.4"/>
<line class="st0" x1="53.5" y1="43.8" x2="57" y2="40.5"/>
<line class="st0" x1="55.8" y1="50" x2="59.3" y2="46.8"/>
<line class="st0" x1="61.7" y1="52.8" x2="58" y2="56.2"/>
<line class="st0" x1="68.3" y1="71.3" x2="64.7" y2="74.6"/>
<line class="st0" x1="57.3" y1="79.2" x2="53.1" y2="81.1"/>
<line class="st0" x1="54.8" y1="73.3" x2="50.6" y2="75.1"/>
<line class="st0" x1="59.8" y1="85.2" x2="55.7" y2="87"/>
<line class="st0" x1="52.3" y1="67.3" x2="48.1" y2="69.1"/>
<line class="st0" x1="47.2" y1="55.5" x2="43.1" y2="57.3"/>
<line class="st0" x1="44.8" y1="49.5" x2="40.6" y2="51.3"/>
<line class="st0" x1="49.8" y1="61.4" x2="45.5" y2="63.2"/>
<line class="st0" x1="68.9" y1="78.9" x2="67" y2="80.7"/>
<path class="st0" d="M68.8,43.9c-1.3,3.5-1.8,7-1.8,8.6c-0.1,2.7,3.6,4.5,7.1,4.5c3.4,0,7.1-1.8,7.1-4.5c0-1.6-0.5-5.1-1.8-8.5
	c-1.4,0.7-3,1.1-5,1.1C72.1,45.1,70.2,44.7,68.8,43.9z"/>
<path class="st0" d="M80.7,26c-3.5-4.4-2.2-14.5-2.2-14.5c-9.6,4.1-14.2,18.1-14.3,23c0,4.2,1.3,7.6,4.6,9.4
	c1.5,0.8,3.3,1.2,5.6,1.2c2,0,3.7-0.4,5-1.1C85.5,40.8,85.2,31.6,80.7,26z"/>
<path class="st0" d="M78.5,92.1c0.8-8.9,2.4-26,2.4-32.6c0-1.9-0.1-3.6-0.3-5.2"/>
<path class="st0" d="M68,54.8c-0.2,1.4-0.3,3-0.3,4.7c0,6.6,1.5,23.9,2.4,32.8"/>
<path class="st0" d="M53.5,83.6c0,4.9,8.8,8.9,19.6,8.9c1,0,2,0,2.9-0.1l0,0c6.9-0.5,11.2-2.2,13.8-4.2L95,72.9
	c1.7,1.7,2.9,3.6,3.5,5.8c2.8,0.4,7.6,2,7.6,7.6c0,7.2-5.7,14.5-8.3,17.4c-0.3,4.4-0.4,8.3-0.6,10.6c-0.8,14.3-14.6,18.2-23.1,18.2
	s-22.2-3.9-23.1-18.2c-0.5-7.1-1.6-29.8-1.7-32.6c0-2.1,0.5-4,1.5-5.8"/>
<path class="st0" d="M64.8,91.7c-0.5-1.3-1-2.5-1.3-3.3c-0.8-2.1-0.3-3,0.3-3.6c0.5-0.6,1.8-1.3,2.3-0.3c0.6,1.5,1.9,5,3,7.8"/>
<polyline class="st0" points="68.3,71.3 54.2,32.7 37.1,43.5 50.8,75.9 55.8,87.7 "/>
<path class="st0" d="M60.1,73.5c-0.6,0.5-1.8,1.4-2.3,0.3c-0.1-0.3-0.7-1.6-1.4-3.5c-2.4-5.9-6.8-17-6.9-17.3
	c-0.8-2-0.2-2.9,0.3-3.6c1-1.3,2.4-1.5,2.9-0.5c0.3,0.9,5.4,14.4,7.3,19.4c0.4,0.9,0.6,1.6,0.7,1.8C61.5,72.3,60.5,73.2,60.1,73.5z"
	/>
</svg>
