<?xml version="1.0" encoding="utf-8"?>
<!-- Generator: Adobe Illustrator 24.3.0, SVG Export Plug-In . SVG Version: 6.00 Build 0)  -->
<svg version="1.1" id="Layer_1" xmlns="http://www.w3.org/2000/svg" xmlns:xlink="http://www.w3.org/1999/xlink" x="0px" y="0px"
	 viewBox="0 0 144 144" style="enable-background:new 0 0 144 144;" xml:space="preserve">
<style type="text/css">
	.st0{fill:none;stroke:#000000;stroke-linecap:round;stroke-linejoin:round;stroke-miterlimit:10;}
</style>
<path class="st0" d="M100.507,92.69c3.453,1.256,11.712,3.666,20.329,0.212c1.621-0.65,10.748-4.308,10.8-9.953
	c0.043-4.623-6.025-7.963-10.491-10.421c-6.459-3.555-12.569-4.496-16.299-4.773"/>
<path class="st0" d="M106.273,81.368c1.099-0.079,2.391-0.299,3.764-0.802c0.579-0.212,4.521-1.655,4.394-3.124
	c-0.124-1.436-3.982-1.097-6.854-3.44c-3.291-2.685-2.92-7.433-3.656-10.513c-2.8-11.724-5.669-23.462-10.315-30.24
	c-2.49-3.633-6.039-8.66-12.649-10.822c-1.603-0.524-10.281-3.136-17.141,2.148c-7.431,5.724-7.86,16.957-4.147,23.175
	c0.67,1.122,2.618,4.384,6.212,5.078c1.99,0.385,5.08,0.097,6.547-2.057c1.316-1.932,0.996-4.879,0.042-5.246
	c-1.011-0.389-2.014,2.396-3.903,2.35c-2.134-0.051-4.545-3.692-4.275-7.176c0.231-2.974,2.451-6.251,5.49-6.562
	c3.797-0.388,6.267,3.961,6.584,4.521c1.549,2.73,1.281,5.52,1.06,7.823c-0.304,3.171-1.034,4.076-1.92,7.604
	c-0.418,1.663-1.205,4.047-1.306,7.45"/>
<path class="st0" d="M93.437,48.988c1.553,1.69,2.282,2.674,3.427,3.785c-0.698-2.127-1.37-4.063-2.928-7.195
	c0.457-1.59,0.654-2.49,0.877-4.376c-1.198,0.387-1.829,0.581-3.094,0.898c-1.231-1.921-1.895-2.758-3.036-4.344
	c0.453,1.927,0.675,2.886,1.052,4.787c-1.248,0.244-1.873,0.333-3.065,0.495c1.687,0.83,2.609,1.281,4.405,2.416
	c0.232,3.046,0.238,4.49,0.022,6.883C92.033,51.167,92.532,50.586,93.437,48.988z"/>
<path class="st0" d="M94.204,73.014c-4.976,3.691-11.452,1.054-13.637-4.227c-1.861-4.498,2.48-11.526,8.264-10.843
	c0.334,0.039,0.683,0.115,1.038,0.229c0.129,0.041,0.244,0.141,0.29,0.245s0.012,0.19-0.085,0.222
	c-2.997,0.982-4.587,5.32-3.537,8.5c0.982,2.974,3.881,5.361,7.762,5.113c0.135-0.008,0.252,0.06,0.293,0.175
	c0.042,0.116-0.001,0.254-0.11,0.346c-0.042,0.037-0.063,0.056-0.106,0.093C94.321,72.917,94.265,72.967,94.204,73.014z"/>
<path class="st0" d="M82.486,36.247c3.296-0.147,5.086-3.413,4.214-6.329c-0.742-2.484-4.898-3.929-7.058-1.703
	c-0.125,0.128-0.244,0.277-0.352,0.443c-0.039,0.06-0.054,0.14-0.037,0.199c0.016,0.058,0.059,0.082,0.11,0.063
	c1.568-0.602,3.682,0.657,4.318,2.323c0.594,1.559,0.198,3.519-1.489,4.721c-0.059,0.042-0.084,0.109-0.062,0.171
	c0.021,0.062,0.086,0.105,0.162,0.106c0.03,0.001,0.045,0.002,0.075,0.003C82.405,36.246,82.445,36.248,82.486,36.247z"/>
<path class="st0" d="M68.119,26.301l-0.955,1.259c-0.087,0.115-0.216,0.19-0.359,0.211l-0.797,0.113
	c-0.485,0.069-0.641,0.691-0.247,0.981l0.988,0.727c0.228,0.168,0.29,0.481,0.144,0.723l-0.824,1.363
	c-0.25,0.413,0.12,0.924,0.59,0.816l1.819-1.407c0.301-0.233,0.728-0.206,0.998,0.063l1.21,1.207
	c0.466,0.074,0.869-0.327,0.798-0.793l-0.275-1.807c-0.032-0.211,0.061-0.421,0.239-0.538l0.558-0.368
	c0.457-0.301,0.237-1.012-0.31-1.003l-1.586,0.027c-0.214,0.004-0.41-0.118-0.502-0.31l-0.559-1.168
	C68.87,26.026,68.366,25.975,68.119,26.301z"/>
<path class="st0" d="M80.908,91.356c0.318,0.708,0.777,1.274,1.485,1.48c1.662,0.485,3.912-1.062,5.232-1.961
	c1.625-1.107,3.06-2.466,4.418-3.88c2.676-2.785,5.09-5.897,8.247-8.172c4.163-3.001-0.273,5.605-0.852,6.703
	c-6.288,11.915-15.137,20.486-28.714,23.353c-10.778,2.276-22.689,1.303-32.735-3.575c-5.05-2.452-9.605-5.924-13.118-10.32
	c-2.09-2.616-8.922-12.274-5.496-15.507c0.997-0.941,3.154-0.468,3.314-0.432c1.903,0.438,3.033,2.323,4.367,3.649
	c3.792,3.768,7.854,6.519,12.479,9.166c0.267-2.129,1.835-7.508,2.027-8.213c0.516-1.891,1.369-3.598,2.319-5.3
	c0.884-1.585,1.592-3.196,1.886-5c0.39-2.39,0.21-4.881,1.601-6.995c0.103-0.157,0.213-0.31,0.33-0.457
	c0.642-0.816,1.547-1.479,2.557-1.659c0.154-0.028,0.311-0.044,0.47-0.047c2.682-0.063,4.378,3.672,6.665,4.633
	c1.84,0.773,3.866,0.726,5.66,0.007c2.287-0.961,3.981-4.702,6.663-4.639c0.159,0.004,0.315,0.02,0.47,0.047
	c1.01,0.18,1.915,0.843,2.557,1.659c1.357,1.725,1.598,3.894,1.805,6.005c0.274,2.804,1.417,5.428,2.617,7.945
	c0.587,1.23,1.359,2.47,1.789,3.764c0.432,1.301,0.726,2.704,1.056,4.041C80.244,88.62,80.382,90.183,80.908,91.356z"/>
<path class="st0" d="M41.733,93.372c3.216,1.843,6.678,3.262,10.274,4.167c3.395,0.854,6.912,1.249,10.412,1.1
	c3.331-0.142,6.648-0.78,9.765-1.971c2.626-1.003,4.964-2.506,7.321-4.011"/>
</svg>
