<?xml version="1.0" encoding="utf-8"?>
<!-- Generator: Adobe Illustrator 22.0.0, SVG Export Plug-In . SVG Version: 6.00 Build 0)  -->
<svg version="1.1" id="Layer_1" xmlns="http://www.w3.org/2000/svg" xmlns:xlink="http://www.w3.org/1999/xlink" x="0px" y="0px"
	 viewBox="0 0 144 144" style="enable-background:new 0 0 144 144;" xml:space="preserve">
<style type="text/css">
	.st0{fill:#A7B9C7;}
	.st1{fill:#FFFFFF;}
	.st2{fill:#E34400;}
	.st3{fill:#777D88;}
	.st4{fill:#182835;}
</style>
<g id="Background">
</g>
<g>
	<polygon class="st0" points="27.3,112 27.3,31.8 88.2,31.8 88.2,100.4 80.2,104 76.6,112 	"/>
</g>
<polygon class="st1" points="88.2,100.4 76.6,100.4 76.6,112 "/>
<polygon class="st2" points="34.3,47.5 64.1,46.35 102.8,47.5 102.8,93.8 34.3,93.8 "/>
<polygon class="st1" points="70.2,83 74.1,83 66.1,57.8 62.2,57.8 "/>
<polygon class="st1" points="48.5,70.9 60.6,75.8 60.6,79.5 43.3,72.3 43.3,69.3 60.6,62.2 60.6,65.9 "/>
<polygon class="st1" points="93.7,69.4 93.7,72.4 76.4,79.6 76.4,75.9 88.5,71 76.4,66.1 76.4,62.4 "/>
<path class="st1" d="M39.9,39.95c-3.1,0-5.6,2.55-5.6,5.65v1.9h68.5v-2c0-3.1-2.5-5.55-5.6-5.55C97.2,39.95,39.9,39.95,39.9,39.95z"
	/>
<circle class="st2" cx="39.9" cy="44" r="1.6"/>
<circle class="st3" cx="45.1" cy="44" r="1.6"/>
<circle class="st4" cx="50.4" cy="44" r="1.6"/>
<path class="st4" d="M123.8,82.8c0.8-0.9,5.3-7.7,5.8-8.6c0.6-0.8,0.7-1-0.5-1.1c-1.1-0.1-2.4-0.1-4.2,0.6c-1.8,0.7-5.4,3.1-6.3,4.5
	s-0.8,1.5-0.8,1.5l4.1,2.6L123.8,82.8z"/>
<path class="st4" d="M118.2,90.9C118.2,90.8,118.2,90.8,118.2,90.9L118.2,90.9l-0.3-0.2c0,0,0,0-0.1,0l-0.1-0.1l0,0l0,0l0.2-0.4
	c0,0,0,0,0-0.1c0.1-0.1,0.1-0.3,0-0.3c-0.1-0.1-0.2-0.1-0.3-0.2h-0.1h-0.1h-0.1c-0.1,0.1-0.2,0.2-0.3,0.3s-0.2,0.2-0.3,0.2l-0.4-0.3
	c0.1-0.3,0.2-0.4,0.3-0.6c0,0,0-0.1,0-0.2s-0.1-0.1-0.1-0.1c-0.1-0.1-0.2-0.1-0.2-0.2c-0.1,0-0.1-0.1-0.2-0.1s-0.2,0.1-0.3,0.1
	l-0.3,0.3l0,0c-0.1,0.1-0.1,0.1-0.1,0.1l-0.4-0.3c0-0.2,0.1-0.3,0.2-0.5c0,0,0,0,0-0.1s0.1-0.2,0.1-0.2c0-0.1-0.1-0.2-0.2-0.2
	l-0.2-0.1c-0.1,0-0.1,0-0.1,0h-0.1h-0.1c-0.1,0.1-0.3,0.2-0.3,0.3l-0.1,0.1c-0.1,0-0.1,0.1-0.1,0.1c-0.1-0.1-0.2-0.2-0.3-0.2
	c0,0,0,0-0.1,0l-0.1-0.1c0.1-0.2,0.1-0.3,0.2-0.4v-0.1c0.1-0.2,0.1-0.3,0-0.5c-0.1-0.1-0.2-0.2-0.3-0.3c-0.2-0.1-0.7-0.5-0.8-0.5
	l0,0c0-0.1,0.1-0.1,0.1-0.2c0.3-0.4,0.5-0.8,0.8-1.1c0.2-0.2,0.3-0.4,0.4-0.6c0.1-0.1,0.2-0.2,0.3-0.3l0.1-0.1
	c0-0.1,0.1-0.1,0.1-0.1s0,0,0.1,0.1l0,0c0.1,0.1,0.8,0.7,1,0.8c0.2,0.1,0.3,0.2,0.4,0.2h0.2h0.1h0.1c0.2-0.2,0.3-0.3,0.4-0.3
	c0,0,0.1,0,0.1-0.1l0,0c0,0,0,0,0.1,0l0.4,0.3l0,0v0.1c0,0.2-0.1,0.3-0.1,0.4v0.1l-0.1,0.2v0.1l0,0l0.2,0.2h0.1l0,0h0.1l0.2-0.2l0,0
	c0.1-0.1,0.2-0.2,0.3-0.3h0.1l0,0l0.4,0.3l0,0v0.1c0,0.1,0,0.2-0.1,0.3l0,0v0.1l-0.1,0.2l-0.1,0.2v0.1l0,0l0.2,0.1h0.1l0,0h0.1
	c0.2-0.2,0.3-0.3,0.4-0.3l0,0c0,0,0.1-0.1,0.1,0c0.1,0,0.1,0.1,0.2,0.1l0.3,0.2l0,0c0,0,0.1,0,0.1,0.1v0.1c0,0.2-0.1,0.4-0.2,0.6
	v0.1l0,0l0,0c0.1,0.2,0.3,0.3,0.3,0.4c0.1,0.1,0.2,0.2,0.3,0.3c0.2,0.2,0.4,0.3,0.7,0.6c0,0,0,0,0.1,0l0,0c0,0,0,0.1,0.1,0.2
	c0,0,0,0.1-0.1,0.2l-0.1,0.2c-0.2,0.3-0.3,0.5-0.6,0.9c-0.1,0.2-0.2,0.3-0.3,0.4c-0.1,0.2-0.2,0.3-0.3,0.3l-0.1,0.1
	c0,0-0.1,0.1-0.2,0.1s-0.1,0-0.1-0.1l-0.1-0.1c-0.3-0.2-0.4-0.3-0.7-0.3c-0.2,0-0.3,0-0.4,0.1s-0.3,0.2-0.3,0.3
	C118.4,90.7,118.3,90.8,118.2,90.9L118.2,90.9z"/>
<path class="st4" d="M114.6,78.2l12.8,8.6c0.1,0.1,0.3,0.1,0.4,0.2l2.6,0.1c0.3,0,0.5-0.1,0.7-0.3l5.2-7.4c0.3-0.5,1.1-0.4,1.3,0.3
	c0.3,0.8,0.5,2.1,0.4,3.9c-0.2,3.6-0.7,6.8-3.4,10.2c-2,2.5-6.1,2.3-8.4,2.1c-2.3-0.2-6.6-0.8-14.1,4.1c-7.5,4.8-38.1,27-41.1,29.2
	c-3,2.1-5.7,0.8-6.9-1c-1.2-1.9-1-4.7,1.4-6.4c2.5-1.7,25.6-16.9,29.3-19.5c3.7-2.7,9.4-6.4,12.1-10c2.6-3.4,5-5.7,6.6-13.3
	C113.6,78.2,114.2,77.8,114.6,78.2z M70.93,125.57c0.18-1.35-0.81-2.52-2.25-2.7s-2.52,0.81-2.7,2.25s0.81,2.52,2.25,2.7
	C69.67,128,70.74,126.92,70.93,125.57z M121.2,86.8l-4.1-2.7c-0.2,0.3-0.5,0.3-0.8,0.2l-2.5,3.5c0.3,0.2,0.3,0.6,0.2,0.8l4.1,2.7
	c0.2-0.3,0.5-0.3,0.8-0.2l2.4-3.5C121.1,87.3,121,86.9,121.2,86.8z"/>
<polygon class="st1" points="101.23,71.49 99.92,75.26 99.15,77.54 98.82,78.53 98.71,78.82 98.38,79.81 97.73,81.6 96.74,84.77 
	95.2,89.32 93.13,95.17 90.83,101.7 88.64,108.14 85.26,117.64 83.45,121.39 83.23,125.39 85.41,126.25 87.7,122.92 88.43,118.64 
	91.81,109.23 93.9,102.79 96.2,96.16 98.27,90.42 99.81,85.76 100.9,82.69 101.65,81.01 101.98,80.02 102.09,79.72 102.42,78.63 
	103.09,76.45 104.4,72.59 "/>
<path class="st4" d="M94.42,81.9L94.42,81.9c0,0.1-0.01,0.2-0.01,0.2l-0.88,2.58v0.1v0.1l0,0c0.1,0,0.2,0.11,0.3,0.11l0.3,0.11
	c2.48,0.87,4.95,1.75,7.43,2.62l0.2,0.11l0.3,0.11l0.2,0.11h0.1v-0.1v-0.1c0.33-0.89,0.55-1.68,0.87-2.48l0.1-0.1v-0.1h0.1l0.2,0.01
	c0.49,0.21,0.89,0.33,1.39,0.44l0,0l0,0l0,0c0.1-0.1,0.54-1.48,0.76-1.98v-0.1l0,0l0,0l0,0l0,0v-0.1l-0.09-0.2
	c-0.2-0.11-0.29-0.31-0.29-0.41c-0.09-0.3-0.08-0.7,0.03-1c0.14-1.2,0.37-2.39,0.51-3.59l0.35-1.79c0.87-2.48,1.94-4.74,3.01-7.01
	c1.81-3.75,3.53-7.7,4.85-11.76c0.54-1.48,1.09-3.07,1.54-4.56c0.54-1.48,0.89-3.08,1.34-4.66c0.33-0.99,0.36-1.99-0.01-3.1
	l-0.49-0.41l-0.2-0.11h-0.1h0.1l0.2,0.11c-2.47-0.97-5.35-1.86-7.92-2.74c-0.5-0.11-1.01,0.17-1.42,0.56
	c-0.72,0.68-0.95,1.67-1.48,2.56c-0.43,0.89-0.86,1.98-1.19,2.97c-0.86,1.98-1.52,4.06-2.18,6.04c-0.77,2.28-1.44,4.56-2,6.84
	c-0.34,1.39-0.79,2.88-1.03,4.27c-0.34,1.39-0.79,2.88-1.03,4.27c-0.44,1.39-0.88,2.78-1.42,4.16c-0.32,0.79-0.64,1.38-0.96,2.07
	s-0.74,1.28-1.06,1.97c-0.11,0.3-0.31,0.39-0.42,0.69c-0.11,0.2-0.31,0.29-0.31,0.39c-0.1,0.1-0.3,0.09-0.4,0.09l-0.21,0.08h0.1l0,0
	l0,0l0,0l0,0v0.1c-0.32,0.69-0.44,1.29-0.76,1.98v0.1l0,0l0,0c0,0,0,0,0.1,0C93.53,81.47,93.93,81.68,94.42,81.9L94.42,81.9
	L94.42,81.9"/>
<g>
	<rect x="26.66" y="24" class="st4" width="1.28" height="5.1"/>
</g>
<g>
	<rect x="33.94" y="26.5" class="st4" width="1.28" height="2.6"/>
</g>
<g>
	<rect x="41.23" y="24" class="st4" width="1.28" height="5.1"/>
</g>
<g>
	<rect x="48.41" y="26.5" class="st4" width="1.28" height="2.6"/>
</g>
<g>
	<rect x="55.69" y="24" class="st4" width="1.28" height="5.1"/>
</g>
<g>
	<rect x="62.97" y="26.5" class="st4" width="1.28" height="2.6"/>
</g>
<g>
	<rect x="70.26" y="24" class="st4" width="1.28" height="5.1"/>
</g>
<g>
	<rect x="77.44" y="26.5" class="st4" width="1.28" height="2.6"/>
</g>
<g>
	<rect x="84.72" y="24" class="st4" width="1.28" height="5.1"/>
</g>
<g>
	<rect x="19.4" y="31.16" class="st4" width="5.1" height="1.28"/>
</g>
<g>
	<rect x="19.4" y="89.51" class="st4" width="5.1" height="1.28"/>
</g>
<g>
	<rect x="21.95" y="82.19" class="st4" width="2.55" height="1.28"/>
</g>
<g>
	<rect x="21.95" y="96.73" class="st4" width="2.55" height="1.28"/>
</g>
<g>
	<rect x="19.4" y="89.51" class="st4" width="5.1" height="1.28"/>
</g>
<g>
	<rect x="19.4" y="104.05" class="st4" width="5.1" height="1.28"/>
</g>
<g>
	<rect x="21.95" y="96.73" class="st4" width="2.55" height="1.28"/>
</g>
<g>
	<rect x="21.95" y="111.36" class="st4" width="2.55" height="1.28"/>
</g>
<g>
	<rect x="19.4" y="74.87" class="st4" width="5.1" height="1.28"/>
</g>
<g>
	<rect x="21.95" y="67.56" class="st4" width="2.55" height="1.28"/>
</g>
<g>
	<rect x="19.4" y="60.33" class="st4" width="5.1" height="1.28"/>
</g>
<g>
	<rect x="21.95" y="53.02" class="st4" width="2.55" height="1.28"/>
</g>
<g>
	<rect x="19.4" y="45.7" class="st4" width="5.1" height="1.28"/>
</g>
<g>
	<rect x="21.95" y="38.48" class="st4" width="2.55" height="1.28"/>
</g>
</svg>
