<?xml version="1.0" encoding="utf-8"?>
<!-- Generator: Adobe Illustrator 24.2.1, SVG Export Plug-In . SVG Version: 6.00 Build 0)  -->
<svg version="1.1" id="Layer_1" xmlns="http://www.w3.org/2000/svg" xmlns:xlink="http://www.w3.org/1999/xlink" x="0px" y="0px"
	 viewBox="0 0 144 144" style="enable-background:new 0 0 144 144;" xml:space="preserve">
<style type="text/css">
	.st0{display:none;}
	.st1{display:inline;}
	.st2{display:inline;fill:#231F20;}
	.st3{fill:none;stroke:#FFFFFF;stroke-miterlimit:10;}
</style>
<g id="Layer_1_1_" class="st0">
	<g id="ZqHS5n.tif" class="st1">
	</g>
</g>
<g id="Temp" class="st0">
	<rect id="XMLID_58_" x="-264" y="325" class="st2" width="81.9" height="144"/>
</g>
<g id="Layer_4" class="st0">
</g>
<g>
	<path class="st3" d="M98.4,92.7c0.2-3.2,0.3-6.1,0.4-8.1c0.7-0.1,1.6,0.3,1.6,1.6C100.4,88.3,99.5,90.6,98.4,92.7z"/>
	<g>
		<g>
			<path class="st3" d="M64.8,91.7c-0.5-1.3-1-2.5-1.3-3.3c-0.8-2.1-0.3-3,0.3-3.6c0.5-0.6,1.8-1.3,2.3-0.3c0.6,1.5,1.9,5,3,7.8
				 M68.278,71.252L54.2,32.7L37.1,43.5L50.81,75.907L55.8,87.7 M60.1,73.5c-0.6,0.5-1.8,1.4-2.3,0.3
				c-0.121-0.291-0.667-1.644-1.424-3.526C54.012,64.392,49.576,53.303,49.5,53c-0.8-2-0.2-2.9,0.3-3.6c1-1.3,2.4-1.5,2.9-0.5
				c0.337,0.927,5.436,14.364,7.328,19.397c0.352,0.937,0.593,1.583,0.672,1.803C61.5,72.3,60.5,73.2,60.1,73.5z"/>
		</g>
	</g>
	<path class="st3" d="M89.8,88.2l5.211-15.252l7.006-20.504c-0.072-0.043-0.144-0.072-0.217-0.144c-0.5-0.4-1.1-0.8-1.7-0.5
		c-0.6,0.2-0.9,0.7-1.9,1.4s-1.9-0.9-2.7-1.7c-0.9-0.8-1.9-0.6-2.9-0.5c-1,0-1.7-0.1-1.6-1.1s0.1-1.9-0.4-2.3
		c-0.143-0.143-0.6-0.1-0.6-0.1c-0.045,0.034-6.275,19.237-6.275,19.237l-4.091,12.612"/>
	<path class="st3" d="M102.017,52.444l0.1-0.3c0.1-0.2,0.1-0.3,0.1-0.4L100.8,37.6c-0.1-0.8-1.2-1.2-1.7-0.6L90,47.5"/>
	<path class="st3" d="M100.917,42.224c-0.532,0.35-1.363,0.495-2.617,0.076c-1.191-0.275-1.79-0.97-2.037-1.777"/>
	<path class="st3" d="M96.205,40.318c0.017,0.076,0.036,0.131,0.058,0.205"/>
	<path class="st3" d="M100.917,42.224c0.104-0.068,0.261-0.189,0.343-0.271"/>
	<line class="st3" x1="60.3" y1="62.25" x2="63.814" y2="59.029"/>
	<line class="st3" x1="66.048" y1="65.145" x2="62.5" y2="68.45"/>
	<line class="st3" x1="53.55" y1="43.85" x2="57.046" y2="40.496"/>
	<line class="st3" x1="55.75" y1="50.05" x2="59.348" y2="46.797"/>
	<line class="st3" x1="61.7" y1="52.85" x2="58" y2="56.15"/>
	<line class="st3" x1="68.279" y1="71.266" x2="64.7" y2="74.55"/>
	<line class="st3" x1="57.3" y1="79.2" x2="53.1" y2="81.1"/>
	<line class="st3" x1="54.8" y1="73.3" x2="50.6" y2="75.1"/>
	<line class="st3" x1="59.85" y1="85.2" x2="55.65" y2="87"/>
	<line class="st3" x1="52.3" y1="67.35" x2="48.1" y2="69.1"/>
	<line class="st3" x1="47.25" y1="55.45" x2="43.1" y2="57.3"/>
	<line class="st3" x1="44.8" y1="49.5" x2="40.6" y2="51.3"/>
	<line class="st3" x1="49.8" y1="61.4" x2="45.55" y2="63.25"/>
	<line class="st3" x1="68.939" y1="78.895" x2="67" y2="80.7"/>
</g>
<g>
	<path class="st3" d="M68.765,43.875C67.507,47.367,67,50.874,67,52.5c-0.1,2.7,3.6,4.5,7.1,4.5c3.4,0,7.1-1.8,7.1-4.5
		c0-1.61-0.544-5.066-1.775-8.525C78.073,44.686,76.408,45.1,74.4,45.1C72.093,45.1,70.233,44.662,68.765,43.875z"/>
	<path class="st3" d="M80.7,26c-3.5-4.4-2.2-14.5-2.2-14.5c-9.6,4.1-14.2,18.1-14.3,23c0,4.198,1.327,7.638,4.565,9.375
		c1.468,0.787,3.327,1.225,5.635,1.225c2.008,0,3.673-0.414,5.025-1.125C85.478,40.788,85.196,31.558,80.7,26z"/>
</g>
<g>
	<path class="st3" d="M78.5,92.1c0.8-8.9,2.4-26,2.4-32.6c0-1.896-0.127-3.6-0.331-5.158"/>
	<path class="st3" d="M67.961,54.801c-0.166,1.43-0.261,2.993-0.261,4.699c0,6.6,1.5,23.9,2.4,32.8"/>
</g>
<path class="st3" d="M53.527,83.588c0,4.922,8.763,8.912,19.573,8.912c1,0,2,0,2.9-0.1l-0.015-0.04
	c6.946-0.463,11.189-2.215,13.815-4.16l5.211-15.252c1.676,1.696,2.904,3.625,3.489,5.752c2.8,0.4,7.6,2,7.6,7.6
	c0,7.2-5.7,14.5-8.3,17.4c-0.3,4.4-0.4,8.3-0.6,10.6c-0.8,14.3-14.6,18.2-23.1,18.2s-22.2-3.9-23.1-18.2c-0.5-7.1-1.6-29.8-1.7-32.6
	c-0.043-2.087,0.505-4.029,1.51-5.793"/>
</svg>
