<svg version="1.1" xmlns="https://www.w3.org/2000/svg" xmlns:xlink="https://www.w3.org/1999/xlink" width="110px" height="110px" viewBox="0 20 220 198" xml:space="preserve">
          <g id="icon_digital">
            <g>
              <path class="iconstroke" d="M180.9,159.8h7.4c4,0,7.3-3.3,7.3-7.3V43.4H24.4v109.1c0,4,3.3,7.3,7.3,7.3h13.8"></path>
              <path class="iconstroke" d="M195.6,43.4V32.9c0-4-3.3-7.3-7.3-7.3H31.7c-4,0-7.3,3.3-7.3,7.3v10.4"></path>
              <circle class="iconfill" cx="36.2" cy="34.5" r="3.2"></circle>
              <circle class="iconfill" cx="46.6" cy="34.5" r="3.2"></circle>
              <circle class="iconfill" cx="57" cy="34.5" r="3.2"></circle>
              <circle class="iconfill" cx="104.9" cy="186.5" r="2.8"></circle>
              <path class="iconstroke" d="M165.5,116.9h-30.5c-3.5,0-6.3,2.8-6.3,6.3V200c0,3.5,2.8,6.3,6.3,6.3h30.5c3.5,0,6.3-2.8,6.3-6.3v-76.8
   C171.9,119.7,169,116.9,165.5,116.9z"></path>
              <path class="iconstroke" d="M150.3,107.9V63.2c0-3.2-2.6-5.8-5.8-5.8H60.3c-3.2,0-5.8,2.6-5.8,5.8v124.2c0,3.2,2.6,5.8,5.8,5.8l59.4,0"></path>
              <line class="iconstroke" x1="54.5" y1="68.7" x2="150.3" y2="68.7"></line>
              <line class="iconstroke" x1="119.7" y1="180.3" x2="54.5" y2="180.3"></line>
              <line class="iconstroke" x1="128.7" y1="123.5" x2="171.9" y2="123.5"></line>
              <line class="iconstroke" x1="171.9" y1="199.4" x2="128.7" y2="199.4"></line>
            </g>
          </g>
        </svg>