<?xml version="1.0" encoding="utf-8"?>
<!-- Generator: Adobe Illustrator 19.2.1, SVG Export Plug-In . SVG Version: 6.00 Build 0)  -->
<!DOCTYPE svg PUBLIC "-//W3C//DTD SVG 1.1//EN" "http://www.w3.org/Graphics/SVG/1.1/DTD/svg11.dtd">
<svg version="1.1" xmlns="http://www.w3.org/2000/svg" xmlns:xlink="http://www.w3.org/1999/xlink" x="0px" y="0px" width="300px"
	 height="300px" viewBox="0 0 300 300" style="enable-background:new 0 0 300 300;" xml:space="preserve">
<g id="Template" style="display:none;">
	<g id="fedora_x5F_keyline.tif_1_" style="display:inline;">
		<defs>
			<rect id="SVGID_1_" x="-599.83" y="-261.78" width="810" height="540"/>
		</defs>
		<clipPath id="SVGID_2_">
			<use xlink:href="#SVGID_1_"  style="overflow:visible;"/>
		</clipPath>
		<g style="clip-path:url(#SVGID_2_);">
			
				<image style="overflow:visible;" width="1440" height="960" id="fedora_x5F_keyline_1_" xlink:href="4CD747E9168B6DA5.jpg"  transform="matrix(0.5625 0 0 0.5625 -599.83 -261.7823)">
			</image>
		</g>
	</g>
</g>
<g id="Base" style="display:none;">
	<path style="display:inline;fill:none;stroke:#23B5F2;stroke-width:6;stroke-miterlimit:10;" d="M-373.33-111.24
		c-16.93,7.18-34.3,13.3-52.03,18.18c-13.17,3.63-27.29,5.32-39.06,12.77c-14.51,9.18-10.95,24.88-6.19,39.12
		c12.44,37.22,34.08,70.76,55.79,103.14c28.51,42.52,58.34,89.29,101.7,117.49c28.88,18.78,61.11,32.15,94.47,40.56
		c38.44,9.69,80.96,12.78,120.32,10.44c37.16-2.22,73.49-12.46,103.23-35.58C59.67,152.3,80.35,79.81,61.36,13.93
		C54.92-8.43,44.13-45.86,7.62-68.38c-28.39-17.51-57.71-16.99-70.58-15.94"/>
</g>
<g id="SquareGrid">
	
		<rect x="-300" y="0" transform="matrix(-1 -4.489887e-11 4.489887e-11 -1 -300 300)" style="fill:#DB6200;" width="300" height="300"/>
	<rect x="0" y="0" transform="matrix(-1 -4.489887e-11 4.489887e-11 -1 300 300)" style="fill:#9674CC;" width="300" height="300"/>
	
		<rect x="-300" y="300" transform="matrix(-1 -4.489887e-11 4.489887e-11 -1 -300 900)" style="fill:#B32424;" width="300" height="300"/>
	
		<rect x="0" y="300" transform="matrix(-1 -4.489887e-11 4.489887e-11 -1 300 900)" style="fill:#7A911E;" width="300" height="300"/>
	<rect x="0" y="-300" style="fill:#7D2C62;" width="300" height="300"/>
</g>
<g id="icons4pt" style="display:none;">
	<g style="display:inline;">
		
			<polyline style="fill:none;stroke:#FFFFFF;stroke-width:4;stroke-linecap:round;stroke-linejoin:round;stroke-miterlimit:10;" points="
			258.19,107.57 230.61,107.57 230.61,79.99 		"/>
		
			<rect x="25.9" y="95.9" transform="matrix(-3.606531e-11 -1 1 -3.606531e-11 -54.0954 245.9046)" style="fill:none;stroke:#FFFFFF;stroke-width:4;stroke-linecap:round;stroke-linejoin:round;stroke-miterlimit:10;" width="140.01" height="108.19"/>
	</g>
	<g style="display:inline;">
		
			<rect x="54.9" y="144.01" style="fill:none;stroke:#FFFFFF;stroke-width:4;stroke-linecap:round;stroke-linejoin:round;stroke-miterlimit:10;" width="36.64" height="62.9"/>
	</g>
	<g style="display:inline;">
		
			<rect x="100.27" y="93.78" style="fill:none;stroke:#FFFFFF;stroke-width:4;stroke-linecap:round;stroke-linejoin:round;stroke-miterlimit:10;" width="36.64" height="113.13"/>
	</g>
	<g style="display:inline;">
		
			<polyline style="fill:none;stroke:#FFFFFF;stroke-width:4;stroke-linecap:round;stroke-linejoin:round;stroke-miterlimit:10;" points="
			220.77,93.09 208.46,93.09 208.46,206.91 245.1,206.91 245.1,117.41 		"/>
		
			<rect x="163.09" y="93.78" style="fill:none;stroke:#FFFFFF;stroke-width:4;stroke-linecap:round;stroke-linejoin:round;stroke-miterlimit:10;" width="36.64" height="113.13"/>
	</g>
	
		<polygon style="display:inline;fill:none;stroke:#FFFFFF;stroke-width:4;stroke-linecap:round;stroke-linejoin:round;stroke-miterlimit:10;" points="
		258.19,107.57 258.19,220.01 150,220.01 150,79.99 230.61,79.99 	"/>
	
		<line style="display:inline;fill:none;stroke:#FFFFFF;stroke-width:4;stroke-linecap:round;stroke-linejoin:round;stroke-miterlimit:10;" x1="85.05" y1="121.15" x2="61.4" y2="121.15"/>
	
		<polyline style="display:inline;fill:none;stroke:#FFFFFF;stroke-width:4;stroke-linecap:round;stroke-linejoin:round;stroke-miterlimit:10;" points="
		90.46,133.63 73.22,93.86 55.99,133.63 	"/>
</g>
<g id="icons6pt">
	<g>
		
			<polyline style="fill:none;stroke:#FFFFFF;stroke-width:3;stroke-linecap:round;stroke-linejoin:round;stroke-miterlimit:10;" points="
			255.69,107.57 228.11,107.57 228.11,79.99 		"/>
		
			<rect x="23.4" y="95.9" transform="matrix(-3.606531e-11 -1 1 -3.606531e-11 -56.5954 243.4046)" style="fill:none;stroke:#FFFFFF;stroke-width:3;stroke-linecap:round;stroke-linejoin:round;stroke-miterlimit:10;" width="140.01" height="108.19"/>
	</g>
	<g>
		
			<rect x="52.4" y="144.01" style="fill:none;stroke:#FFFFFF;stroke-width:3;stroke-linecap:round;stroke-linejoin:round;stroke-miterlimit:10;" width="36.64" height="62.9"/>
	</g>
	<g>
		
			<rect x="97.77" y="93.78" style="fill:none;stroke:#FFFFFF;stroke-width:3;stroke-linecap:round;stroke-linejoin:round;stroke-miterlimit:10;" width="36.64" height="113.13"/>
	</g>
	<g>
		
			<polyline style="fill:none;stroke:#FFFFFF;stroke-width:3;stroke-linecap:round;stroke-linejoin:round;stroke-miterlimit:10;" points="
			218.27,93.09 205.96,93.09 205.96,206.91 242.6,206.91 242.6,117.41 		"/>
		
			<rect x="160.59" y="93.78" style="fill:none;stroke:#FFFFFF;stroke-width:3;stroke-linecap:round;stroke-linejoin:round;stroke-miterlimit:10;" width="36.64" height="113.13"/>
	</g>
	
		<polygon style="fill:none;stroke:#FFFFFF;stroke-width:3;stroke-linecap:round;stroke-linejoin:round;stroke-miterlimit:10;" points="
		255.69,107.57 255.69,220.01 147.5,220.01 147.5,79.99 228.11,79.99 	"/>
	
		<line style="fill:none;stroke:#FFFFFF;stroke-width:3;stroke-linecap:round;stroke-linejoin:round;stroke-miterlimit:10;" x1="82.55" y1="121.15" x2="58.9" y2="121.15"/>
	
		<polyline style="fill:none;stroke:#FFFFFF;stroke-width:3;stroke-linecap:round;stroke-linejoin:round;stroke-miterlimit:10;" points="
		87.96,133.63 70.72,93.86 53.49,133.63 	"/>
</g>
</svg>
