<?xml version="1.0" encoding="utf-8"?>
<!-- Generator: Adobe Illustrator 19.2.1, SVG Export Plug-In . SVG Version: 6.00 Build 0)  -->
<!DOCTYPE svg PUBLIC "-//W3C//DTD SVG 1.1//EN" "http://www.w3.org/Graphics/SVG/1.1/DTD/svg11.dtd">
<svg version="1.1" id="Layer_1" xmlns="http://www.w3.org/2000/svg" xmlns:xlink="http://www.w3.org/1999/xlink" x="0px" y="0px"
	 width="144px" height="144px" viewBox="0 0 144 144" style="enable-background:new 0 0 144 144;" xml:space="preserve">
<g id="Background">
</g>
<g id="Document">
	<g>
		<path style="fill:#FFFFFF;" d="M89.3,30.8h-62v81.3h47.2l14.8-14.8V30.8L89.3,30.8z"/>
	</g>
	<path style="fill:none;stroke:#000000;stroke-width:3.181351e-03;stroke-miterlimit:10;" d="M68.7,96.4"/>
</g>
<g id="Coding">
	<polygon style="fill:#F7BD00;" points="89.3,30.8 27.3,30.8 27.3,112.1 74.5,112.1 89.3,97.3 89.3,30.8 	"/>
	<polyline style="fill:#1C3A4A;" points="89.55,97.45 74.75,97.45 74.75,112.25 	"/>
	<rect x="34.9" y="44.3" style="fill:#E04300;" width="68.5" height="46.5"/>
	<path style="fill:#FFFFFF;" d="M70.8,80h3.9l-8-25.2h-3.9L70.8,80z M49.1,67.9l12.1,4.9v3.7l-17.3-7.2v-3l17.3-7.1v3.7L49.1,67.9z
		 M94.3,66.4v3L77,76.6v-3.7L89.1,68L77,63.1v-3.7L94.3,66.4z"/>
	<path style="fill:#1C3A4A;" d="M40.5,37c-3.1,0-5.6,2.5-5.6,5.6v1.9h68.5v-2c0-3.1-2.5-5.6-5.6-5.6L40.5,37L40.5,37z"/>
	<circle style="fill:#E34400;" cx="40.5" cy="41" r="1.6"/>
	<circle style="fill:#F7BD00;" cx="45.7" cy="41" r="1.6"/>
	<circle style="fill:#FFFFFF;" cx="51" cy="41" r="1.6"/>
</g>
<g id="Layer_3">
	<path style="fill:#E04300;" d="M124.4,82.3c0.8-0.9,5.3-7.7,5.8-8.6c0.6-0.8,0.7-1-0.5-1.1c-1.1-0.1-2.4-0.1-4.2,0.6
		c-1.8,0.7-5.4,3.1-6.3,4.5s-0.8,1.5-0.8,1.5l4.1,2.6L124.4,82.3z"/>
	<path style="fill:#E04300;" d="M118.8,90.4C118.8,90.3,118.8,90.3,118.8,90.4L118.8,90.4l-0.3-0.2c0,0,0,0-0.1,0l-0.1-0.1l0,0l0,0
		l0.2-0.4c0,0,0,0,0-0.1c0.1-0.1,0.1-0.3,0-0.3c-0.1-0.1-0.2-0.1-0.3-0.2h-0.1H118h-0.1c-0.1,0.1-0.2,0.2-0.3,0.3s-0.2,0.2-0.3,0.2
		l-0.4-0.3c0.1-0.3,0.2-0.4,0.3-0.6c0,0,0-0.1,0-0.2s-0.1-0.1-0.1-0.1c-0.1-0.1-0.2-0.1-0.2-0.2c-0.1,0-0.1-0.1-0.2-0.1
		s-0.2,0.1-0.3,0.1l-0.3,0.3l0,0c-0.1,0.1-0.1,0.1-0.1,0.1l-0.4-0.3c0-0.2,0.1-0.3,0.2-0.5c0,0,0,0,0-0.1s0.1-0.2,0.1-0.2
		c0-0.1-0.1-0.2-0.2-0.2l-0.2-0.1c-0.1,0-0.1,0-0.1,0h-0.1h-0.1c-0.1,0.1-0.3,0.2-0.3,0.3l-0.1,0.1c-0.1,0-0.1,0.1-0.1,0.1
		c-0.1-0.1-0.2-0.2-0.3-0.2c0,0,0,0-0.1,0l-0.1-0.1c0.1-0.2,0.1-0.3,0.2-0.4v-0.1c0.1-0.2,0.1-0.3,0-0.5c-0.1-0.1-0.2-0.2-0.3-0.3
		c-0.2-0.1-0.7-0.5-0.8-0.5l0,0c0-0.1,0.1-0.1,0.1-0.2c0.3-0.4,0.5-0.8,0.8-1.1c0.2-0.2,0.3-0.4,0.4-0.6c0.1-0.1,0.2-0.2,0.3-0.3
		l0.1-0.1c0-0.1,0.1-0.1,0.1-0.1s0,0,0.1,0.1l0,0c0.1,0.1,0.8,0.7,1,0.8c0.2,0.1,0.3,0.2,0.4,0.2h0.2h0.1h0.1
		c0.2-0.2,0.3-0.3,0.4-0.3c0,0,0.1,0,0.1-0.1l0,0c0,0,0,0,0.1,0l0.4,0.3l0,0v0.1c0,0.2-0.1,0.3-0.1,0.4v0.1l-0.1,0.2v0.1l0,0
		l0.2,0.2h0.1l0,0h0.1l0.2-0.2l0,0c0.1-0.1,0.2-0.2,0.3-0.3h0.1l0,0l0.4,0.3l0,0v0.1c0,0.1,0,0.2-0.1,0.3l0,0v0.1l-0.1,0.2l-0.1,0.2
		v0.1l0,0l0.2,0.1h0.1l0,0h0.1c0.2-0.2,0.3-0.3,0.4-0.3l0,0c0,0,0.1-0.1,0.1,0c0.1,0,0.1,0.1,0.2,0.1l0.3,0.2l0,0c0,0,0.1,0,0.1,0.1
		v0.1c0,0.2-0.1,0.4-0.2,0.6v0.1l0,0l0,0c0.1,0.2,0.3,0.3,0.3,0.4c0.1,0.1,0.2,0.2,0.3,0.3c0.2,0.2,0.4,0.3,0.7,0.6c0,0,0,0,0.1,0
		l0,0c0,0,0,0.1,0.1,0.2c0,0,0,0.1-0.1,0.2l-0.1,0.2c-0.2,0.3-0.3,0.5-0.6,0.9c-0.1,0.2-0.2,0.3-0.3,0.4c-0.1,0.2-0.2,0.3-0.3,0.3
		l-0.1,0.1c0,0-0.1,0.1-0.2,0.1s-0.1,0-0.1-0.1l-0.1-0.1c-0.3-0.2-0.4-0.3-0.7-0.3c-0.2,0-0.3,0-0.4,0.1s-0.3,0.2-0.3,0.3
		C119,90.2,118.9,90.3,118.8,90.4L118.8,90.4z"/>
	<path style="fill:#E04300;" d="M115.2,77.7l12.8,8.6c0.1,0.1,0.3,0.1,0.4,0.2l2.6,0.1c0.3,0,0.5-0.1,0.7-0.3l5.2-7.4
		c0.3-0.5,1.1-0.4,1.3,0.3c0.3,0.8,0.5,2.1,0.4,3.9c-0.2,3.6-0.7,6.8-3.4,10.2c-2,2.5-6.1,2.3-8.4,2.1c-2.3-0.2-6.6-0.8-14.1,4.1
		c-7.5,4.8-38.1,27-41.1,29.2c-3,2.1-5.7,0.8-6.9-1c-1.2-1.9-1-4.7,1.4-6.4c2.5-1.7,25.6-16.9,29.3-19.5c3.7-2.7,9.4-6.4,12.1-10
		c2.6-3.4,5-5.7,6.6-13.3C114.2,77.7,114.8,77.3,115.2,77.7z M71.8,125.1c0.2-1.5-0.9-2.8-2.5-3s-2.8,0.9-3,2.5s0.9,2.8,2.5,3
		C70.4,127.8,71.6,126.6,71.8,125.1z M121.8,86.3l-4.1-2.7c-0.2,0.3-0.5,0.3-0.8,0.2l-2.5,3.5c0.3,0.2,0.3,0.6,0.2,0.8l4.1,2.7
		c0.2-0.3,0.5-0.3,0.8-0.2l2.4-3.5C121.7,86.8,121.6,86.4,121.8,86.3z"/>
</g>
<g id="Screwdriver">
	<polygon style="fill:#1C3A4A;" points="103.7,73 102.5,76.8 101.8,79.1 101.5,80.1 101.4,80.4 101.1,81.4 100.5,83.2 99.6,86.4 
		98.2,91 96.3,96.9 94.2,103.5 92.2,110 89.1,119.6 87.4,123.4 87.3,127.4 89.5,128.2 91.7,124.8 92.3,120.5 95.4,111 97.3,104.5 
		99.4,97.8 101.3,92 102.7,87.3 103.7,84.2 104.4,82.5 104.7,81.5 104.8,81.2 105.1,80.1 105.7,77.9 106.9,74 	"/>
	<g>
		<g>
			<path style="fill:#F7BD00;" d="M97.2,83.6L97.2,83.6c0,0.1,0,0.2,0,0.2l-0.8,2.6v0.1v0.1l0,0c0.1,0,0.2,0.1,0.3,0.1l0.3,0.1
				c2.5,0.8,5,1.6,7.5,2.4l0.2,0.1l0.3,0.1l0.2,0.1h0.1v-0.1v-0.1c0.3-0.9,0.5-1.7,0.8-2.5l0.1-0.1v-0.1h0.1h0.2
				c0.5,0.2,0.9,0.3,1.4,0.4l0,0l0,0l0,0c0.1-0.1,0.5-1.5,0.7-2v-0.1l0,0l0,0l0,0l0,0v-0.1l-0.1-0.2c-0.2-0.1-0.3-0.3-0.3-0.4
				c-0.1-0.3-0.1-0.7,0-1c0.1-1.2,0.3-2.4,0.4-3.6l0.3-1.8c0.8-2.5,1.8-4.8,2.8-7.1c1.7-3.8,3.3-7.8,4.5-11.9c0.5-1.5,1-3.1,1.4-4.6
				c0.5-1.5,0.8-3.1,1.2-4.7c0.3-1,0.3-2-0.1-3.1l-0.5-0.4l-0.2-0.1h-0.1h0.1l0.2,0.1c-2.5-0.9-5.4-1.7-8-2.5
				c-0.5-0.1-1,0.2-1.4,0.6c-0.7,0.7-0.9,1.7-1.4,2.6c-0.4,0.9-0.8,2-1.1,3c-0.8,2-1.4,4.1-2,6.1c-0.7,2.3-1.3,4.6-1.8,6.9
				c-0.3,1.4-0.7,2.9-0.9,4.3c-0.3,1.4-0.7,2.9-0.9,4.3c-0.4,1.4-0.8,2.8-1.3,4.2c-0.3,0.8-0.6,1.4-0.9,2.1s-0.7,1.3-1,2
				c-0.1,0.3-0.3,0.4-0.4,0.7c-0.1,0.2-0.3,0.3-0.3,0.4c-0.1,0.1-0.3,0.1-0.4,0.1l-0.2,0.1h0.1l0,0l0,0l0,0l0,0V81
				c-0.3,0.7-0.4,1.3-0.7,2v0.1l0,0l0,0c0,0,0,0,0.1,0C96.3,83.2,96.7,83.4,97.2,83.6L97.2,83.6L97.2,83.6"/>
		</g>
	</g>
</g>
<line style="fill:none;stroke:#1C3A4A;stroke-width:1.5;stroke-miterlimit:10;" x1="27.6" y1="28.6" x2="27.6" y2="23.5"/>
<line style="fill:none;stroke:#1C3A4A;stroke-width:1.5;stroke-miterlimit:10;" x1="31.17" y1="28.6" x2="31.17" y2="26.27"/>
<line style="fill:none;stroke:#1C3A4A;stroke-width:1.5;stroke-miterlimit:10;" x1="34.83" y1="28.6" x2="34.83" y2="23.5"/>
<line style="fill:none;stroke:#1C3A4A;stroke-width:1.5;stroke-miterlimit:10;" x1="38.39" y1="28.6" x2="38.39" y2="26.27"/>
<line style="fill:none;stroke:#1C3A4A;stroke-width:1.5;stroke-miterlimit:10;" x1="42.06" y1="28.6" x2="42.06" y2="23.5"/>
<line style="fill:none;stroke:#1C3A4A;stroke-width:1.5;stroke-miterlimit:10;" x1="45.62" y1="28.6" x2="45.62" y2="26.27"/>
<line style="fill:none;stroke:#1C3A4A;stroke-width:1.5;stroke-miterlimit:10;" x1="49.19" y1="28.6" x2="49.19" y2="23.5"/>
<line style="fill:none;stroke:#1C3A4A;stroke-width:1.5;stroke-miterlimit:10;" x1="52.85" y1="28.6" x2="52.85" y2="26.27"/>
<line style="fill:none;stroke:#1C3A4A;stroke-width:1.5;stroke-miterlimit:10;" x1="56.42" y1="28.6" x2="56.42" y2="23.5"/>
<line style="fill:none;stroke:#1C3A4A;stroke-width:1.5;stroke-miterlimit:10;" x1="59.98" y1="28.6" x2="59.98" y2="26.27"/>
<line style="fill:none;stroke:#1C3A4A;stroke-width:1.5;stroke-miterlimit:10;" x1="63.64" y1="28.6" x2="63.64" y2="23.5"/>
<line style="fill:none;stroke:#1C3A4A;stroke-width:1.5;stroke-miterlimit:10;" x1="67.21" y1="28.6" x2="67.21" y2="26.27"/>
<line style="fill:none;stroke:#1C3A4A;stroke-width:1.5;stroke-miterlimit:10;" x1="70.87" y1="28.6" x2="70.87" y2="23.5"/>
<line style="fill:none;stroke:#1C3A4A;stroke-width:1.5;stroke-miterlimit:10;" x1="74.53" y1="28.6" x2="74.53" y2="26.27"/>
<line style="fill:none;stroke:#1C3A4A;stroke-width:1.5;stroke-miterlimit:10;" x1="78.01" y1="28.6" x2="78.01" y2="23.5"/>
<line style="fill:none;stroke:#1C3A4A;stroke-width:1.5;stroke-miterlimit:10;" x1="81.67" y1="28.6" x2="81.67" y2="26.27"/>
<line style="fill:none;stroke:#1C3A4A;stroke-width:1.5;stroke-miterlimit:10;" x1="85.14" y1="28.6" x2="85.14" y2="23.5"/>
<line style="fill:none;stroke:#1C3A4A;stroke-width:1.5;stroke-miterlimit:10;" x1="88.8" y1="28.6" x2="88.8" y2="26.27"/>
<line style="fill:none;stroke:#1C3A4A;stroke-width:1.5;stroke-miterlimit:10;" x1="25.1" y1="34.66" x2="22.85" y2="34.66"/>
<line style="fill:none;stroke:#1C3A4A;stroke-width:1.5;stroke-miterlimit:10;" x1="25.1" y1="31.1" x2="20" y2="31.1"/>
<line style="fill:none;stroke:#1C3A4A;stroke-width:1.5;stroke-miterlimit:10;" x1="25.1" y1="88.58" x2="20" y2="88.58"/>
<line style="fill:none;stroke:#1C3A4A;stroke-width:1.5;stroke-miterlimit:10;" x1="25.1" y1="85.02" x2="22.85" y2="85.02"/>
<line style="fill:none;stroke:#1C3A4A;stroke-width:1.5;stroke-miterlimit:10;" x1="25.1" y1="81.37" x2="20" y2="81.37"/>
<line style="fill:none;stroke:#1C3A4A;stroke-width:1.5;stroke-miterlimit:10;" x1="25.1" y1="95.7" x2="20" y2="95.7"/>
<line style="fill:none;stroke:#1C3A4A;stroke-width:1.5;stroke-miterlimit:10;" x1="25.1" y1="92.14" x2="22.85" y2="92.14"/>
<line style="fill:none;stroke:#1C3A4A;stroke-width:1.5;stroke-miterlimit:10;" x1="25.1" y1="88.58" x2="20" y2="88.58"/>
<line style="fill:none;stroke:#1C3A4A;stroke-width:1.5;stroke-miterlimit:10;" x1="25.1" y1="102.91" x2="20" y2="102.91"/>
<line style="fill:none;stroke:#1C3A4A;stroke-width:1.5;stroke-miterlimit:10;" x1="25.1" y1="99.35" x2="22.85" y2="99.35"/>
<line style="fill:none;stroke:#1C3A4A;stroke-width:1.5;stroke-miterlimit:10;" x1="25.1" y1="95.7" x2="20" y2="95.7"/>
<line style="fill:none;stroke:#1C3A4A;stroke-width:1.5;stroke-miterlimit:10;" x1="25.1" y1="106.56" x2="22.85" y2="106.56"/>
<line style="fill:none;stroke:#1C3A4A;stroke-width:1.5;stroke-miterlimit:10;" x1="25.1" y1="102.91" x2="20" y2="102.91"/>
<line style="fill:none;stroke:#1C3A4A;stroke-width:1.5;stroke-miterlimit:10;" x1="25.1" y1="110.11" x2="20" y2="110.11"/>
<line style="fill:none;stroke:#1C3A4A;stroke-width:1.5;stroke-miterlimit:10;" x1="25.1" y1="77.82" x2="22.85" y2="77.82"/>
<line style="fill:none;stroke:#1C3A4A;stroke-width:1.5;stroke-miterlimit:10;" x1="25.1" y1="74.16" x2="20" y2="74.16"/>
<line style="fill:none;stroke:#1C3A4A;stroke-width:1.5;stroke-miterlimit:10;" x1="25.1" y1="70.61" x2="22.85" y2="70.61"/>
<line style="fill:none;stroke:#1C3A4A;stroke-width:1.5;stroke-miterlimit:10;" x1="25.1" y1="66.96" x2="20" y2="66.96"/>
<line style="fill:none;stroke:#1C3A4A;stroke-width:1.5;stroke-miterlimit:10;" x1="25.1" y1="63.3" x2="22.85" y2="63.3"/>
<line style="fill:none;stroke:#1C3A4A;stroke-width:1.5;stroke-miterlimit:10;" x1="25.1" y1="59.84" x2="20" y2="59.84"/>
<line style="fill:none;stroke:#1C3A4A;stroke-width:1.5;stroke-miterlimit:10;" x1="25.1" y1="56.19" x2="22.85" y2="56.19"/>
<line style="fill:none;stroke:#1C3A4A;stroke-width:1.5;stroke-miterlimit:10;" x1="25.1" y1="52.63" x2="20" y2="52.63"/>
<line style="fill:none;stroke:#1C3A4A;stroke-width:1.5;stroke-miterlimit:10;" x1="25.1" y1="48.98" x2="22.85" y2="48.98"/>
<line style="fill:none;stroke:#1C3A4A;stroke-width:1.5;stroke-miterlimit:10;" x1="25.1" y1="45.42" x2="20" y2="45.42"/>
<line style="fill:none;stroke:#1C3A4A;stroke-width:1.5;stroke-miterlimit:10;" x1="25.1" y1="41.87" x2="22.85" y2="41.87"/>
<line style="fill:none;stroke:#1C3A4A;stroke-width:1.5;stroke-miterlimit:10;" x1="25.1" y1="38.31" x2="20" y2="38.31"/>
</svg>
