<?xml version="1.0" encoding="utf-8"?>
<!-- Generator: Adobe Illustrator 19.2.1, SVG Export Plug-In . SVG Version: 6.00 Build 0)  -->
<!DOCTYPE svg PUBLIC "-//W3C//DTD SVG 1.1//EN" "http://www.w3.org/Graphics/SVG/1.1/DTD/svg11.dtd">
<svg version="1.1" id="Layer_1" xmlns="http://www.w3.org/2000/svg" xmlns:xlink="http://www.w3.org/1999/xlink" x="0px" y="0px"
	 width="144px" height="144px" viewBox="0 0 144 144" style="enable-background:new 0 0 144 144;" xml:space="preserve">
<g id="Sweep">
</g>
<g id="Layer_1_1_">
	<path style="fill:#728888;" d="M109.2,71.7c-0.6-4.6-0.4-9.4,0-14l2.2-25.4H32.9c0,0,2.3,25.3,2.3,25.4c0.4,4.6,0.5,9.4,0,13.9
		C34.4,78,31.1,83.2,28,88.7l-11.6,21h111.1C127.5,109.7,110,78.1,109.2,71.7z"/>
	<g>
		<g style="enable-background:new    ;">
			<g>
				
					<polygon style="fill:#E04300;stroke:#000000;stroke-width:1.9588;stroke-linecap:round;stroke-linejoin:round;stroke-miterlimit:10;" points="
					71.7,55.8 86,59.3 71.7,63.7 58,59.2 				"/>
			</g>
			<g>
				
					<polygon style="fill:#E04300;stroke:#000000;stroke-width:1.9588;stroke-linecap:round;stroke-linejoin:round;stroke-miterlimit:10;" points="
					86,59.3 85.4,76.9 71.7,83.9 71.7,63.7 				"/>
			</g>
			<g>
				
					<polygon style="fill:#E04300;stroke:#000000;stroke-width:1.9588;stroke-linecap:round;stroke-linejoin:round;stroke-miterlimit:10;" points="
					71.7,63.7 71.7,83.9 58.6,76.8 58,59.2 				"/>
			</g>
		</g>
	</g>
	<g>
		<path style="fill:#FFFFFF;" d="M61.9,32.7v-4.2c-0.3-1.8-1.4-3.5-3.1-4.4c-0.8-0.4-2.1,1-2.6,1.4c-3.7,2.8-7.7,5.2-11.6,7.8
			c-2.1,1.4-5,2.6-6.5,4.6c-2.5,3.4-3.1,7.7-4.9,11.4c-1,2.2-2.3,4.2-3.1,6.5c-0.6,1.7-1.2,3.3-2,4.8c-1.9,3.7-4.4,7.1-7.4,10
			l-4.5,3.7c0,0-2.5,8.88,0,15.58s5.97,8.47,5.97,8.47L25.5,97L40,78.38L61.9,32.7z"/>
		<path style="fill:#FFFFFF;" d="M33.2,53.8c0.8-0.6,1.9-1.6,3.1-2.9c1.7-1.8,3-4,4.5-6c1.9-2.6,3.7-5.3,5.5-8
			c0.5-0.7,0.9-1.4,1.5-2c0.8-0.7,1.6-0.9,2-1c2.2-0.7,4-2.1,6.1-3c2.2-1,4.6-1.8,6.9-2.4c3.6-0.9,3.4-0.9,5.9-1.4
			c3.3-0.7,4.7-0.6,5.4-0.7c0.8,0,1.2,0.1,1.4,0.3c1.1,0.7,0.9,2.5,0.9,2.6c-0.2,1.5-0.9,2.2-1.5,2.5c-0.7,0.3-5.9,2.8-6.3,2.8
			c0,0-0.2,0-0.4,0.1c-0.3,0.1-0.6,0.1-0.9,0.2c-1.7,0.4-2.7,1.1-3.9,2.3c-1.6,1.7-3.9,2.1-5.9,3c-1.9,0.9-3.6,2.2-5.1,3.8
			c-2.8,6.3-5.6,12.5-8.4,18.8"/>
		<path style="fill:#FFFFFF;" d="M34.6,55.4c1.1-0.3,2.9-0.8,4.9-1.8c3.2-1.6,5.3-3.6,7.9-6.1C51.9,43.2,53,42,53,42
			c1.3-1.3,2.1-2.3,3.7-2.8c1.1-0.3,1.8-0.1,4.6,0.4c6.4,1.3,7.6,1.3,8.9,2.7c0.1,0.1,0.7,0.9,1.5,2.4c1.1,2.2,2,4.5,3.2,6.7
			c0.3,0.6,0.6,1.1,0.4,1.7c-0.3,1-1.9,1.6-3.1,1.5c-1.5,0-2.7-0.9-3.2-1.4c-1.7-1.4-1.5-2.8-3.1-3.5c-0.3-0.1-0.3-0.1-2-0.4
			c-3.2-0.6-3.4-0.9-4-0.7c-1.2,0.4-2.2,3.3-3.6,5.6c-2.4,6.1-7.9,11.6-8.9,18.1c-0.4,2.4,1.8,10.2,3.5,11.8c1.7,1.5,5.2,1.2,7,1.3
			c1.8,0.1,2.4-0.4,6.6-1.1c1.6-0.3,2.6-0.4,4-0.5c1.8-0.1,4-0.2,6.5,0.6c0.7,0.2,1.9,0.7,3.1,1.7c0.6,0.5,1,0.9,1.4,1.7
			c0.4,0.7,0.7,2,0.1,2.7c-0.8,0.8-2.5,1-3.6,1.3c-1.5,0.4-3,0.8-4.5,1.4c-1.6,0.6-3.2,1.5-4.8,2c-2.6,0.7-5.4,0-8,0.3
			c-2.7,0.3-5.4,0.8-8.2,1.1C41.1,97.7,39,95,31.1,96l-5.6,1"/>
	</g>
	<g>
		<path d="M89.4,31.5l-0.1,0.4l-1.6-0.8l-3.4,1l-7.2,5.4l2.1,11l8.6,0.9l3.3-0.9l1.2-1.3l0.5,0.4l-0.9,1.5l0.3,2.6L91,58.9l1.2,2.8
			l11.3-1.7l-2.1,28.8c0,0-0.3,0-0.6,0.4l-0.3-0.1l-0.1,0.1l-0.1,0.5l-0.3,0.4v0.1l0.2,0.1h0.1v0.2l0.2,0.1h0.1l-1.2,0.7l-1.3,0.4
			L98,92.4l-20.5,20.7l-0.9,1c0,0-0.4-0.1-0.6,0s-1.2,0.8-1.4,1.7s0.4,1.3,0.6,1.7c0.3,0.3,1.2,0.7,2.1,0s0.9-1.3,0.8-1.6L89.3,105
			l8.4,0.6l3.1-0.3l2.9,1.2l7.8,2l8.7,14.3l0.5,0.7c0,0-0.3,0.4,0,1.1s0.9,1.3,1.4,1.6s1,0.2,1.7-0.2c0.6-0.4,0.8-0.8,0.8-1.4
			s-0.5-1.6-1.1-2c-0.3-0.2-0.6-0.2-0.6-0.2l-17.5-28.8v-0.8l-1.4-0.9l-0.6-1.5c0,0,0-0.4,0.1-0.6c0-0.2-0.2-0.7-0.6-0.8l2.3-30.9
			l0.9-1.2l1.6-7l-0.2-2.6l-0.9-1.2l0.4-0.4l1,0.8l0.9,0.3l1.3-1.9l-1-4.9c0,0,0.6-0.3,1.3-0.8c0.7-0.4,2.7-2.1,2.7-5.1
			c0-4.5-3.7-8-7-8c-2.3,0-3.2,0.9-3.2,0.9l-3.8-3.2L96,22.7l-11.6,0.6L84.1,25l3.4,3.4l0.7,2.2L89.4,31.5z M99.8,103.5l-2.1,0.4
			l-6.7-0.5l7.9-8l0.2,0.3h0.4l0.1,0.2h0.7L99.8,103.5z M104.2,104.9l-1.9-1.1l0.1-1.4l0.4-2.7c1.1,0.1,1.6-0.7,1.6-1.4
			c0-0.7-0.5-1.1-0.5-1.1l-0.1-1l0.1-0.1l6.2,10.2L104.2,104.9z"/>
	</g>
</g>
</svg>
