<?xml version="1.0" encoding="utf-8"?>
<!-- Generator: Adobe Illustrator 19.2.1, SVG Export Plug-In . SVG Version: 6.00 Build 0)  -->
<!DOCTYPE svg PUBLIC "-//W3C//DTD SVG 1.1//EN" "http://www.w3.org/Graphics/SVG/1.1/DTD/svg11.dtd">
<svg version="1.1" id="Layer_1" xmlns="http://www.w3.org/2000/svg" xmlns:xlink="http://www.w3.org/1999/xlink" x="0px" y="0px"
	 width="144px" height="144px" viewBox="0 0 144 144" style="enable-background:new 0 0 144 144;" xml:space="preserve">
<polygon style="fill:none;stroke:#1C3A4A;stroke-width:1.5;stroke-linecap:round;stroke-miterlimit:10;" points="20.2,105.01 
	20.2,26.2 81.1,26.2 81.1,90.51 66.6,105.01 "/>
<g id="Background">
</g>
<g id="Document">
	<line style="fill:none;stroke:#1C3A4A;stroke-width:1.5;stroke-miterlimit:10;" x1="19.9" y1="23.5" x2="19.9" y2="18.4"/>
	<line style="fill:none;stroke:#1C3A4A;stroke-width:1.5;stroke-miterlimit:10;" x1="23.47" y1="23.5" x2="23.47" y2="21.17"/>
	<line style="fill:none;stroke:#1C3A4A;stroke-width:1.5;stroke-miterlimit:10;" x1="27.13" y1="23.5" x2="27.13" y2="18.4"/>
	<line style="fill:none;stroke:#1C3A4A;stroke-width:1.5;stroke-miterlimit:10;" x1="30.69" y1="23.5" x2="30.69" y2="21.17"/>
	<line style="fill:none;stroke:#1C3A4A;stroke-width:1.5;stroke-miterlimit:10;" x1="34.36" y1="23.5" x2="34.36" y2="18.4"/>
	<line style="fill:none;stroke:#1C3A4A;stroke-width:1.5;stroke-miterlimit:10;" x1="37.92" y1="23.5" x2="37.92" y2="21.17"/>
	<line style="fill:none;stroke:#1C3A4A;stroke-width:1.5;stroke-miterlimit:10;" x1="41.49" y1="23.5" x2="41.49" y2="18.4"/>
	<line style="fill:none;stroke:#1C3A4A;stroke-width:1.5;stroke-miterlimit:10;" x1="45.15" y1="23.5" x2="45.15" y2="21.17"/>
	<line style="fill:none;stroke:#1C3A4A;stroke-width:1.5;stroke-miterlimit:10;" x1="48.72" y1="23.5" x2="48.72" y2="18.4"/>
	<line style="fill:none;stroke:#1C3A4A;stroke-width:1.5;stroke-miterlimit:10;" x1="52.28" y1="23.5" x2="52.28" y2="21.17"/>
	<line style="fill:none;stroke:#1C3A4A;stroke-width:1.5;stroke-miterlimit:10;" x1="55.94" y1="23.5" x2="55.94" y2="18.4"/>
	<line style="fill:none;stroke:#1C3A4A;stroke-width:1.5;stroke-miterlimit:10;" x1="59.51" y1="23.5" x2="59.51" y2="21.17"/>
	<line style="fill:none;stroke:#1C3A4A;stroke-width:1.5;stroke-miterlimit:10;" x1="63.17" y1="23.5" x2="63.17" y2="18.4"/>
	<line style="fill:none;stroke:#1C3A4A;stroke-width:1.5;stroke-miterlimit:10;" x1="66.83" y1="23.5" x2="66.83" y2="21.17"/>
	<line style="fill:none;stroke:#1C3A4A;stroke-width:1.5;stroke-miterlimit:10;" x1="70.31" y1="23.5" x2="70.31" y2="18.4"/>
	<line style="fill:none;stroke:#1C3A4A;stroke-width:1.5;stroke-miterlimit:10;" x1="73.97" y1="23.5" x2="73.97" y2="21.17"/>
	<line style="fill:none;stroke:#1C3A4A;stroke-width:1.5;stroke-miterlimit:10;" x1="77.44" y1="23.5" x2="77.44" y2="18.4"/>
	<line style="fill:none;stroke:#1C3A4A;stroke-width:1.5;stroke-miterlimit:10;" x1="81.1" y1="23.5" x2="81.1" y2="21.17"/>
	<line style="fill:none;stroke:#1C3A4A;stroke-width:1.5;stroke-miterlimit:10;" x1="17.4" y1="29.56" x2="15.15" y2="29.56"/>
	<line style="fill:none;stroke:#1C3A4A;stroke-width:1.5;stroke-miterlimit:10;" x1="17.4" y1="26" x2="12.3" y2="26"/>
	<line style="fill:none;stroke:#1C3A4A;stroke-width:1.5;stroke-miterlimit:10;" x1="17.4" y1="83.48" x2="12.3" y2="83.48"/>
	<line style="fill:none;stroke:#1C3A4A;stroke-width:1.5;stroke-miterlimit:10;" x1="17.4" y1="79.92" x2="15.15" y2="79.92"/>
	<line style="fill:none;stroke:#1C3A4A;stroke-width:1.5;stroke-miterlimit:10;" x1="17.4" y1="76.27" x2="12.3" y2="76.27"/>
	<line style="fill:none;stroke:#1C3A4A;stroke-width:1.5;stroke-miterlimit:10;" x1="17.4" y1="90.6" x2="12.3" y2="90.6"/>
	<line style="fill:none;stroke:#1C3A4A;stroke-width:1.5;stroke-miterlimit:10;" x1="17.4" y1="87.04" x2="15.15" y2="87.04"/>
	<line style="fill:none;stroke:#1C3A4A;stroke-width:1.5;stroke-miterlimit:10;" x1="17.4" y1="83.48" x2="12.3" y2="83.48"/>
	<line style="fill:none;stroke:#1C3A4A;stroke-width:1.5;stroke-miterlimit:10;" x1="17.4" y1="97.81" x2="12.3" y2="97.81"/>
	<line style="fill:none;stroke:#1C3A4A;stroke-width:1.5;stroke-miterlimit:10;" x1="17.4" y1="94.25" x2="15.15" y2="94.25"/>
	<line style="fill:none;stroke:#1C3A4A;stroke-width:1.5;stroke-miterlimit:10;" x1="17.4" y1="90.6" x2="12.3" y2="90.6"/>
	<line style="fill:none;stroke:#1C3A4A;stroke-width:1.5;stroke-miterlimit:10;" x1="17.4" y1="101.46" x2="15.15" y2="101.46"/>
	<line style="fill:none;stroke:#1C3A4A;stroke-width:1.5;stroke-miterlimit:10;" x1="17.4" y1="97.81" x2="12.3" y2="97.81"/>
	<line style="fill:none;stroke:#1C3A4A;stroke-width:1.5;stroke-miterlimit:10;" x1="17.4" y1="105.01" x2="12.3" y2="105.01"/>
	<line style="fill:none;stroke:#1C3A4A;stroke-width:1.5;stroke-miterlimit:10;" x1="17.4" y1="72.72" x2="15.15" y2="72.72"/>
	<line style="fill:none;stroke:#1C3A4A;stroke-width:1.5;stroke-miterlimit:10;" x1="17.4" y1="69.06" x2="12.3" y2="69.06"/>
	<line style="fill:none;stroke:#1C3A4A;stroke-width:1.5;stroke-miterlimit:10;" x1="17.4" y1="65.51" x2="15.15" y2="65.51"/>
	<line style="fill:none;stroke:#1C3A4A;stroke-width:1.5;stroke-miterlimit:10;" x1="17.4" y1="61.86" x2="12.3" y2="61.86"/>
	<line style="fill:none;stroke:#1C3A4A;stroke-width:1.5;stroke-miterlimit:10;" x1="17.4" y1="58.2" x2="15.15" y2="58.2"/>
	<line style="fill:none;stroke:#1C3A4A;stroke-width:1.5;stroke-miterlimit:10;" x1="17.4" y1="54.74" x2="12.3" y2="54.74"/>
	<line style="fill:none;stroke:#1C3A4A;stroke-width:1.5;stroke-miterlimit:10;" x1="17.4" y1="51.09" x2="15.15" y2="51.09"/>
	<line style="fill:none;stroke:#1C3A4A;stroke-width:1.5;stroke-miterlimit:10;" x1="17.4" y1="47.53" x2="12.3" y2="47.53"/>
	<line style="fill:none;stroke:#1C3A4A;stroke-width:1.5;stroke-miterlimit:10;" x1="17.4" y1="43.88" x2="15.15" y2="43.88"/>
	<line style="fill:none;stroke:#1C3A4A;stroke-width:1.5;stroke-miterlimit:10;" x1="17.4" y1="40.32" x2="12.3" y2="40.32"/>
	<line style="fill:none;stroke:#1C3A4A;stroke-width:1.5;stroke-miterlimit:10;" x1="17.4" y1="36.77" x2="15.15" y2="36.77"/>
	<line style="fill:none;stroke:#1C3A4A;stroke-width:1.5;stroke-miterlimit:10;" x1="17.4" y1="33.21" x2="12.3" y2="33.21"/>
	<path style="fill:none;stroke:#000000;stroke-width:3.181351e-03;stroke-miterlimit:10;" d="M61,91.3"/>
	
		<polyline style="fill:none;stroke:#1C3A4A;stroke-width:1.5;stroke-linecap:round;stroke-linejoin:round;stroke-miterlimit:10;" points="
		81.1,90.51 66.6,90.51 66.6,105.01 	"/>
</g>
<g id="Coding">
	<path style="fill:#F7BD00;stroke:#FFFFFF;stroke-width:1.5;stroke-miterlimit:10;" d="M32.8,34.37c-3.1,0-5.6,2.53-5.6,5.63v3.2
		h68.5v-3.3c0-3.1-2.5-5.53-5.6-5.53L32.8,34.37L32.8,34.37z"/>
	<rect x="28.7" y="41.7" style="fill:#FFFFFF;stroke:#F7BD00;stroke-width:1.5;stroke-miterlimit:10;" width="65.5" height="45"/>
</g>
<path style="fill:none;stroke:#FFFFFF;stroke-width:3;stroke-miterlimit:10;" d="M88.66,81.48l2.9,0.95l-1.06,3.48l-9.1,28.6
	l-2.15,3.28l-0.12,4.86l2.67,0.97l2.67-4.13l0.13-4.08l9-28.5l1.04-3.49l2.96,0.99c0,0,0.5-1.9,0.8-2.7l0.1-0.1v-0.1h0.3
	c0.5,0.2,0.9,0.3,1.4,0.4c0.1-0.1,0.5-1.5,0.7-2v-0.2l-0.1-0.2c-0.2-0.1-0.3-0.3-0.3-0.4c-0.1-0.3-0.1-0.7,0-1
	c0.1-1.2,0.3-2.4,0.4-3.6l0.3-1.8c0.8-2.5,1.8-4.8,2.8-7.1c1.7-3.8,3.3-7.8,4.5-11.9c0.5-1.5,1-3.1,1.4-4.6c0.5-1.5,0.8-3.1,1.2-4.7
	c0.3-1,0.3-2-0.1-3.1l-0.5-0.4c-2.5-0.9-5.4-1.7-8-2.5c-0.5-0.1-1,0.2-1.4,0.6c-0.7,0.7-0.9,1.7-1.4,2.6c-0.4,0.9-0.8,2-1.1,3
	c-0.8,2-1.4,4.1-2,6.1c-0.7,2.3-1.3,4.6-1.8,6.9c-0.3,1.4-0.7,2.9-0.9,4.3c-0.3,1.4-0.7,2.9-0.9,4.3c-0.4,1.4-0.8,2.8-1.3,4.2
	c-0.33,0.93-0.75,1.82-1.19,2.7c-0.23,0.46-0.46,0.92-0.69,1.38c-0.19,0.38-0.36,0.81-0.69,1.09c-0.02,0.01-0.03,0.03-0.05,0.04
	c-0.03,0.02-0.51,0.16-0.51,0.16L87.9,77.9l1.6,0.6L88.66,81.48z"/>
<g>
	<path style="fill:#1C3A4A;" d="M114.8,76.7l1.9,0.5l5.8-8.6c0.6-0.8,0.7-1-0.5-1.1c-1.1-0.1-2.4-0.1-4.2,0.6s-5.4,3.1-6.3,4.5
		s-0.8,1.5-0.8,1.5L114.8,76.7z"/>
	<path style="fill:#1C3A4A;" d="M130.5,74.1c-0.2-0.7-1-0.8-1.3-0.3l-5.2,7.4c-0.2,0.2-0.4,0.3-0.7,0.3l-2.6-0.1
		c-0.1-0.1-0.3-0.1-0.4-0.2l-12.8-8.6c-0.4-0.4-1,0-1.1,0.8c-1.6,7.6-4,9.9-6.6,13.3c-2.7,3.6-8.4,7.3-12.1,10
		c-3.7,2.6-26.8,17.8-29.3,19.5c-2.4,1.7-2.6,4.5-1.4,6.4c1.2,1.8,3.9,3.1,6.9,1c3-2.2,33.6-24.4,41.1-29.2
		c7.5-4.9,11.8-4.3,14.1-4.1c2.3,0.2,6.4,0.4,8.4-2.1c2.7-3.4,3.2-6.6,3.4-10.2C131,76.2,130.8,74.9,130.5,74.1z M64.1,120
		c-0.2,1.5-1.4,2.7-3,2.5s-2.7-1.4-2.5-3s1.4-2.7,3-2.5C63.2,117.2,64.3,118.5,64.1,120z M111.54,86.12
		c-0.14,0.22-0.38,0.33-0.62,0.33c-0.14,0-0.29-0.04-0.42-0.13l-3.94-2.65c-0.34-0.23-0.44-0.7-0.2-1.04
		c0.23-0.34,0.7-0.44,1.04-0.2l3.94,2.65C111.68,85.31,111.77,85.78,111.54,86.12z M114.27,82.08c-0.15,0.22-0.38,0.33-0.62,0.33
		c-0.14,0-0.29-0.04-0.42-0.13l-3.94-2.65c-0.34-0.23-0.44-0.7-0.21-1.04c0.23-0.34,0.7-0.44,1.04-0.21l3.94,2.65
		C114.41,81.27,114.5,81.73,114.27,82.08z"/>
</g>
<circle style="fill:#FFFFFF;" cx="32.8" cy="38.4" r="1.6"/>
<circle style="fill:#FFFFFF;" cx="38" cy="38.4" r="1.6"/>
<circle style="fill:#FFFFFF;" cx="43.3" cy="38.4" r="1.6"/>
<path style="fill:#E04300;" d="M88.66,81.48l2.9,0.95l-1.06,3.48l-9.1,28.6l-2.15,3.28l-0.12,4.86l2.67,0.97l2.67-4.13l0.13-4.08
	l9-28.5l1.04-3.49l2.96,0.99c0,0,0.5-1.9,0.8-2.7l0.1-0.1v-0.1h0.3c0.5,0.2,0.9,0.3,1.4,0.4c0.1-0.1,0.5-1.5,0.7-2v-0.2l-0.1-0.2
	c-0.2-0.1-0.3-0.3-0.3-0.4c-0.1-0.3-0.1-0.7,0-1c0.1-1.2,0.3-2.4,0.4-3.6l0.3-1.8c0.8-2.5,1.8-4.8,2.8-7.1c1.7-3.8,3.3-7.8,4.5-11.9
	c0.5-1.5,1-3.1,1.4-4.6c0.5-1.5,0.8-3.1,1.2-4.7c0.3-1,0.3-2-0.1-3.1l-0.5-0.4c-2.5-0.9-5.4-1.7-8-2.5c-0.5-0.1-1,0.2-1.4,0.6
	c-0.7,0.7-0.9,1.7-1.4,2.6c-0.4,0.9-0.8,2-1.1,3c-0.8,2-1.4,4.1-2,6.1c-0.7,2.3-1.3,4.6-1.8,6.9c-0.3,1.4-0.7,2.9-0.9,4.3
	c-0.3,1.4-0.7,2.9-0.9,4.3c-0.4,1.4-0.8,2.8-1.3,4.2c-0.33,0.93-0.75,1.82-1.19,2.7c-0.23,0.46-0.46,0.92-0.69,1.38
	c-0.19,0.38-0.36,0.81-0.69,1.09c-0.02,0.01-0.03,0.03-0.05,0.04c-0.03,0.02-0.51,0.16-0.51,0.16L87.9,77.9l1.6,0.6L88.66,81.48z"/>
<path style="fill:#F7BD00;" d="M63.1,77.4H67l-8-25.2h-3.9L63.1,77.4z M41.4,65.3l12.1,4.9v3.7l-17.3-7.2v-3l17.3-7.1v3.7L41.4,65.3
	z M86.6,63.8v3L69.3,74v-3.7l12.1-4.9l-12.1-4.9v-3.7L86.6,63.8z"/>
</svg>
