<?xml version="1.0" encoding="utf-8"?>
<!-- Generator: Adobe Illustrator 19.2.1, SVG Export Plug-In . SVG Version: 6.00 Build 0)  -->
<!DOCTYPE svg PUBLIC "-//W3C//DTD SVG 1.1//EN" "http://www.w3.org/Graphics/SVG/1.1/DTD/svg11.dtd">
<svg version="1.1" id="Layer_1" xmlns="http://www.w3.org/2000/svg" xmlns:xlink="http://www.w3.org/1999/xlink" x="0px" y="0px"
	 width="144px" height="144px" viewBox="0 0 144 144" style="enable-background:new 0 0 144 144;" xml:space="preserve">
<g id="Background">
</g>
<g id="Document">
	<g>
		<rect x="26.85" y="23.5" style="fill:#FFFFFF;" width="1.5" height="5.1"/>
	</g>
	<g>
		<rect x="30.42" y="26.27" style="fill:#FFFFFF;" width="1.5" height="2.33"/>
	</g>
	<g>
		<rect x="34.08" y="23.5" style="fill:#FFFFFF;" width="1.5" height="5.1"/>
	</g>
	<g>
		<rect x="37.64" y="26.27" style="fill:#FFFFFF;" width="1.5" height="2.33"/>
	</g>
	<g>
		<rect x="41.3" y="23.5" style="fill:#FFFFFF;" width="1.5" height="5.1"/>
	</g>
	<g>
		<rect x="44.87" y="26.27" style="fill:#FFFFFF;" width="1.5" height="2.33"/>
	</g>
	<g>
		<rect x="48.44" y="23.5" style="fill:#FFFFFF;" width="1.5" height="5.1"/>
	</g>
	<g>
		<rect x="52.1" y="26.27" style="fill:#FFFFFF;" width="1.5" height="2.33"/>
	</g>
	<g>
		<rect x="55.67" y="23.5" style="fill:#FFFFFF;" width="1.5" height="5.1"/>
	</g>
	<g>
		<rect x="59.23" y="26.27" style="fill:#FFFFFF;" width="1.5" height="2.33"/>
	</g>
	<g>
		<rect x="62.89" y="23.5" style="fill:#FFFFFF;" width="1.5" height="5.1"/>
	</g>
	<g>
		<rect x="66.46" y="26.27" style="fill:#FFFFFF;" width="1.5" height="2.33"/>
	</g>
	<g>
		<rect x="70.12" y="23.5" style="fill:#FFFFFF;" width="1.5" height="5.1"/>
	</g>
	<g>
		<rect x="73.78" y="26.27" style="fill:#FFFFFF;" width="1.5" height="2.33"/>
	</g>
	<g>
		<rect x="77.26" y="23.5" style="fill:#FFFFFF;" width="1.5" height="5.1"/>
	</g>
	<g>
		<rect x="80.92" y="26.27" style="fill:#FFFFFF;" width="1.5" height="2.33"/>
	</g>
	<g>
		<rect x="84.39" y="23.5" style="fill:#FFFFFF;" width="1.5" height="5.1"/>
	</g>
	<g>
		<rect x="88.05" y="26.27" style="fill:#FFFFFF;" width="1.5" height="2.33"/>
	</g>
	<g>
		<rect x="22.85" y="33.91" style="fill:#FFFFFF;" width="2.25" height="1.5"/>
	</g>
	<g>
		<rect x="20" y="30.35" style="fill:#FFFFFF;" width="5.1" height="1.5"/>
	</g>
	<g>
		<rect x="20" y="87.83" style="fill:#FFFFFF;" width="5.1" height="1.5"/>
	</g>
	<g>
		<rect x="22.85" y="84.27" style="fill:#FFFFFF;" width="2.25" height="1.5"/>
	</g>
	<g>
		<rect x="20" y="80.62" style="fill:#FFFFFF;" width="5.1" height="1.5"/>
	</g>
	<g>
		<rect x="20" y="94.95" style="fill:#FFFFFF;" width="5.1" height="1.5"/>
	</g>
	<g>
		<rect x="22.85" y="91.39" style="fill:#FFFFFF;" width="2.25" height="1.5"/>
	</g>
	<g>
		<rect x="20" y="87.83" style="fill:#FFFFFF;" width="5.1" height="1.5"/>
	</g>
	<g>
		<rect x="20" y="102.16" style="fill:#FFFFFF;" width="5.1" height="1.5"/>
	</g>
	<g>
		<rect x="22.85" y="98.6" style="fill:#FFFFFF;" width="2.25" height="1.5"/>
	</g>
	<g>
		<rect x="20" y="94.95" style="fill:#FFFFFF;" width="5.1" height="1.5"/>
	</g>
	<g>
		<rect x="22.85" y="105.81" style="fill:#FFFFFF;" width="2.25" height="1.5"/>
	</g>
	<g>
		<rect x="20" y="102.16" style="fill:#FFFFFF;" width="5.1" height="1.5"/>
	</g>
	<g>
		<rect x="20" y="109.36" style="fill:#FFFFFF;" width="5.1" height="1.5"/>
	</g>
	<g>
		<rect x="22.85" y="77.07" style="fill:#FFFFFF;" width="2.25" height="1.5"/>
	</g>
	<g>
		<rect x="20" y="73.41" style="fill:#FFFFFF;" width="5.1" height="1.5"/>
	</g>
	<g>
		<rect x="22.85" y="69.86" style="fill:#FFFFFF;" width="2.25" height="1.5"/>
	</g>
	<g>
		<rect x="20" y="66.21" style="fill:#FFFFFF;" width="5.1" height="1.5"/>
	</g>
	<g>
		<rect x="22.85" y="62.56" style="fill:#FFFFFF;" width="2.25" height="1.5"/>
	</g>
	<g>
		<rect x="20" y="59.09" style="fill:#FFFFFF;" width="5.1" height="1.5"/>
	</g>
	<g>
		<rect x="22.85" y="55.44" style="fill:#FFFFFF;" width="2.25" height="1.5"/>
	</g>
	<g>
		<rect x="20" y="51.88" style="fill:#FFFFFF;" width="5.1" height="1.5"/>
	</g>
	<g>
		<rect x="22.85" y="48.23" style="fill:#FFFFFF;" width="2.25" height="1.5"/>
	</g>
	<g>
		<rect x="20" y="44.67" style="fill:#FFFFFF;" width="5.1" height="1.5"/>
	</g>
	<g>
		<rect x="22.85" y="41.12" style="fill:#FFFFFF;" width="2.25" height="1.5"/>
	</g>
	<g>
		<rect x="20" y="37.56" style="fill:#FFFFFF;" width="5.1" height="1.5"/>
	</g>
	<g>
		<path style="fill:#FFFFFF;" d="M68.7,96.4"/>
	</g>
</g>
<g>
	<g>
		<path style="fill:#FFFFFF;" d="M122.5,81.8l1.9,0.5l5.8-8.6c0.6-0.8,0.7-1-0.5-1.1c-1.1-0.1-2.4-0.1-4.2,0.6s-5.4,3.1-6.3,4.5
			s-0.8,1.5-0.8,1.5L122.5,81.8z"/>
	</g>
	<g>
		<path style="fill:#FFFFFF;" d="M138.2,79.2c-0.2-0.7-1-0.8-1.3-0.3l-5.2,7.4c-0.2,0.2-0.4,0.3-0.7,0.3l-2.6-0.1
			c-0.1-0.1-0.3-0.1-0.4-0.2l-12.8-8.6c-0.4-0.4-1,0-1.1,0.8c-1.6,7.6-4,9.9-6.6,13.3c-2.7,3.6-8.4,7.3-12.1,10
			c-3.7,2.6-26.8,17.8-29.3,19.5c-2.4,1.7-2.6,4.5-1.4,6.4c1.2,1.8,3.9,3.1,6.9,1c3-2.2,33.6-24.4,41.1-29.2
			c7.5-4.9,11.8-4.3,14.1-4.1c2.3,0.2,6.4,0.4,8.4-2.1c2.7-3.4,3.2-6.6,3.4-10.2C138.7,81.3,138.5,80,138.2,79.2z M71.8,125.1
			c-0.2,1.5-1.4,2.7-3,2.5s-2.7-1.4-2.5-3c0.2-1.6,1.4-2.7,3-2.5C70.9,122.3,72,123.6,71.8,125.1z M119.24,91.22
			c-0.14,0.22-0.38,0.33-0.62,0.33c-0.14,0-0.29-0.04-0.42-0.13l-3.94-2.65c-0.34-0.23-0.44-0.7-0.2-1.04
			c0.23-0.34,0.7-0.44,1.04-0.2l3.94,2.65C119.38,90.41,119.47,90.88,119.24,91.22z M121.97,87.18c-0.15,0.22-0.38,0.33-0.62,0.33
			c-0.14,0-0.29-0.04-0.42-0.13l-3.94-2.65c-0.34-0.23-0.44-0.7-0.21-1.04c0.23-0.34,0.7-0.44,1.04-0.21l3.94,2.65
			C122.11,86.37,122.2,86.83,121.97,87.18z"/>
	</g>
</g>
<path style="fill:#FFFFFF;" d="M97.8,37.72H40.5c-2.67,0-4.85,2.19-4.85,4.88v47.45H96.9l0.48-1.5H37.15v-43.5h64V61.9
	c0.43-1.92,0.93-3.85,1.5-5.77V42.5C102.65,39.82,100.52,37.72,97.8,37.72z M40.5,42.6c-0.88,0-1.6-0.72-1.6-1.6s0.72-1.6,1.6-1.6
	s1.6,0.72,1.6,1.6S41.38,42.6,40.5,42.6z M45.7,42.6c-0.88,0-1.6-0.72-1.6-1.6s0.72-1.6,1.6-1.6s1.6,0.72,1.6,1.6
	S46.58,42.6,45.7,42.6z M51,42.6c-0.88,0-1.6-0.72-1.6-1.6s0.72-1.6,1.6-1.6c0.88,0,1.6,0.72,1.6,1.6S51.88,42.6,51,42.6z"/>
<g>
	<path style="fill:#FFFFFF;" d="M96.36,86.58l2.9,0.95l-1.06,3.48l-9.1,28.6l-2.15,3.28l-0.12,4.86l2.67,0.97l2.67-4.13l0.13-4.08
		l9-28.5l1.04-3.49l2.96,0.99c0,0,0.5-1.9,0.8-2.7l0.1-0.1v-0.1h0.3c0.5,0.2,0.9,0.3,1.4,0.4c0.1-0.1,0.5-1.5,0.7-2v-0.2l-0.1-0.2
		c-0.2-0.1-0.3-0.3-0.3-0.4c-0.1-0.3-0.1-0.7,0-1c0.1-1.2,0.3-2.4,0.4-3.6l0.3-1.8c0.8-2.5,1.8-4.8,2.8-7.1
		c1.7-3.8,3.3-7.8,4.5-11.9c0.5-1.5,1-3.1,1.4-4.6c0.5-1.5,0.8-3.1,1.2-4.7c0.3-1,0.3-2-0.1-3.1l-0.5-0.4c-2.5-0.9-5.4-1.7-8-2.5
		c-0.5-0.1-1,0.2-1.4,0.6c-0.7,0.7-0.9,1.7-1.4,2.6c-0.4,0.9-0.8,2-1.1,3c-0.8,2-1.4,4.1-2,6.1c-0.7,2.3-1.3,4.6-1.8,6.9
		c-0.3,1.4-0.7,2.9-0.9,4.3c-0.3,1.4-0.7,2.9-0.9,4.3c-0.4,1.4-0.8,2.8-1.3,4.2c-0.33,0.93-0.75,1.82-1.19,2.7
		c-0.23,0.46-0.46,0.92-0.69,1.38c-0.19,0.38-0.36,0.81-0.69,1.09c-0.02,0.01-0.03,0.03-0.05,0.04c-0.03,0.02-0.51,0.16-0.51,0.16
		L95.6,83l1.6,0.6L96.36,86.58z"/>
</g>
<g>
	<path style="fill:#FFFFFF;" d="M70.8,80h3.9l-8-25.2h-3.9L70.8,80z M49.1,67.9l12.1,4.9v3.7l-17.3-7.2v-3l17.3-7.1v3.7L49.1,67.9z
		 M94.3,66.4v3L77,76.6v-3.7L89.1,68L77,63.1v-3.7L94.3,66.4z"/>
</g>
<path style="fill:#FFFFFF;" d="M89.55,36.22v-5.67h-62.4v80.31h47.46l0.22-0.22l0,0l14.72-14.72v-4.38h-1.5v3.31H74.3
	c-0.41,0-0.75,0.34-0.75,0.75v13.75h-44.9v-77.3h59.4v4.17H89.55z M86.99,96.36L75.05,108.3V96.36H86.99z"/>
</svg>
