<svg version="1.1" xmlns="http://www.w3.org/2000/svg" xmlns:xlink="http://www.w3.org/1999/xlink" width="110px" height="110px" viewbox="0 20 220 198" xml:space="preserve">
 <g id="icon_print">
  <g>
   <polyline class="iconstroke" points="218.2,67.6 190.6,67.6 190.6,40" />
   <rect x="-14.1" y="56" transform="matrix(0 -1 1 0 -54 166)" class="iconstroke" width="140" height="108" />
   <rect x="14.9" y="104" class="iconstroke" width="36.6" height="62.9" />
   <rect x="60.3" y="53.8" class="iconstroke" width="36.6" height="113.1" />
   <polyline class="iconstroke" points="180.8,53.1 168.5,53.1 168.5,166.9 205.1,166.9 205.1,77.4" />
   <rect x="123.1" y="53.8" class="iconstroke" width="36.6" height="113.1" />
   <polyline class="iconstroke" points="110,40 190.6,40 218.2,67.6 218.2,181 110,181" />
   <line class="iconstroke" x1="45" y1="81.1" x2="21.4" y2="81.1" />
   <polyline class="iconstroke" points="50.5,93.6 33.2,53.9 16,93.6" />
  </g>
 </g>
</svg>
