<svg version="1.1" xmlns="http://www.w3.org/2000/svg" xmlns:xlink="http://www.w3.org/1999/xlink" width="110px" height="110px" viewbox="0 20 220 198" xml:space="preserve">
 <g id="icon_wordpress">
  <g>
   <path class="iconstroke" d="M160.1,117.5c1-14.9-2.8-23.7-6.6-29c-3.9-5.5-9.5-9.9-9.4-17.3c0-1.3,0.1-5.8,3.4-8.6
   c2.7-2.3,6-2.3,6.9-2.2c3.3,0.1,5.7,1.7,6.5,2.2c7.7,5.3,9.4,21.5,6.4,33.1c-0.8,3-2.5,8.1-3.6,11.6
   C162.3,111.6,161,115.1,160.1,117.5c0,0-1.6,4.6-1.1,3.1c0.6-1.7-15.9,44-17.8,48.9h-6.7" />
   <line class="iconstroke" x1="70.4" y1="72" x2="98.6" y2="151.1" />
   <polyline class="iconstroke" points="99.6,72 134.4,169.5 141.3,169.5" />
   <line class="iconstroke" x1="119.1" y1="72" x2="147.7" y2="152" />
   <line class="iconstroke" x1="132.6" y1="72" x2="91.4" y2="72" />
   <line class="iconstroke" x1="83.9" y1="72" x2="42.8" y2="72" />
   <polyline class="iconstroke" points="50.8,72 85.6,169.5 91.7,169.5 113.5,110.9" />
   <circle class="iconstroke length3" cx="110" cy="110" r="97.7" />
  </g>
 </g>
</svg>
