<svg version="1.1" xmlns="http://www.w3.org/2000/svg" xmlns:xlink="http://www.w3.org/1999/xlink" width="110px" height="110px" viewbox="0 20 220 198" xml:space="preserve">
 <g id="icon_3d">
  <g>
   <polyline class="iconstroke" points="110,178.4 51.2,156.9 51.2,88" />
   <polyline class="iconstroke" points="110,178.4 168.8,156.9 168.8,88" />
   <polyline class="iconstroke" points="168.8,88 110,66.5 51.2,88" />
   <line class="iconstroke" x1="110" y1="57.5" x2="110" y2="16.7" />
   <line class="iconstroke" x1="177.5" y1="160.1" x2="215.8" y2="174.1" />
   <polyline class="iconstroke" points="131.2,37 110,15.7 88.8,37" />
   <polyline class="iconstroke" points="188.6,186.7 215.8,174.1 203.2,146.9" />
   <line class="iconstroke" x1="42.5" y1="160.1" x2="4.2" y2="174.1" />
   <polyline class="iconstroke" points="31.4,186.7 4.2,174.1 16.8,146.9" />
   <line class="iconstroke" x1="51.2" y1="88" x2="110" y2="109.5" />
   <line class="iconstroke" x1="110" y1="109.5" x2="110" y2="178.4" />
   <line class="iconstroke" x1="168.8" y1="88" x2="110" y2="109.5" />
  </g>
 </g>
</svg>
