<?xml version="1.0" encoding="utf-8"?>
<!-- Generator: Adobe Illustrator 19.2.1, SVG Export Plug-In . SVG Version: 6.00 Build 0)  -->
<!DOCTYPE svg PUBLIC "-//W3C//DTD SVG 1.1//EN" "http://www.w3.org/Graphics/SVG/1.1/DTD/svg11.dtd">
<svg version="1.1" xmlns="http://www.w3.org/2000/svg" xmlns:xlink="http://www.w3.org/1999/xlink" x="0px" y="0px" width="300px"
	 height="300px" viewBox="0 0 300 300" style="enable-background:new 0 0 300 300;" xml:space="preserve">
<g id="Template" style="display:none;">
</g>
<g id="Base" style="display:none;">
</g>
<g id="SquareGrid">
	
		<rect x="-300" y="-300" transform="matrix(-1 -4.489887e-11 4.489887e-11 -1 -300 -300)" style="fill:#DB6200;" width="300" height="300"/>
	
		<rect x="0" y="-300" transform="matrix(-1 -4.489887e-11 4.489887e-11 -1 300 -300)" style="fill:#9674CC;" width="300" height="300"/>
	
		<rect x="-300" y="0" transform="matrix(-1 -4.489887e-11 4.489887e-11 -1 -300 300)" style="fill:#B32424;" width="300" height="300"/>
	<rect x="0" y="0" transform="matrix(-1 -4.489887e-11 4.489887e-11 -1 300 300)" style="fill:#7A911E;" width="300" height="300"/>
	<g id="_x33_d_x5F_thinicon.tif_1_" style="display:none;opacity:0.25;">
		<defs>
			<rect id="SVGID_3_" x="57.25" y="73.28" style="opacity:0.25;" width="185.62" height="153.45"/>
		</defs>
		<clipPath id="SVGID_2_" style="display:inline;">
			<use xlink:href="#SVGID_3_"  style="overflow:visible;"/>
		</clipPath>
		<g style="display:inline;clip-path:url(#SVGID_2_);">
			
				<image style="overflow:visible;" width="825" height="682" id="_x33_d_x5F_thinicon_1_" xlink:href="E1388F323DE2D797.jpg"  transform="matrix(0.225 0 0 0.225 57.25 73.275)">
			</image>
		</g>
	</g>
</g>
<g id="icons4pt" style="display:none;">
	<path style="fill:none;stroke:#FFFFFF;stroke-width:4;stroke-linecap:round;stroke-linejoin:round;stroke-miterlimit:10;" d="
		M62.17,89.17c0,0,10.77-12,28.52-12c15.88,0,29.18,8.96,29.18,27.3c0,5.07-0.82,12.24-5.54,18.23c-5.22,6.63-12.63,8.64-14.33,9.12
		c-2.13,0.6-8.41,1.52-14.5,1.52h0c0,0,7.67,0.19,12.38,0.85c2.37,0.34,9.75,1.39,15.88,6.94c8.96,8.11,9.3,20.53,9.36,23.22
		c0.05,2.41,0.31,15.11-9.5,24.53c-8.9,8.54-20.09,8.67-24.42,8.69c-6.88,0.04-12.08-1.79-14.19-2.62
		c-7.8-3.08-12.65-8.01-14.94-10.69"/>
	<path style="fill:none;stroke:#FFFFFF;stroke-width:4;stroke-linecap:round;stroke-linejoin:round;stroke-miterlimit:10;" d="
		M62.17,89.17c0,0,10.77-12,28.52-12"/>
	<path style="fill:none;stroke:#FFFFFF;stroke-width:4;stroke-linecap:round;stroke-linejoin:round;stroke-miterlimit:10;" d="
		M89.19,197.56c-6.88,0.04-12.08-1.79-14.19-2.62c-7.8-3.08-12.65-8.01-14.94-10.69"/>
	<path style="fill:none;stroke:#FFFFFF;stroke-width:4;stroke-linecap:round;stroke-linejoin:round;stroke-miterlimit:10;" d="
		M97.87,134.19c2.37,0.34,9.75,1.39,15.88,6.94c8.96,8.11,9.3,20.53,9.36,23.22"/>
	<path style="fill:none;stroke:#FFFFFF;stroke-width:4;stroke-linecap:round;stroke-linejoin:round;stroke-miterlimit:10;" d="
		M123.11,164.34c0.05,2.41,0.31,15.11-9.5,24.53"/>
	<path style="fill:none;stroke:#FFFFFF;stroke-width:4;stroke-linecap:round;stroke-linejoin:round;stroke-miterlimit:10;" d="
		M113.75,141.12c8.96,8.11,9.3,20.53,9.36,23.22"/>
	<path style="fill:none;stroke:#FFFFFF;stroke-width:4;stroke-linecap:round;stroke-linejoin:round;stroke-miterlimit:10;" d="
		M113.75,141.12c8.96,8.11,9.3,20.53,9.36,23.22"/>
	<path style="fill:none;stroke:#FFFFFF;stroke-width:4;stroke-linecap:round;stroke-linejoin:round;stroke-miterlimit:10;" d="
		M90.69,77.17c15.88,0,29.18,8.96,29.18,27.3c0,5.07-0.82,12.24-5.54,18.23"/>
	<path style="fill:none;stroke:#FFFFFF;stroke-width:4;stroke-linecap:round;stroke-linejoin:round;stroke-miterlimit:10;" d="
		M212.92,135.75c0,45.41-22.21,60.25-49.3,60.25h-21.28V75.5h21.28C190.71,75.5,212.92,90.34,212.92,135.75z"/>
	<path style="fill:none;stroke:#FFFFFF;stroke-width:4;stroke-linecap:round;stroke-linejoin:round;stroke-miterlimit:10;" d="
		M170.88,104.04h21.28c2.61,0,5.18,0.14,7.69,0.43"/>
	
		<line style="fill:none;stroke:#FFFFFF;stroke-width:4;stroke-linecap:round;stroke-linejoin:round;stroke-miterlimit:10;" x1="142.33" y1="196" x2="142.33" y2="75.5"/>
	
		<line style="fill:none;stroke:#FFFFFF;stroke-width:4;stroke-linecap:round;stroke-linejoin:round;stroke-miterlimit:10;" x1="170.88" y1="188.09" x2="170.88" y2="104.04"/>
	<path style="fill:none;stroke:#FFFFFF;stroke-width:4;stroke-linecap:round;stroke-linejoin:round;stroke-miterlimit:10;" d="
		M67.7,94.7l23.01,23.01c0,0,8.44-9.41,22.7-11.56"/>
	
		<line style="fill:none;stroke:#FFFFFF;stroke-width:4;stroke-linecap:round;stroke-linejoin:round;stroke-miterlimit:10;" x1="92.03" y1="139.86" x2="116.7" y2="164.54"/>
	
		<line style="fill:none;stroke:#FFFFFF;stroke-width:4;stroke-linecap:round;stroke-linejoin:round;stroke-miterlimit:10;" x1="149.83" y1="83" x2="170.88" y2="104.04"/>
	
		<line style="fill:none;stroke:#FFFFFF;stroke-width:4;stroke-linecap:round;stroke-linejoin:round;stroke-miterlimit:10;" x1="78.57" y1="202.76" x2="88.61" y2="212.79"/>
	
		<line style="fill:none;stroke:#FFFFFF;stroke-width:4;stroke-linecap:round;stroke-linejoin:round;stroke-miterlimit:10;" x1="126.57" y1="99.19" x2="137.33" y2="109.95"/>
	<path style="fill:none;stroke:#FFFFFF;stroke-width:4;stroke-linecap:round;stroke-linejoin:round;stroke-miterlimit:10;" d="
		M88.61,212.79c2.29,2.67,7.14,7.61,14.94,10.69c2.11,0.83,7.31,2.66,14.19,2.62c4.34-0.02,15.52-0.15,24.42-8.69
		c2.76-2.64,4.72-5.55,6.11-8.41l2.03-5.04l20.58,20.58h21.28c27.09,0,49.3-14.84,49.3-60.25c0-23.3-5.85-38.56-15.21-47.89
		l-10.89-10.89"/>
	<path style="fill:none;stroke:#FFFFFF;stroke-width:4;stroke-linecap:round;stroke-linejoin:round;stroke-miterlimit:10;" d="
		M142.33,75.5h21.28c27.09,0,49.3,14.84,49.3,60.25"/>
	
		<polygon style="display:inline;fill:none;stroke:#FFFFFF;stroke-width:4;stroke-linecap:round;stroke-linejoin:round;stroke-miterlimit:10;" points="
		148.04,218.42 89.25,196.92 89.25,128 148.04,149.5 	"/>
	
		<polygon style="display:inline;fill:none;stroke:#FFFFFF;stroke-width:4;stroke-linecap:round;stroke-linejoin:round;stroke-miterlimit:10;" points="
		148.04,218.42 206.83,196.92 206.83,128 148.04,149.5 	"/>
	
		<polyline style="display:inline;fill:none;stroke:#FFFFFF;stroke-width:4;stroke-linecap:round;stroke-linejoin:round;stroke-miterlimit:10;" points="
		206.83,128 148.04,106.5 89.25,128 	"/>
	
		<line style="display:inline;fill:none;stroke:#FFFFFF;stroke-width:4;stroke-linecap:round;stroke-linejoin:round;stroke-miterlimit:10;" x1="148.04" y1="97.5" x2="148.04" y2="56.75"/>
	
		<line style="display:inline;fill:none;stroke:#FFFFFF;stroke-width:4;stroke-linecap:round;stroke-linejoin:round;stroke-miterlimit:10;" x1="215.57" y1="200.11" x2="253.84" y2="214.11"/>
	
		<polyline style="display:inline;fill:none;stroke:#FFFFFF;stroke-width:4;stroke-linecap:round;stroke-linejoin:round;stroke-miterlimit:10;" points="
		169.25,76.96 148.04,55.75 126.83,76.96 	"/>
	
		<polyline style="display:inline;fill:none;stroke:#FFFFFF;stroke-width:4;stroke-linecap:round;stroke-linejoin:round;stroke-miterlimit:10;" points="
		226.63,226.75 253.84,214.11 241.2,186.9 	"/>
	
		<line style="display:inline;fill:none;stroke:#FFFFFF;stroke-width:4;stroke-linecap:round;stroke-linejoin:round;stroke-miterlimit:10;" x1="80.51" y1="200.11" x2="42.24" y2="214.11"/>
	
		<polyline style="display:inline;fill:none;stroke:#FFFFFF;stroke-width:4;stroke-linecap:round;stroke-linejoin:round;stroke-miterlimit:10;" points="
		69.45,226.75 42.24,214.11 54.88,186.9 	"/>
</g>
<g id="icons6pt">
	
		<path style="display:none;fill:none;stroke:#FFFFFF;stroke-width:4;stroke-linecap:round;stroke-linejoin:round;stroke-miterlimit:10;" d="
		M62.17,89.17c0,0,10.77-12,28.52-12c15.88,0,29.18,8.96,29.18,27.3c0,5.07-0.82,12.24-5.54,18.23c-5.22,6.63-12.63,8.64-14.33,9.12
		c-2.13,0.6-8.41,1.52-14.5,1.52h0c0,0,7.67,0.19,12.38,0.85c2.37,0.34,9.75,1.39,15.88,6.94c8.96,8.11,9.3,20.53,9.36,23.22
		c0.05,2.41,0.31,15.11-9.5,24.53c-8.9,8.54-20.09,8.67-24.42,8.69c-6.88,0.04-12.08-1.79-14.19-2.62
		c-7.8-3.08-12.65-8.01-14.94-10.69"/>
	
		<path style="display:none;fill:none;stroke:#FFFFFF;stroke-width:4;stroke-linecap:round;stroke-linejoin:round;stroke-miterlimit:10;" d="
		M62.17,89.17c0,0,10.77-12,28.52-12"/>
	
		<path style="display:none;fill:none;stroke:#FFFFFF;stroke-width:4;stroke-linecap:round;stroke-linejoin:round;stroke-miterlimit:10;" d="
		M89.19,197.56c-6.88,0.04-12.08-1.79-14.19-2.62c-7.8-3.08-12.65-8.01-14.94-10.69"/>
	
		<path style="display:none;fill:none;stroke:#FFFFFF;stroke-width:4;stroke-linecap:round;stroke-linejoin:round;stroke-miterlimit:10;" d="
		M97.87,134.19c2.37,0.34,9.75,1.39,15.88,6.94c8.96,8.11,9.3,20.53,9.36,23.22"/>
	
		<path style="display:none;fill:none;stroke:#FFFFFF;stroke-width:4;stroke-linecap:round;stroke-linejoin:round;stroke-miterlimit:10;" d="
		M123.11,164.34c0.05,2.41,0.31,15.11-9.5,24.53"/>
	
		<path style="display:none;fill:none;stroke:#FFFFFF;stroke-width:4;stroke-linecap:round;stroke-linejoin:round;stroke-miterlimit:10;" d="
		M113.75,141.12c8.96,8.11,9.3,20.53,9.36,23.22"/>
	
		<path style="display:none;fill:none;stroke:#FFFFFF;stroke-width:4;stroke-linecap:round;stroke-linejoin:round;stroke-miterlimit:10;" d="
		M113.75,141.12c8.96,8.11,9.3,20.53,9.36,23.22"/>
	
		<path style="display:none;fill:none;stroke:#FFFFFF;stroke-width:4;stroke-linecap:round;stroke-linejoin:round;stroke-miterlimit:10;" d="
		M90.69,77.17c15.88,0,29.18,8.96,29.18,27.3c0,5.07-0.82,12.24-5.54,18.23"/>
	
		<path style="display:none;fill:none;stroke:#FFFFFF;stroke-width:4;stroke-linecap:round;stroke-linejoin:round;stroke-miterlimit:10;" d="
		M212.92,135.75c0,45.41-22.21,60.25-49.3,60.25h-21.28V75.5h21.28C190.71,75.5,212.92,90.34,212.92,135.75z"/>
	
		<path style="display:none;fill:none;stroke:#FFFFFF;stroke-width:4;stroke-linecap:round;stroke-linejoin:round;stroke-miterlimit:10;" d="
		M170.88,104.04h21.28c2.61,0,5.18,0.14,7.69,0.43"/>
	
		<line style="display:none;fill:none;stroke:#FFFFFF;stroke-width:4;stroke-linecap:round;stroke-linejoin:round;stroke-miterlimit:10;" x1="142.33" y1="196" x2="142.33" y2="75.5"/>
	
		<line style="display:none;fill:none;stroke:#FFFFFF;stroke-width:4;stroke-linecap:round;stroke-linejoin:round;stroke-miterlimit:10;" x1="170.88" y1="188.09" x2="170.88" y2="104.04"/>
	
		<path style="display:none;fill:none;stroke:#FFFFFF;stroke-width:4;stroke-linecap:round;stroke-linejoin:round;stroke-miterlimit:10;" d="
		M67.7,94.7l23.01,23.01c0,0,8.44-9.41,22.7-11.56"/>
	
		<line style="display:none;fill:none;stroke:#FFFFFF;stroke-width:4;stroke-linecap:round;stroke-linejoin:round;stroke-miterlimit:10;" x1="92.03" y1="139.86" x2="116.7" y2="164.54"/>
	
		<line style="display:none;fill:none;stroke:#FFFFFF;stroke-width:4;stroke-linecap:round;stroke-linejoin:round;stroke-miterlimit:10;" x1="149.83" y1="83" x2="170.88" y2="104.04"/>
	
		<line style="display:none;fill:none;stroke:#FFFFFF;stroke-width:4;stroke-linecap:round;stroke-linejoin:round;stroke-miterlimit:10;" x1="78.57" y1="202.76" x2="88.61" y2="212.79"/>
	
		<line style="display:none;fill:none;stroke:#FFFFFF;stroke-width:4;stroke-linecap:round;stroke-linejoin:round;stroke-miterlimit:10;" x1="126.57" y1="99.19" x2="137.33" y2="109.95"/>
	
		<path style="display:none;fill:none;stroke:#FFFFFF;stroke-width:4;stroke-linecap:round;stroke-linejoin:round;stroke-miterlimit:10;" d="
		M88.61,212.79c2.29,2.67,7.14,7.61,14.94,10.69c2.11,0.83,7.31,2.66,14.19,2.62c4.34-0.02,15.52-0.15,24.42-8.69
		c2.76-2.64,4.72-5.55,6.11-8.41l2.03-5.04l20.58,20.58h21.28c27.09,0,49.3-14.84,49.3-60.25c0-23.3-5.85-38.56-15.21-47.89
		l-10.89-10.89"/>
	
		<path style="display:none;fill:none;stroke:#FFFFFF;stroke-width:4;stroke-linecap:round;stroke-linejoin:round;stroke-miterlimit:10;" d="
		M142.33,75.5h21.28c27.09,0,49.3,14.84,49.3,60.25"/>
	
		<polygon style="fill:none;stroke:#FFFFFF;stroke-width:3;stroke-linecap:round;stroke-linejoin:round;stroke-miterlimit:10;" points="
		145.54,218.42 86.75,196.92 86.75,128 145.54,149.5 	"/>
	
		<polygon style="fill:none;stroke:#FFFFFF;stroke-width:3;stroke-linecap:round;stroke-linejoin:round;stroke-miterlimit:10;" points="
		145.54,218.42 204.33,196.92 204.33,128 145.54,149.5 	"/>
	
		<polyline style="fill:none;stroke:#FFFFFF;stroke-width:3;stroke-linecap:round;stroke-linejoin:round;stroke-miterlimit:10;" points="
		204.33,128 145.54,106.5 86.75,128 	"/>
	
		<line style="fill:none;stroke:#FFFFFF;stroke-width:3;stroke-linecap:round;stroke-linejoin:round;stroke-miterlimit:10;" x1="145.54" y1="97.5" x2="145.54" y2="56.75"/>
	
		<line style="fill:none;stroke:#FFFFFF;stroke-width:3;stroke-linecap:round;stroke-linejoin:round;stroke-miterlimit:10;" x1="213.07" y1="200.11" x2="251.34" y2="214.11"/>
	
		<polyline style="fill:none;stroke:#FFFFFF;stroke-width:3;stroke-linecap:round;stroke-linejoin:round;stroke-miterlimit:10;" points="
		166.75,76.96 145.54,55.75 124.33,76.96 	"/>
	
		<polyline style="fill:none;stroke:#FFFFFF;stroke-width:3;stroke-linecap:round;stroke-linejoin:round;stroke-miterlimit:10;" points="
		224.13,226.75 251.34,214.11 238.7,186.9 	"/>
	
		<line style="fill:none;stroke:#FFFFFF;stroke-width:3;stroke-linecap:round;stroke-linejoin:round;stroke-miterlimit:10;" x1="78.01" y1="200.11" x2="39.74" y2="214.11"/>
	
		<polyline style="fill:none;stroke:#FFFFFF;stroke-width:3;stroke-linecap:round;stroke-linejoin:round;stroke-miterlimit:10;" points="
		66.95,226.75 39.74,214.11 52.38,186.9 	"/>
</g>
</svg>
