<?xml version="1.0" encoding="utf-8"?>
<!-- Generator: Adobe Illustrator 22.0.0, SVG Export Plug-In . SVG Version: 6.00 Build 0)  -->
<svg version="1.1" id="Layer_1" xmlns="http://www.w3.org/2000/svg" xmlns:xlink="http://www.w3.org/1999/xlink" x="0px" y="0px"
	 viewBox="0 0 753.3 176.67" style="enable-background:new 0 0 753.3 176.67;" xml:space="preserve">
<style type="text/css">
	.st0{fill:#E04926;}
</style>
<g>
	<path class="st0" d="M29.46,65.92c0.76-0.17,1.59,0.19,1.96,1.22c0.54,1.53,0.69,3.41,1.37,5.36c1.42,4.06,3.71,8.59,4.99,11.56
		c8.06,18.78,17.62,36.82,25.59,55.64c3.19-19.56,3.82-38.56,3.43-58.38c-1.37-3.72-2.6-7.47-4.15-12.17
		c-1.1-3.33-2.27-9.18,1.15-9.85c2.33-0.46,4.3,4.34,5.22,7.18c1.25,3.84,1.3,9.59,2.21,14.07c0.6,2.97,1.82,5.01,2.4,6.8
		c0.96,2.97,1.44,4.45,2.39,7.43c4.31,13.56,9.04,28.81,18.47,39.85c5.53-20.55,10.57-43.73,4.26-64.25
		c-4.82-15.68-20.95-35-39.5-31.51c-1.77,0.33-2.38,1.18-3.61,2.09c-0.07,1.68-0.11,2.53-0.18,4.21c-0.24,1.11-1.2,2.06-2.21,2.26
		c-0.86,0.17-1.7-0.19-2.2-1.37c0.05-2.28-0.7-4.81,0.42-6.84c1.35-2.45,4.17-3.95,7.32-4.53c19.38-3.59,39.35,15.76,43.88,32.43
		c5.89,21.67,3.8,45.53-3.63,68.02c-0.98,3.19-2.4,5.22-3.7,5.47c-2.57,0.48-8.83-10.02-9.74-11.66
		c-6.06-10.68-10.39-22.34-14.17-33.99c-0.16,15.84-1.05,31.07-4.24,46.58c-0.61,3.24-2.1,5.54-3.94,5.93
		c-1.08,0.23-2.28-0.63-2.85-2.34c-9.42-25.48-22.87-49.05-32.71-74.35c-0.23-0.66-0.45-1.47-0.46-2.17
		C27.22,67.37,28.38,66.16,29.46,65.92z"/>
</g>
<g>
	<path class="st0" d="M696,80.16c-0.07,0.92-0.65,0.98-1.39,0.83c-1.83-0.36-4.32-2.38-3.71-8.53
		c1.12-11.29,14.95-13.26,24.12-11.43c10.18,2.03,15.82,11.64,14.78,21.59c-1.1,10.49-9.5,16.71-16.51,23.76
		c-4.09,4.6-6.96,7.83-10.68,24.16c-0.32,1.39-1.81,2.2-2.95,1.96c-0.82-0.17-1.45-0.88-1.42-2.21c2.19-7.59,3.6-12.63,5.38-16.93
		c6.35-11.48,19.86-18.66,21.68-31.73c1.53-11.03-5.43-15.29-11.01-16.45c-9.32-1.94-18.79,0.72-19.36,8.41
		c-0.08,1.01,0.04,1.38,0.9,5.1C695.96,79.35,696.02,79.81,696,80.16z M697.57,147.54c-1.82-0.09-4.13-1.88-3.89-4.63
		c0.3-3.49,3.67-4.71,5.97-4.23c1.58,0.33,2.81,1.48,2.62,3.49c-0.08,0.87-0.4,1.97-0.91,2.88
		C700.68,146.27,699.02,147.61,697.57,147.54z"/>
</g>
<g>
	<path class="st0" d="M107.65,51.52c-0.06-0.87,0.48-1.4,1.53-1.58c1.29-0.22,3.12,0.43,3.65,1.64c5.91,13.59,6.66,38.03,9.64,57.1
		c0.69-6.24,2.69-19.42,11.07-20.74c5.17-0.81,8.77,3.44,10.09,6.81c0.28,0.71,0.69,2.01,0.96,3.2c2.36,10.64,2.37,14.78,4.97,25.83
		c0.36,1.66,1.13,3.17,1.63,4.46c0.63,1.62-0.2,2.71-1.78,2.95c-1.95,0.29-3.54-0.96-4.06-3.52c-1.79-9.48-3.59-18.96-5.4-28.44
		c-0.16-0.9-0.36-1.66-0.81-2.78c-1.09-2.74-2.39-4.52-4.47-4.19c-5.89,0.92-8.98,17.88-9.67,25.05c-0.45,4.71,0.43,8.51,1.31,13.76
		c0.09,0.55,0.48,1.2,0.69,1.69c0.72,1.78-1.29,2.29-2.65,2.51c-0.68,0.11-2.22-0.34-2.54-2.09c-4.81-26.62-8.26-53.89-14.07-80.49
		C107.7,52.23,107.68,51.99,107.65,51.52z"/>
	<path class="st0" d="M176.06,87.43c0.22-0.2,0.56-0.34,0.93-0.38c1.26-0.16,2.43,0.39,2.88,1.6c0.09,0.25,0.15,0.42,0.15,0.68
		c0.43,10.13,2.42,21.22,5.8,30.8c1.35,0.58,3.73,1.24,4.25,2.71c0.39,1.09-0.02,2.33-1.43,2.5c-2.95,0.37-7.01-2.44-8.38-6.21
		c-1.34-3.69-2.63-12.03-3.35-18.08c-1.1,7.78-3.91,14.12-7.22,20.76c-1.6,3.29-3.38,6.3-7.36,6.87c-3.53,0.5-6.21-1.61-7.35-4.61
		c-4.45-12.1,1.16-38.64,14-41.64C172.7,81.57,174.73,84.36,176.06,87.43z M173.43,91.9c0.06-0.89-0.08-1.79-0.33-2.46
		c-0.54-1.46-1.68-2.41-2.47-2.31c-1.12,0.15-1.61,0.52-1.92,0.74c-8.65,8.73-12.64,23.09-9.32,34.95c0.54,1.42,1.54,1.41,1.99,1.34
		c0.64-0.09,1.21-0.48,1.45-0.87C169.73,114.14,171.55,102.84,173.43,91.9z"/>
	<path class="st0" d="M182.07,83.59c-0.37-1.01,0.3-2.6,1.66-2.8c2.11-0.31,4.75-0.5,6.97-0.68c-0.55-3.7-2.58-12.18,0.95-12.6
		c0.8-0.09,1.66,0.37,2.02,1.38c0.08,0.22,0.12,0.33,0.2,0.55c0.26,2.91,0.63,6.28,1.2,10.07c2.75-0.32,4.12-0.48,6.87-0.79
		c2.1-0.24,5.25-0.67,5.85,1.06c0.83,2.4-2.46,2.68-5.12,2.98c-3.26,0.37-3.76,0.34-7.04,0.55c1.3,10.68,1.08,22.26,4.15,32.19
		c1.17,3.77,2.82,4.14,4.1,3.99c4.33-0.5,3.21-5.4,6.41-5.75c0.91-0.1,1.86,0.45,2.24,1.55c0.14,0.42,0.18,0.81-0.2,1.64
		c-1.8,3.87-2.82,6.12-7.59,6.67c-2.86,0.33-6.57-0.02-8.83-6.41c-0.52-1.47-0.95-3.22-1.28-5.24c-0.34-1.99-0.51-2.99-0.86-4.98
		c-1.6-14.88-1.68-17.68-2.56-23.4c-2.28,0.27-4.72,0.91-6.7,1.26C183.22,85.05,182.36,84.39,182.07,83.59z"/>
	<path class="st0" d="M255.72,79.9c0.39,1.24-0.49,2.4-1.94,2.51c-3.63,0.29-3.83-5.97-7.36-4.94c-8.8,2.58-9.4,21.34-6.94,30.92
		c1.12,3.48,3.3,7.64,8.54,7.19c5.34-0.46,4.82-6.04,7.84-6.28c0.92-0.07,1.8,0.51,2.06,1.36c0.95,3.07-2.41,8.68-10.24,9.36
		c-5.69,0.49-10.64-4.42-12.62-10.53c-3.49-10.39-3.26-34.41,10.8-36.13c6.29-0.77,7.11,4.69,9.09,5.36
		C255.39,79.14,255.61,79.56,255.72,79.9z"/>
	<path class="st0" d="M287.65,76.92c0.23-0.19,0.58-0.3,0.95-0.32c1.26-0.07,2.4,0.56,2.75,1.8c0.07,0.26,0.12,0.43,0.1,0.69
		c-0.28,10.13,0.92,21.34,3.61,31.13c1.3,0.67,3.63,1.5,4.04,3.01c0.31,1.12-0.19,2.32-1.6,2.4c-2.96,0.16-6.81-2.93-7.91-6.79
		c-1.08-3.77-1.77-12.19-2.07-18.27c-1.64,7.68-4.88,13.81-8.65,20.2c-1.82,3.17-3.81,6.05-7.82,6.33c-3.55,0.25-6.07-2.05-7-5.12
		c-3.58-12.38,3.86-38.46,16.87-40.55C284.72,70.84,286.54,73.76,287.65,76.92z M284.71,81.19c0.12-0.88,0.05-1.79-0.15-2.48
		c-0.44-1.5-1.5-2.52-2.3-2.47c-1.12,0.07-1.64,0.41-1.97,0.6c-9.24,8.1-14.2,22.14-11.74,34.2c0.44,1.45,1.44,1.51,1.89,1.48
		c0.64-0.05,1.24-0.39,1.5-0.76C279.48,103.11,282.07,91.97,284.71,81.19z"/>
	<path class="st0" d="M329.4,79.02c0.28,1.08,0.48,2.2,0.69,3.37c1,9.3,0.87,18.68,2.42,27.91c0.2,0.78-0.1,1.79,0.06,2.39
		c0.32,1.25,0.18,1.78-1.14,1.82c-2.6,0.08-3.53-0.49-3.67-2.27c-0.85-10.38-1.27-15.58-2.13-25.96c-0.28-3.21-0.63-5.59-1.08-7.28
		c-0.98-3.71-3.02-4.6-3.91-4.21c-5.27,2.33-7.87,17.99-9.61,26.61c-1.75,8.68-1.41,13.43-4.28,13.57
		c-1.14,0.05-1.49-0.53-1.79-1.96c-2.5-12.24-2.41-26.75-3.18-40.09c-0.12-2.13,1-2.36,1.84-2.4c2.21-0.11,3.4,1.28,3.73,2.48
		c0.32,1.16-0.12,3.78-0.17,5.36c-0.2,5.79-0.19,8.68,0.43,15.53c0.18,2.1,0.28,3.15,0.46,5.25c1.75-8.92,3.68-27.59,12.37-29.44
		C324.35,68.89,328.08,73.97,329.4,79.02z"/>
	<path class="st0" d="M357.09,113.83c-1.28,0.02-2.04-0.66-2.24-1.49c-0.66-2.73,4.45-3.08,8.11-3.12c0.15,0,0.22,0,0.37,0
		c-0.66-24.16-0.24-48.29,0.03-72.45c-1.94,0.11-5.46,0.07-7.95,0.1c-1.34,0.02-2.06-0.75-2.25-1.49c-0.28-1.13,0.78-2.91,2.44-3.02
		c0.19,0,0.29,0,0.48-0.01c7.69-0.12,12.13-1.09,19-0.09c1.06,0.15,1.7,1.36,1.85,2.02c0.25,1.04-0.74,2.36-2.05,2.49
		c-3.21,0.3-3.64,0.01-6.87-0.05c-0.72,24.16-1.49,48.38-0.63,72.54c9.26,0.18,9.98,1.38,10.18,2.25c0.24,1.09-0.77,2.49-2.12,2.57
		c-4.4,0.28-8.79-1.08-12.9-1.03c-1.69,0.02-3.34,0.22-4.95,0.76C357.4,113.82,357.29,113.83,357.09,113.83z"/>
	<path class="st0" d="M421.77,30.27c1.01,0.03,2.1,0.66,2.4,2.11c0.05,0.26,0.11,0.53,0.08,0.83c0.3,11.17-0.51,22.33-0.29,33.46
		c0.21,10.34-1.05,20.77-1.1,31.05c-0.01,3.54-0.43,6.87,0.23,10.28c0.32,1.62,0.9,3.25,1.78,4.97c0.09,1.4-1.11,2.45-2.21,2.42
		c-1.6-0.04-3.82-5.1-4.26-7.33c-0.25-1.27-0.33-2.58-0.28-4.19c-0.99,6.72-3.65,10.48-10.86,10.35
		c-6.57-0.11-10.03-7.23-11.12-12.33c-1.44-6.71-1.73-14.74,1.27-22.88c2.82-7.64,8.14-10.61,14.1-10.5
		c2.49,0.05,4.94,1.23,6.98,4.15c0.3-7.48,0.46-11.22,0.77-18.7c0.24-4.56,0.04-13.14,0.39-19.93c-0.01-0.44-0.02-0.65-0.04-1.09
		C420.42,36.84,419.13,30.21,421.77,30.27z M417.62,79.61c-0.73-3.59-3.6-7.78-7.06-7.37c-10.02,1.19-11.51,20.54-10.15,29.69
		c0.81,3.84,3.52,7.88,6.77,7.93c5.35,0.09,8.74-9.62,10.29-17.24c0.56-2.95,0.4-8.41,0.44-10.17
		C417.94,81.59,417.82,80.58,417.62,79.61z"/>
	<path class="st0" d="M442.46,115.22c-6.71,0.15-10.86-7.24-12.02-13.97c-1.98-11.47,1.59-31.44,15.67-31.69
		c6.64-0.12,10.03,6.22,11.12,12.95C458.93,93.01,455.69,114.92,442.46,115.22z M434.82,101.92c0.87,5.29,4.98,9.71,7.69,9.3
		c8.91-1.36,11.24-20.56,9.91-29.54c-0.89-4.92-2.5-8.16-5.63-8C435.77,74.27,433.31,92.73,434.82,101.92z"/>
	<path class="st0" d="M476.61,74.02c-0.4-2.42,3.19-2.3,8.87-1.93c1.01,0.07,1.52,0.1,2.53,0.17c0.84-10.53,3.77-32.19,19.34-30.22
		c1.63,0.21,3.88,0.37,6.26,1.11c1.88,0.59,2.72,1.49,2.84,2.29c0.14,0.93-0.61,1.96-1.56,2.49c-2.64-0.39-5.45-0.98-7.88-1.07
		c-11.97-0.46-14.55,16.5-14.3,25.73c6.17,0.61,4.22,0.29,9.98,0.73c0.66,0.05,1.3,0.15,2.22,0.26c1.38,0.17,2.72,0.56,2.92,1.93
		c0.36,2.43-3.48,2.12-6.7,1.88c-2.29-0.17-4.58-0.35-8.76-0.73c-0.39,10.88-0.36,20.29-0.43,25.88
		c-0.24,18.21,3.32,51.4-23.85,49.82c-10.51-0.61-18.46-7.05-18.73-8.63c-0.2-1.18,0.89-2.05,2.28-1.99
		c0.18,0.01,0.38,0.15,0.56,0.16c8.13,5.43,10.48,5.9,15.47,6.12c22.75,1.02,19.8-30.61,20.06-45.69
		c0.15-8.48-0.32-17.68-0.05-26.17c-3.97-0.53-5.12-0.09-8.86-0.4C477.48,75.66,476.78,75.03,476.61,74.02z"/>
	<path class="st0" d="M517.07,119.99c-6.72-0.17-10.5-7.75-11.34-14.53c-1.43-11.55,3.1-31.33,17.19-30.9
		c6.64,0.2,9.72,6.7,10.49,13.47C534.6,98.6,530.3,120.33,517.07,119.99z M510.07,106.34c0.62,5.32,4.5,9.94,7.23,9.66
		c8.97-0.92,12.23-19.99,11.33-29.03c-0.65-4.96-2.1-8.27-5.24-8.26C512.36,78.76,509,97.08,510.07,106.34z"/>
	<path class="st0" d="M542.78,78.95c-0.21-1.73,0.85-3.24,2.39-3.08c1.54,0.16,2.17,1.49,2.35,2.96c0.36,2.97-1.24,6.13-1.83,13.06
		c2.15-3.89,7.06-14.49,14.69-13.63c1.54,0.17,5.57,1.52,5.8,3.69c0.14,1.29-1.09,2.24-2.4,2.09c-1.07-0.12-2.29-1.18-3.37-1.31
		c-0.93-0.11-5.01,0.98-8.81,6.9c-3.96,6.17-6.27,15.32-7.27,23.25c-0.19,1.51-0.11,10.4-3.61,10.03c-0.77-0.08-1.36-0.49-1.51-1.77
		c-0.06-0.53,0.04-0.43,0.02-0.61c1.24-13.47,1.06-27.42,3.74-40.73C542.85,79.48,542.82,79.31,542.78,78.95z"/>
	<path class="st0" d="M589.98,81.81c0.75,0.1,1.78,0.76,1.81,2.13c-0.83,11.06-4.47,22.21-3.95,32.92c0.31,6.38,3.31,7.08,4.4,7.23
		c4.86,0.67,10.03-6.44,12.85-19.77c1.16-5.49,2.26-11.16,3.11-15.77c0.45-2.44,1.29-3.86,3.21-3.58c0.56,0.08,1.93,0.64,1.75,1.8
		c-2.1,13.54-4.36,27.15-6.46,40.74c1.83-1.36,2.32-1.99,5.55-4.58c0.6-0.44,1.22-0.52,1.82-0.43c0.91,0.14,1.59,0.86,1.65,1.75
		c0.04,0.58-0.1,1.17-0.6,1.71c-4.26,3.31-5.42,4.06-9.09,6.38c-1.14,9.51-1.67,15.89-4.19,23.88c-0.91,2.9-4.18,9.75-11.22,8.77
		c-6.72-0.94-10.21-7.67-10.55-11.66c-1-10.84,9.59-15.74,17.54-20c1.7-1.1,2.55-1.64,4.26-2.73c0.29-2.02,4.72-18.79,5.2-21.4
		c-1.62,5.96-7.48,20.22-15.37,19.14c-4.08-0.56-8.17-4.6-8.63-11.38c-0.72-10.58,2.18-21.22,3.63-31.86
		c0.06-0.39-0.06-0.67-0.18-0.94C586.36,82.56,588.62,81.63,589.98,81.81z M601.13,135.7c-9.32,6.04-17.23,8.54-16.48,17.65
		c0.12,1.46,1.24,6.66,5.63,7.27c7.05,0.98,8.98-13.67,10.12-19.17C600.7,139.15,600.84,138,601.13,135.7z"/>
	<path class="st0" d="M629.39,134.05c-6.71-0.66-9.93-8.5-10.28-15.33c-0.59-11.64,5.39-31.02,19.43-29.56
		c6.62,0.69,9.23,7.4,9.51,14.21C648.47,114.02,642.58,135.36,629.39,134.05z M623.39,119.92c0.23,5.36,3.78,10.24,6.53,10.16
		c9.03-0.26,13.68-19.03,13.43-28.12c-0.29-4.99-1.5-8.41-4.64-8.62C627.69,92.58,622.99,110.6,623.39,119.92z"/>
	<path class="st0" d="M659.29,92.79c0.7,0.12,1.59,0.84,1.7,1.85c0.18,1.57-1.07,3.14-1.36,4.97c-0.93,5.78-3.07,19.83-2.78,26.33
		c0.06,1.34,0.04,2.88,0.09,4.26c0.09,2,0.65,3.97,1.37,3.87c6.63-0.88,13.21-17.63,17.61-25.76c1.67-2.92,4.36-9.85,7.46-9.25
		c0.6,0.12,1.63,0.67,1.67,1.79c0.08,2.36-3.02,8.22-3.43,9.66c-2.09,7.23-3.77,15.05-4.16,26.49c0.01,0.2,0.01,0.29,0.01,0.49
		c0.07,2.54,1.73,2.69,1.77,4.07c0.05,1.92-1.99,2.4-2.89,2.23c-2.29-0.45-2.86-4.63-2.96-7.84c-0.2-6.28,1.12-12.77,2.22-18.8
		c-2.1,3.5-3.84,7.42-6,10.82c-2.01,3.15-6.04,11.92-11.54,10.92c-3.43-0.62-5.18-5-5.44-10.66c-0.43-11.44,1.29-22.89,4.04-33.75
		C656.95,93.37,658.17,92.59,659.29,92.79z"/>
</g>
</svg>
